<svg viewBox="0 0 48 48" xmlns="http://www.w3.org/2000/svg" xmlns:xlink="http://www.w3.org/1999/xlink">
<defs>
<filter height="4.6971" id="filter3827" width="1.2399" x="-.12" y="-1.8486">
<feGaussianBlur stdDeviation="2.407"/>
</filter>
<linearGradient id="linearGradient5981">
<stop offset="0" stop-color="#fff"/>
<stop offset="1" stop-color="#fff" stop-opacity="0"/>
</linearGradient>
<linearGradient gradientUnits="userSpaceOnUse" id="linearGradient3389" x1="20.5074" x2="20.4777" y1="39.0563" y2="9.9124">
<stop offset="0" stop-color="#555753"/>
<stop offset=".364" stop-color="#fafff4"/>
<stop offset="1" stop-color="#555753"/>
</linearGradient>
<linearGradient gradientUnits="userSpaceOnUse" id="linearGradient3859" x1="28.312" x2="45.9992" y1="8.4196" y2="23.031">
<stop offset="0" stop-color="#babdb6"/>
<stop offset="1"/>
</linearGradient>
<linearGradient gradientUnits="userSpaceOnUse" id="linearGradient3893" x1="2.0767" x2="43.119" y1="8.2101" y2="39">
<stop offset="0" stop-color="#eeeeec"/>
<stop offset="1" stop-color="#eeeeec" stop-opacity="0"/>
</linearGradient>
<linearGradient gradientTransform="matrix(.79767,0,0,.4507,-2.6823,8.42287)" gradientUnits="userSpaceOnUse" id="linearGradient2800" x1=".7812" x2="32.5064" xlink:href="#linearGradient5981" y1="-6" y2="29.25"/>
<linearGradient gradientUnits="userSpaceOnUse" id="linearGradient3772" x2="0" xlink:href="#linearGradient5981" y1="22.129" y2="13.7961"/>
<radialGradient cx="23.75" cy="25.8375" gradientTransform="matrix(2.09032,2.397209e-2,-3.901761e-2,3.40213,-24.88693,-58.01955)" gradientUnits="userSpaceOnUse" id="radialGradient4956" r="13.3438">
<stop offset="0" stop-color="#0d72c0"/>
<stop offset="1" stop-color="#0984be" stop-opacity="0"/>
</radialGradient>
</defs>
<path d="m47.3438,40.2656a23.5781,1.1719 0 1,1 -47.1562,0 23.5781,1.1719 0 1,1 47.1562,0z" fill="#2e3436" fill-rule="evenodd" filter="url(#filter3827)" stroke="#2e3436" stroke-linecap="round" stroke-linejoin="round" stroke-width=".9077" transform="matrix(.94831,0,0,1.28,1.69719,-13.60252)"/>
<path d="m2.5861,6.5469h42.8609a1.053,.8028 0 0,1 1.053.8028v31.3838a1.053,.8028 0 0,1 -1.053.8028h-42.8609a1.053,.8028 0 0,1 -1.053-.8028v-31.3838a1.053,.8028 0 0,1 1.053-.8028" fill="#fbfff6" fill-rule="evenodd" stroke="#888a85" stroke-linecap="round" stroke-linejoin="round"/>
<path d="m2.8554,7.5057h42.2599a.3847,.3175 0 0,1 .3847.3175v30.4156a.3847,.3175 0 0,1 -.3847.3175h-42.2599a.3847,.3175 0 0,1 -.3847-.3175v-30.4156a.3847,.3175 0 0,1 .3847-.3175" fill="url(#linearGradient3389)" fill-rule="evenodd" opacity=".3" stroke="url(#linearGradient3859)" stroke-linecap="round" stroke-linejoin="round"/>
<path d="m2.6065,6.5h27.8665a1.1065,.7716 0 0,1 1.1065.7716v25.4866a1.1065,.7716 0 0,1 -1.1065.7716h-27.8665a1.1065,.7716 0 0,1 -1.1065-.7716v-25.4866a1.1065,.7716 0 0,1 1.1065-.7716" fill="#555753" fill-rule="evenodd" stroke="#2e3436" stroke-linecap="square" stroke-linejoin="round"/>
<path d="m9.9688,1.9688v37.875h27.5625v-37.875h-27.5625z" fill="#babdb6" fill-opacity=".898" fill-rule="evenodd" stroke="#2e3436" stroke-linecap="square" stroke-linejoin="round" stroke-width="1.5946" transform="matrix(.791,0,0,.49717,-2.25925,9.64398)"/>
<path d="m10.4062,2.4062v37h26.6875v-37h-26.6875z" fill="url(#radialGradient4956)" fill-rule="evenodd" transform="matrix(.78224,0,0,.48396,-2.04813,9.99526)"/>
<path d="m6.0921,11.127v14.873c0,0 4.3468-7.0034 12.3584-8.3753 10.0382-1.719 8.1748-6.4976 8.1748-6.4976h-20.5332z" fill="url(#linearGradient2800)" fill-rule="evenodd"/>
<path d="m-.5303,21.0526a2.7511,2.6848 0 1,1 -5.5022,0 2.7511,2.6848 0 1,1 5.5022,0z" fill="#eeeeec" fill-rule="evenodd" stroke="#555753" stroke-linecap="round" stroke-linejoin="round" stroke-width=".7768" transform="matrix(1.27844,0,0,1.2963,43.21217,-3.28633)"/>
<path d="m36.4836,9.4181h.1104a.906,.8527 0 0,1 .906.8527v4.4037a.906,.8527 0 0,1 -.906.8527h-.1104a.906,.8527 0 0,1 -.906-.8527v-4.4037a.906,.8527 0 0,1 .906-.8527" fill="#eeeeec" fill-rule="evenodd" opacity=".553" stroke="#555753" stroke-linecap="round" stroke-linejoin="round"/>
<path d="m41.5442,9.4757h.1104a.906,.8527 0 0,1 .906.8527v4.4037a.906,.8527 0 0,1 -.906.8527h-.1104a.906,.8527 0 0,1 -.906-.8527v-4.4037a.906,.8527 0 0,1 .906-.8527" fill="#eeeeec" fill-rule="evenodd" opacity=".553" stroke="#555753" stroke-linecap="round" stroke-linejoin="round"/>
<path d="m36.5388,17.4844a.9612,1.0097 0 0,1 .9612,1.0097 .9612,1.0097 0 0,1 -.9612,1.0097 .9612,1.0097 0 0,1 -.9612-1.0097 .9612,1.0097 0 0,1 .9612-1.0097" fill="#eeeeec" fill-rule="evenodd" opacity=".553" stroke="#555753" stroke-linecap="round" stroke-linejoin="round"/>
<path d="m41.4612,17.4844a.9612,1.0097 0 0,1 .9612,1.0097 .9612,1.0097 0 0,1 -.9612,1.0097 .9612,1.0097 0 0,1 -.9612-1.0097 .9612,1.0097 0 0,1 .9612-1.0097" fill="#eeeeec" fill-rule="evenodd" opacity=".553" stroke="#555753" stroke-linecap="round" stroke-linejoin="round"/>
<path d="m36.5388,28.4844a.9612,1.0097 0 0,1 .9612,1.0097 .9612,1.0097 0 0,1 -.9612,1.0097 .9612,1.0097 0 0,1 -.9612-1.0097 .9612,1.0097 0 0,1 .9612-1.0097" fill="#eeeeec" fill-rule="evenodd" opacity=".553" stroke="#555753" stroke-linecap="round" stroke-linejoin="round"/>
<path d="m41.4612,28.4844a.9612,1.0097 0 0,1 .9612,1.0097 .9612,1.0097 0 0,1 -.9612,1.0097 .9612,1.0097 0 0,1 -.9612-1.0097 .9612,1.0097 0 0,1 .9612-1.0097" fill="#eeeeec" fill-rule="evenodd" opacity=".553" stroke="#555753" stroke-linecap="round" stroke-linejoin="round"/>
<path d="m-63.4655,28.1875v-12.1187" fill="none" stroke="url(#linearGradient3772)" stroke-linecap="round" stroke-width="1.3983"/>
<path d="m3.5911,7.4844h25.9504a1.0304,.7151 0 0,1 1.0304.7151v23.6208a1.0304,.7151 0 0,1 -1.0304.7151h-25.9504a1.0304,.7151 0 0,1 -1.0304-.7151v-23.6208a1.0304,.7151 0 0,1 1.0304-.7151" fill="none" opacity=".209" stroke="url(#linearGradient3893)" stroke-linecap="square" stroke-linejoin="round"/>
<path d="m-.5303,21.0526a2.7511,2.6848 0 1,1 -5.5022,0 2.7511,2.6848 0 1,1 5.5022,0z" fill="none" opacity=".43" stroke="#555753" stroke-linecap="round" stroke-linejoin="round" stroke-width="1.7558" transform="matrix(.56905,0,0,.57002,40.91351,11.97623)"/>
<path d="m10.1473,36.1081c.0396.0134.078.0421.1152.086s.0756.1042.1134.181l.1875.3731h-.1984l-.1746-.3502c-.0451-.0914-.089-.1521-.1317-.182s-.0997-.0448-.1728-.0448h-.2012v.577h-.1847v-1.3652h.417c.1561,0 .2725.0326.3493.0978s.1152.1637.1152.2953c0,.086-.0201.1573-.0603.214s-.0975.096-.1737.118m-.4627-.5733v.4846h.2323c.089,0 .1561-.0204.2012-.0613s.0686-.1021.0686-.182-.0229-.1399-.0686-.1801-.1122-.0613-.2012-.0613h-.2323m1.9861.6593v.0823h-.7736c.0073.1158.0421.2042.1042.2652s.15.0905.2615.0905c.0646,0 .1271-.0079.1875-.0238s.1213-.0396.1811-.0713v.1591c-.0604.0256-.1222.0451-.1856.0585s-.1277.0201-.1929.0201c-.1634,0-.2929-.0475-.3886-.1426s-.1426-.2237-.1426-.3859c0-.1676.0451-.3005.1353-.3987s.2131-.1481.3667-.1481c.1378,0 .2466.0445.3264.1335s.1207.2088.1207.3612m-.1682-.0494c-.0012-.092-.0271-.1655-.0777-.2204s-.1164-.0823-.1993-.0823c-.0939,0-.1692.0265-.2259.0796s-.0884.1277-.0969.224l.5998-.0009m1.2417-.224c.0421-.0756.0924-.1314.1509-.1673s.1274-.0539.2067-.0539c.1067,0 .189.0375.2469.1125 .0579.0744.0869.1804.0869.3182v.6181h-.1692v-.6126c0-.0981-.0174-.171-.0521-.2185s-.0878-.0713-.1591-.0713c-.0872,0-.1561.029-.2067.0869s-.0759.1369-.0759.2368v.5788h-.1692v-.6126c0-.0988-.0174-.1716-.0521-.2185s-.0884-.0713-.1609-.0713c-.086,0-.1542.0293-.2048.0878s-.0759.1365-.0759.2359v.5788h-.1692v-1.0241h.1692v.1591c.0384-.0628.0844-.1091.1381-.139s.1173-.0448.1911-.0448 .1375.0189.1893.0567 .0911.0927.1161.1646m1.4246-.0786c-.0902,0-.1615.0354-.214.1061s-.0786.1664-.0786.2889 .0259.2191.0777.2899 .1241.1052.2149.1052 .1606-.0354.2131-.1061 .0786-.167.0786-.2889-.0262-.2173-.0786-.288-.1234-.107-.2131-.107m0-.1426c.1463,0 .2612.0475.3447.1426s.1253.2268.1253.395-.0418.2993-.1253.395-.1984.1426-.3447.1426-.2621-.0475-.3456-.1426-.1244-.2274-.1244-.395 .0415-.2999.1244-.395 .1987-.1426.3456-.1426m.9144-.2661v.2908h.3466v.1308h-.3466v.5559c0,.0835.0113.1372.0338.1609s.0698.0357.1399.0357h.1728v.1408h-.1728c-.1298,0-.2195-.0241-.2688-.0722s-.0741-.1372-.0741-.2652v-.5559h-.1234v-.1308h.1234v-.2908h.1692m1.4447.7608v.0823h-.7736c.0073.1158.0421.2042.1042.2652s.15.0905.2615.0905c.0646,0 .1271-.0079.1875-.0238s.1213-.0396.181-.0713v.1591c-.0603.0256-.1222.0451-.1856.0585s-.1277.0201-.1929.0201c-.1634,0-.2929-.0475-.3886-.1426s-.1426-.2237-.1426-.3859c0-.1676.0451-.3005.1353-.3987s.2131-.1481.3667-.1481c.1378,0 .2466.0445.3264.1335s.1207.2088.1207.3612m-.1682-.0494c-.0012-.092-.0271-.1655-.0777-.2204s-.1164-.0823-.1993-.0823c-.0939,0-.1692.0265-.2259.0796s-.0884.1277-.0969.224l.5998-.0009m2.0702-.6565v.1948c-.0622-.0579-.1286-.1012-.1993-.1298s-.1448-.043-.224-.043c-.1561,0-.2755.0479-.3584.1436s-.1244.2329-.1244.4133 .0415.3176.1244.4133 .2024.1426.3584.1426c.0792,0 .1539-.0143.224-.043s.1372-.0719.1993-.1298v.1929c-.0646.0439-.1332.0768-.2057.0988s-.1481.0329-.2286.0329c-.2067,0-.3694-.0631-.4883-.1893s-.1783-.2996-.1783-.5185 .0594-.3923.1783-.5185 .2816-.1902.4883-.1902c.0817,0 .1585.011.2304.0329s.1405.0536.2039.0969m.6766.3539c-.0902,0-.1615.0354-.214.1061s-.0786.1664-.0786.2889 .0259.2191.0777.2899 .1241.1052.2149.1052 .1606-.0354.2131-.1061 .0786-.167.0786-.2889-.0262-.2173-.0786-.288-.1234-.107-.2131-.107m0-.1426c.1463,0 .2612.0475.3447.1426s.1253.2268.1253.395-.0418.2993-.1253.395-.1984.1426-.3447.1426-.2621-.0475-.3456-.1426-.1244-.2274-.1244-.395 .0415-.2999.1244-.395 .1987-.1426.3456-.1426m1.5993.4307v.6181h-.1682v-.6126c0-.0969-.0189-.1695-.0567-.2176s-.0945-.0722-.1701-.0722c-.0908,0-.1625.029-.2149.0869s-.0786.1369-.0786.2368v.5788h-.1692v-1.0241h.1692v.1591c.0402-.0616.0875-.1076.1417-.1381s.118-.0457.1893-.0457c.1177,0 .2067.0366.267.1097s.0905.1795.0905.321m.5038-.6968v.2908h.3466v.1308h-.3466v.5559c0,.0835.0113.1372.0338.1609s.0698.0357.1399.0357h.1728v.1408h-.1728c-.1298,0-.2195-.0241-.2688-.0722s-.0741-.1372-.0741-.2652v-.5559h-.1234v-.1308h.1234v-.2908h.1692m1.1622.4481-.0622-.0238c-.0219-.0055-.0463-.0082-.0732-.0082-.0951,0-.1682.0311-.2195.0933s-.0759.1503-.0759.2661v.5395h-.1692v-1.0241h.1692v.1591c.0354-.0622.0814-.1082.1381-.1381s.1256-.0457.2067-.0457l.0384.0027 .0466.0064 .0009.1728m.5752-.0393c-.0902,0-.1615.0354-.214.1061s-.0786.1664-.0786.2889 .0259.2191.0777.2899 .1241.1052.2149.1052 .1606-.0354.2131-.1061 .0786-.167.0786-.2889-.0262-.2173-.0786-.288-.1234-.107-.2131-.107m0-.1426c.1463,0 .2612.0475.3447.1426s.1253.2268.1253.395-.0418.2993-.1253.395-.1984.1426-.3447.1426-.2621-.0475-.3456-.1426-.1244-.2274-.1244-.395 .0415-.2999.1244-.395 .1987-.1426.3456-.1426m.748-.374h.1682v1.4228h-.1682v-1.4228"/>
<path d="m21.0862,21.0282h2.9138a1,.9577 0 0,1 1,.9577v3.0563a1,.9577 0 0,1 -1,.9577h-2.9138a1,.9577 0 0,1 -1-.9577v-3.0563a1,.9577 0 0,1 1-.9577" fill="#eeeeec" fill-rule="evenodd" opacity=".393"/>
<path d="m15.0862,21.0282h2.9138a1,.9577 0 0,1 1,.9577v3.0563a1,.9577 0 0,1 -1,.9577h-2.9138a1,.9577 0 0,1 -1-.9577v-3.0563a1,.9577 0 0,1 1-.9577" fill="#eeeeec" fill-rule="evenodd" opacity=".393"/>
<path d="m9.0862,21.0282h2.9138a1,.9577 0 0,1 1,.9577v3.0563a1,.9577 0 0,1 -1,.9577h-2.9138a1,.9577 0 0,1 -1-.9577v-3.0563a1,.9577 0 0,1 1-.9577" fill="#eeeeec" fill-rule="evenodd" opacity=".393"/>
<path d="m9.0862,15.0282h2.9138a1,.9577 0 0,1 1,.9577v3.0563a1,.9577 0 0,1 -1,.9577h-2.9138a1,.9577 0 0,1 -1-.9577v-3.0563a1,.9577 0 0,1 1-.9577" fill="#eeeeec" fill-rule="evenodd" opacity=".393"/>
<path d="m15.0862,15.0282h2.9138a1,.9577 0 0,1 1,.9577v3.0563a1,.9577 0 0,1 -1,.9577h-2.9138a1,.9577 0 0,1 -1-.9577v-3.0563a1,.9577 0 0,1 1-.9577" fill="#eeeeec" fill-rule="evenodd" opacity=".393"/>
<path d="m21.0862,15.0282h2.9138a1,.9577 0 0,1 1,.9577v3.0563a1,.9577 0 0,1 -1,.9577h-2.9138a1,.9577 0 0,1 -1-.9577v-3.0563a1,.9577 0 0,1 1-.9577" fill="#eeeeec" fill-rule="evenodd" opacity=".393"/>
<path d="m14.6222,11.0801h3.8418a.536,.3831 0 0,1 .536.3831v1.2225a.536,.3831 0 0,1 -.536.3831h-3.8418a.536,.3831 0 0,1 -.536-.3831v-1.2225a.536,.3831 0 0,1 .536-.3831" fill="#2e3436" fill-rule="evenodd" opacity=".643"/>
<path d="m3.9612,7.9384a.9612,1.0097 0 0,1 .9612,1.0097 .9612,1.0097 0 0,1 -.9612,1.0097 .9612,1.0097 0 0,1 -.9612-1.0097 .9612,1.0097 0 0,1 .9612-1.0097" fill-rule="evenodd" opacity=".25"/>
<path d="m12.9265,30h7.167a.829,.9189 0 0,1 .829.9189v1.2116a.829,.9189 0 0,1 -.829.9189h-7.167a.829,.9189 0 0,1 -.829-.9189v-1.2116a.829,.9189 0 0,1 .829-.9189" fill="#2e3436" fill-rule="evenodd" opacity=".348"/>
</svg>
