<svg viewBox="0 0 48 48" xmlns="http://www.w3.org/2000/svg">
<defs>
<filter height="2.3422" id="filter4504" width="1.08359" x="-.04179" y="-.6711">
<feGaussianBlur stdDeviation=".775"/>
</filter>
<linearGradient gradientUnits="userSpaceOnUse" id="linearGradient4452" x1="-.94344" x2="23.98807">
<stop offset="0" stop-color="#6996d0"/>
<stop offset="1" stop-color="#3465a4"/>
</linearGradient>
<linearGradient gradientUnits="userSpaceOnUse" id="linearGradient4466" x1="28.20299" x2="2.5188" y1="33.63603" y2="33.56227">
<stop offset="0" stop-color="#204a87"/>
<stop offset="1" stop-color="#204a87" stop-opacity="0"/>
</linearGradient>
<linearGradient gradientUnits="userSpaceOnUse" id="linearGradient4467" x1="-7.46448" x2="26.46219" y1="22.84347" y2="29.29405">
<stop offset="0" stop-color="#7a7d77"/>
<stop offset="1" stop-color="#3c3d3a"/>
</linearGradient>
</defs>
<path d="m46.45672,40.2836a22.23908,1.385 0 1,1 -44.47815,0 22.23908,1.385 0 1,1 44.47815,0z" fill-rule="evenodd" filter="url(#filter4504)" opacity=".389" transform="matrix(.899318,0,0,2.166071,2.220641,-49.253907)"/>
<path d="m34.39385,36.147h7.28877v2.46422h-7.28877z" fill="#3465a4" fill-rule="evenodd" stroke="#173663" stroke-linejoin="round" stroke-width=".85992"/>
<path d="m6.22482,36.10964h7.28877v2.46422h-7.28877z" fill="#3465a4" fill-rule="evenodd" stroke="#173663" stroke-linejoin="round" stroke-width=".85992"/>
<path d="m29,31.5z" fill="#d3d3d3" fill-rule="evenodd" stroke="#bababa" transform="translate(-277.8571,-33.07897)"/>
<path d="m23.99449,22.46122c4.39124.05354 11.01951.63706 16.03521,1.7686l3.38309,4.82691v6.56043c0,.48334-.39587.87246-.88759.87246 0,0-9.24902,1.07478-18.54308,1.04856s-18.63316-1.15342-18.63316-1.15342c-.49173,0-.88759-.38912-.88759-.87246v-6.45558l3.51181-4.67862c5.11025-1.3111 11.59412-1.97043 16.02132-1.91689z" fill="url(#linearGradient4467)" stroke="#2e3436" stroke-linecap="round" stroke-width=".9227"/>
<path d="m23.99448,23.3966c4.39086.05393 10.55111.56708 15.53042,1.707l3.1311,4.37714-37.36593.03735 3.18789-4.30245c5.10981-1.3208 11.08971-1.87297 15.51652-1.81904z" fill="none" opacity=".168" stroke="#eeeeec" stroke-linecap="round" stroke-width=".92607"/>
<path d="m24.04563,25.45996c1.41162.00146 7.77782.27137 10.89268.47102 .27171.01742.61771,1.32203.89341,1.34119 3.7842.26303 6.36537.54539 6.78023.74958l.90423,1.10996v6.5035c0,.47915-.39693.86489-.88998.86489 0,0-9.2739,1.06545-18.59296,1.03946s-18.68329-1.14341-18.68329-1.14341c-.49305,0-.88998-.38574-.88998-.86489v-6.39956l.92522-1.18347c.57039-.13554 2.75767-.36221 6.73781-.62116 .30077-.01957.67036-1.43465.96396-1.45209 2.71615-.16134 9.68829-.41634 10.95869-.41502z" fill="url(#linearGradient4452)" stroke="#204a87" stroke-linecap="round" stroke-width=".91992"/>
<path d="m5.31732,30.03153c0,0 9.30045-.92197 18.62883-.92197s18.68466.92197 18.68466.92197v5.61274c0,0-9.32032.89558-18.64869.89558s-18.66479-.89558-18.66479-.89558v-5.61274z" fill="url(#linearGradient4466)" fill-rule="evenodd" stroke="#467ec5" stroke-linecap="round" stroke-linejoin="round" stroke-opacity=".582" stroke-width=".92032"/>
<path d="m29,31.5z" fill="#d3d3d3" fill-rule="evenodd" stroke="#bababa" transform="translate(-329.95425,-39.83636)"/>
<path d="m29,31.5z" fill="#d3d3d3" fill-rule="evenodd" stroke="#bababa" transform="translate(-340.63515,-91.68361)"/>
<path d="m29,31.5z" fill="#d3d3d3" fill-rule="evenodd" stroke="#bababa" transform="translate(-395.17037,-103.70455)"/>
<path d="m29,31.5z" fill="#d3d3d3" fill-rule="evenodd" stroke="#bababa" transform="translate(-284.31835,25.92094)"/>
<path d="m5.80293,30.4621c0,0 4.6672-.44436 10.1443-.65688s11.76413-.1932 11.76413-.1932v6.33121c0,0-6.32832.15749-11.80543-.0522s-10.103-.78655-10.103-.78655v-4.64238z" fill="#2e3436" fill-rule="evenodd"/>
<path d="m31.42957,31.42957h5.14087v3.14087h-5.14087z" fill="#fff" fill-rule="evenodd" opacity=".455" stroke="#fff" stroke-linejoin="round" stroke-width=".85913"/>
<path d="m16.13102,34.19225h.65155v.67673h-.65155z" fill="#fcaf3e" fill-rule="evenodd" opacity=".537" stroke="#f57900" stroke-linejoin="round" stroke-width=".26204"/>
<path d="m18.13102,34.19225h.65155v.67673h-.65155z" fill="#fcaf3e" fill-rule="evenodd" opacity=".537" stroke="#f57900" stroke-linejoin="round" stroke-width=".26204"/>
<path d="m20.13103,34.19225h.65155v.67673h-.65155z" fill="#fcaf3e" fill-rule="evenodd" opacity=".537" stroke="#f57900" stroke-linejoin="round" stroke-width=".26204"/>
<path d="m7.13102,33.19225h.65155v.67673h-.65155z" fill="#8ae234" fill-rule="evenodd" opacity=".537" stroke="#73d216" stroke-linejoin="round" stroke-width=".26204"/>
<path d="m16.13102,32.60532h.65155v.67673h-.65155z" fill="#8ae234" fill-rule="evenodd" opacity=".537" stroke="#4e9a06" stroke-linejoin="round" stroke-width=".26204"/>
<path d="m18.13102,32.60532h.65155v.67673h-.65155z" fill="#8ae234" fill-rule="evenodd" opacity=".537" stroke="#4e9a06" stroke-linejoin="round" stroke-width=".26204"/>
<path d="m20.13102,32.60532h.65155v.67673h-.65155z" fill="#8ae234" fill-rule="evenodd" opacity=".537" stroke="#4e9a06" stroke-linejoin="round" stroke-width=".26204"/>
<path d="m16.13102,31.19225h.65155v.67673h-.65155z" fill="#8ae234" fill-rule="evenodd" opacity=".537" stroke="#4e9a06" stroke-linejoin="round" stroke-width=".26204"/>
<path d="m18.13102,31.19225h.65155v.67673h-.65155z" fill="#8ae234" fill-rule="evenodd" opacity=".537" stroke="#4e9a06" stroke-linejoin="round" stroke-width=".26204"/>
<path d="m20.13102,31.19225h.65155v.67673h-.65155z" fill="#8ae234" fill-rule="evenodd" opacity=".537" stroke="#4e9a06" stroke-linejoin="round" stroke-width=".26204"/>
<path d="m14.21742,31.13102h.65155v.67673h-.65155z" fill="#8ae234" fill-rule="evenodd" opacity=".537" stroke="#4e9a06" stroke-linejoin="round" stroke-width=".26204"/>
<path d="m12.21742,31.13102h.65155v.67673h-.65155z" fill="#8ae234" fill-rule="evenodd" opacity=".537" stroke="#4e9a06" stroke-linejoin="round" stroke-width=".26204"/>
<path d="m14.21742,32.57702h.65155v.67673h-.65155z" fill="#8ae234" fill-rule="evenodd" opacity=".537" stroke="#4e9a06" stroke-linejoin="round" stroke-width=".26204"/>
<path d="m12.21742,32.57702h.65155v.67673h-.65155z" fill="#8ae234" fill-rule="evenodd" opacity=".537" stroke="#4e9a06" stroke-linejoin="round" stroke-width=".26204"/>
<path d="m12.21742,34.13102h.65155v.67673h-.65155z" fill="#fcaf3e" fill-rule="evenodd" opacity=".537" stroke="#f57900" stroke-linejoin="round" stroke-width=".26204"/>
<path d="m14.21742,34.13102h.65155v.67673h-.65155z" fill="#fcaf3e" fill-rule="evenodd" opacity=".537" stroke="#f57900" stroke-linejoin="round" stroke-width=".26204"/>
<path d="m22.28128,31.6694h.55256v-.10307h-.20614v-.95767l-.34642.08589v.10736l.20757-.05296v.81738h-.20757v.10307m1.13921.02577c.12788,0 .22474-.06251.29059-.18753 .05058-.0983.07587-.21759.07587-.35787s-.02529-.25528-.07587-.35358c-.06585-.12502-.16128-.18753-.2863-.18753s-.21997.06251-.28487.18753c-.05153.09925-.0773.21759-.0773.35501s.02577.25481.0773.35501c.06394.12597.15746.18896.28057.18896m.00143-.10307c-.14124,0-.21186-.14697-.21186-.4409s.07157-.43804.21473-.43804 .21616.14458.21616.43374c0,.2968-.07301.4452-.21902.4452m.59094.28487h.10879l.37219-1.24254h-.10879l-.37219,1.24254m.82946-.20757h.55256v-.10307h-.20614v-.95767l-.34642.08589v.10736l.20757-.05296v.81738h-.20757v.10307m1.1392.02577c.12788,0 .22474-.06251.29059-.18753 .05058-.0983.07587-.21759.07587-.35787s-.02529-.25528-.07587-.35358c-.06585-.12502-.16128-.18753-.2863-.18753s-.21997.06251-.28487.18753c-.05153.09925-.0773.21759-.0773.35501s.02577.25481.0773.35501c.06394.12597.15746.18896.28057.18896m.00143-.10307c-.14124,0-.21186-.14697-.21186-.4409s.07158-.43804.21473-.43804 .21616.14458.21616.43374c0,.2968-.07301.4452-.21902.4452m.90444.10307c.12788,0 .22475-.06251.29059-.18753 .05058-.0983.07587-.21759.07587-.35787s-.02529-.25528-.07587-.35358c-.06585-.12502-.16128-.18753-.2863-.18753s-.21997.06251-.28487.18753c-.05153.09925-.0773.21759-.0773.35501s.02577.25481.0773.35501c.06394.12597.15746.18896.28057.18896m.00143-.10307c-.14124,0-.21186-.14697-.21186-.4409s.07157-.43804.21473-.43804 .21616.14458.21616.43374c0,.2968-.07301.4452-.21902.4452m-4.47848,1.51309 .17751.02147c.11356,0 .20327-.02529.26912-.07587 .07635-.05631.11452-.13838.11452-.24622 0-.11738-.04294-.20613-.12883-.26626-.07348-.05249-.17178-.07873-.29489-.07873v-.27342h.40368v-.12025h-.52393v.50389l.03865-.00429 .03722-.00143c.21377,0 .32066.07778.32066.23333 0,.06967-.01861.12454-.05583.16462s-.09448.06155-.16319.06155c-.06108,0-.12597-.01384-.19468-.04151v.12311m.88583-.36646h.82884v-.10307h-.82884v.10307m1.12075.63845h.13742v-.36217c.06012.06871.13504.10307.22474.10307 .10784,0 .19087-.04485.24908-.13456 .04962-.07635.07444-.1713.07444-.28487s-.02195-.19277-.06585-.25767c-.05344-.0773-.12931-.11595-.22761-.11595-.11261,0-.19755.05297-.25481.1589v-.14172h-.13742v1.03497m.13742-.45665v-.35072c.07253-.08303.14792-.12454.22618-.12454 .11738,0 .17607.08923.17607.26769 0,.08112-.01288.14744-.03865.19898-.03436.06871-.0878.10307-.16033.10307-.06394,0-.1317-.03149-.20327-.09448m1.06061.19755c.11738,0 .209-.03722.27485-.11166 .06108-.06967.09162-.1651.09162-.2863s-.03054-.21234-.09162-.28201c-.06394-.07539-.15413-.11309-.27055-.11309s-.20661.0377-.27055.11309c-.06108.07253-.09162.16701-.09162.28344s.03006.20948.09018.282c.06489.07635.15412.11452.26769.11452m.00143-.10307c-.07539,0-.1317-.03149-.16892-.09448-.02863-.05153-.04294-.11786-.04294-.19898 0-.19564.07157-.29346.21472-.29346s.21616.09734.21616.29203c0,.19659-.07301.29489-.21902.29489m.57873.08589h.13742v-.50102c.05821-.10307.13122-.1546.21902-.1546 .01718,0 .03817.00382.06299.01145v-.12884l-.0229-.00143-.02147-.00143c-.10402,0-.18323.05297-.23763.1589v-.14172h-.13742v.75869m.92361,0v-.09448c-.02768.00573-.0501.00859-.06728.00859-.08589,0-.12883-.04962-.12883-.14888v-.42086h.19898v-.10307h-.19898v-.15174l-.13742.01431v.13742h-.09448v.10307h.09448v.44663c0,.06967.01956.12502.05869.16605s.09257.06012.16319.06012l.11166-.01718m-4.56544,1.41146c.10879.03054.19755.04581.26626.04581 .10021,0 .18371-.02386.25051-.07158 .07539-.05535.11309-.13074.11309-.22618 0-.07157-.02481-.13361-.07444-.1861-.03149-.03531-.08685-.07587-.16605-.12168l-.07444-.04151c-.05344-.02958-.09066-.05392-.11166-.07301-.03817-.03531-.05726-.07301-.05726-.11309 0-.04581.01861-.0816.05583-.10736 .03245-.02386.07205-.03579.11881-.03579s.13599.02147.24479.06442v-.13456l-.13027-.03006c-.04104-.00668-.0816-.01002-.12168-.01002-.08589,0-.15794.02434-.21616.07301s-.09162.11691-.09162.20184c0,.06585.02529.1255.07587.17894 .03435.03627.08923.07587.16462.11881l.07157.04151c.05249.03054.08971.05631.11166.0773 .0334.0334.0501.07348.0501.12025s-.01956.094-.05869.12454-.07969.04008-.13313.04008c-.07826,0-.17417-.02672-.28773-.08016v.14458m.9277.02004h.13885l.1818-.58835 .16033.58835h.13885l.24765-.75869h-.11881l-.19039.58691-.15747-.58691h-.13742l-.18037.58691-.16605-.58691h-.13456l.21759.75869m1.01563,0h.13742v-.75869h-.13742v.75869m0-.89612h.13742v-.13886h-.13742v.13886m.75306.89612v-.09448c-.02768.00573-.0501.00859-.06728.00859-.08589,0-.12883-.04962-.12883-.14888v-.42086h.19898v-.10307h-.19898v-.15174l-.13742.01431v.13742h-.09448v.10307h.09448v.44663c0,.06967.01956.12502.05869.16605s.09257.06012.16319.06012l.11166-.01718m.72154-.0229v-.11881c-.06776.03245-.13218.04867-.19325.04867-.0773,0-.13742-.02958-.18037-.08875-.03817-.05249-.05726-.11834-.05726-.19755s.01813-.14697.0544-.20041c.04294-.06012.10259-.09018.17894-.09018 .04867,0 .11166.01145.18896.03436v-.11595c-.07539-.01622-.14124-.02433-.19755-.02434-.12215,0-.21616.03483-.28201.1045s-.09877.16653-.09877.28773c0,.1107.03149.20375.09448.27914 .06585.08112.15317.12168.26196.12168 .0668,0 .14363-.01336.23047-.04008m.20573.0229h.13742v-.491c.07444-.1107.15412-.16605.23906-.16605 .0439,0 .07348.01622.08875.04867 .01241.02481.01861.0606.01861.10736v.50102h.13742v-.5454c0-.06776-.01861-.12311-.05583-.16605s-.09352-.06442-.16033-.06442c-.10593,0-.19516.05297-.26769.1589v-.48671h-.13742v1.10369" fill="#eeeeec" transform="scale(.987,1.013)"/>
<path d="m31.08609,34.9995c0,0 1.19975-.49345 1.92823-1.39398s.98568-2.20814.98568-2.20814 .2835,1.33379 1.0335,2.23444 1.9665,1.36818 1.9665,1.36818l-5.91391-.0005z" fill="#eeeeec" fill-rule="evenodd" opacity=".898"/>
</svg>
