<svg viewBox="0 0 48 48" xmlns="http://www.w3.org/2000/svg">
<defs>
<filter height="4.015" id="filter3670" width="1.12497" x="-.06249" y="-1.5075">
<feGaussianBlur stdDeviation="1.167"/>
</filter>
</defs>
<path d="m46.10587,43.93525a22.41419,.92909 0 1,1 -44.82838,0 22.41419,.92909 0 1,1 44.82838,0z" fill="#2e3436" fill-opacity=".75" fill-rule="evenodd" filter="url(#filter3670)" opacity=".6" transform="matrix(1.022307,0,0,1.076328,-.30599,-4.288717)"/>
<path d="m28.51447,6.50783c-6.90475.1839-15.22199,3.65873-22.31757,13.25837l2.55236-6.73441c-20.29655,22.74326 6.69819,34.51071 23.84276,25.34423l8.99551,2.16463c.11975.02634-2.67442-4.50717-3.57953-6.22331 3.75818-2.69158 16.69371-20.05089.65365-27.56899 3.10236,2.00756 3.11228,4.24131 3.70403,6.19325-1.45513-3.53699-6.94646-6.61766-13.85121-6.43376zm.90266,2.43521c5.23901.01543 9.72028,2.11965 11.828,6.10306 2.94093,5.55808.31431,12.98086-5.94513,18.18892l2.14772,4.2992-6.06963-1.62347-.43577.24051c-9.25754,4.97603-19.54587,3.58221-23.09573-3.12669s1.04527-16.12913 10.30281-21.10516c3.76088-2.02151 7.68314-2.98693 11.26773-2.97637z" fill="#f57900" fill-rule="evenodd" stroke="#a94b00" stroke-linecap="round" stroke-linejoin="round"/>
<path d="m23.23723,20.35585-.75488-6.85212 4.66937-.00373-.24883,6.68164 5.89405-3.4607 2.21027,3.70043-5.89405,3.46069 6.38685,3.46069-2.57621,3.81642-6.02091-3.46069 .54502,6.85958-5.03532-.00373 .7085-6.90272-6.16198,3.62743-2.33713-4.05616 5.77207-2.98509-5.89406-3.46069 2.45911-3.81642 6.27812,3.39516z" fill="#f57900" fill-rule="evenodd" stroke="#a94b00" stroke-linecap="round" stroke-linejoin="round"/>
<path d="m24.11709,22.0029-.63875-7.59262 2.6881.07688-.31818,7.51574 6.64397-4.02941 1.21399,2.19169-6.7601,3.73906 7.27638,3.79713-1.51113,2.22781-6.92118-3.91327 .70757,7.555-3.15945-.09733 .8949-7.51409-6.98162,4.12509-1.25893-2.59667 6.66106-3.29482-6.81818-3.62293 1.41605-2.46008 6.86549,3.89282z" fill="none" opacity=".358" stroke="#eeeeec" stroke-linecap="round" stroke-linejoin="round"/>
</svg>
