<svg viewBox="0 0 48 48" xmlns="http://www.w3.org/2000/svg" xmlns:xlink="http://www.w3.org/1999/xlink">
<defs>
<filter height="2.25956" id="filter3946" width="1.32399" x="-.162" y="-.62978">
<feGaussianBlur stdDeviation="2.064"/>
</filter>
<linearGradient id="linearGradient2949">
<stop offset="0" stop-color="#fff" stop-opacity=".45"/>
<stop offset="1" stop-color="#fff" stop-opacity=".313"/>
</linearGradient>
<linearGradient gradientUnits="userSpaceOnUse" id="linearGradient6341" x1="19.07921" x2="17.2355" y1="32.88094" y2="21.19329">
<stop offset="0" stop-color="#788492"/>
<stop offset="1" stop-color="#fafafa"/>
</linearGradient>
<linearGradient gradientTransform="matrix(.7901,.105699,-.109273,.846385,11.919591,-.306991)" gradientUnits="userSpaceOnUse" id="linearGradient6362" x1="32.16968" x2="36.31047" y1="32.34069" y2="37.61432">
<stop offset="0" stop-color="#729fcf"/>
<stop offset="1" stop-color="#2b5582"/>
</linearGradient>
<linearGradient gradientUnits="userSpaceOnUse" id="linearGradient3945" x1="6.14712" x2="36.00006">
<stop offset="0" stop-color="#204a87"/>
<stop offset="1" stop-color="#204a87" stop-opacity="0"/>
</linearGradient>
<linearGradient gradientTransform="matrix(.526765,-5.1139243e-2,4.7647412e-2,.438551,5.113361,13.806931)" gradientUnits="userSpaceOnUse" id="linearGradient6337" x1="29.42501" x2="43.14069" xlink:href="#linearGradient2949" y1="33.59337" y2="38.18956"/>
<linearGradient gradientUnits="userSpaceOnUse" id="linearGradient6344" x1="6.45262" x2="36.60257" xlink:href="#linearGradient2949" y1="22.9536" y2="60.94394"/>
</defs>
<path d="m6.66762,30.90865c1.41962.43523 3.32218-2.07555 4.93295-2.38044 5.04377-.95469 9.66859-1.7309 12.2123-3.11048 6.73968-3.65528 8.98134,4.72171 9.90382,5.35375 1.42945,1.24671-2.94598,4.65734-2.66866,7.43425 .15393,1.54143.77043,2.29427.77043,2.29427 1.20707-3.47873 5.02225-2.05174 4.80258-5.67154 2.89663,1.66414 3.51801-.98637 6.87895-.45828-.47498-.73631-1.08803-1.83298-2.40599-2.40782-1.40481-.53637-3.77944-.46152-4.39615-2.28608-.11259-2.06373-.0819-13.07285-4.97553-16.43844-.71495-1.46597.05658-3.55476 1.44801-4.98184 1.25814-1.29039 2.86424-2.53649 2.4326-2.71649-1.2255-.20539-4.48322.38167-7.33899,1.9544-1.48926.82017-2.80063,1.99942-3.73007,2.44075-6.10951-1.23333-12.22026,2.51555-15.69898,9.23207-.74386,1.43621-.60866,2.96617-1.03568,4.69255-.31873,1.2886-1.73161,3.69454-2.23747,5.24781-.30955.95047.62078,1.4922 1.10588,1.80155z" fill="url(#linearGradient6362)" fill-rule="evenodd" stroke="#204a87"/>
<path d="m7.49073,30.45917c2.1282-6.16494 6.87412-7.29868 9.72538-10.23441 2.80548-2.8886 12.67543-6.05807 18.78348,3.01101 .029.04306-1.28752-7.2149-4.59783-10.09837-1.32539-.48492-5.76231-3.13578-6.66382-2.71308-7.47602-1.3893-15.85444,4.73357-16.46607,13.60557-.10802,1.56683-1.99067,3.86584-2.12079,5.57892-.07263.95629.86913.55405 1.33965.85035z" fill="url(#linearGradient3945)" fill-rule="evenodd" opacity=".569"/>
<path d="m7.76185,29.75694c4.49017-3.23653 4.82378-1.97749 9.16739-3.2003 3.51311-.98901 5.21889-1.1931 6.89728-2.03125 7.10549-3.54831 9.41859,4.40535 10.55938,5.72945 1.5897,1.53129-.61256,3.40474-1.87353,5.99049-.64763,1.32803-.57719,2.31279-.57719,2.31279 1.1029-1.63038 4.71392-.98619 3.73057-5.49876 3.37851,2.7092 4.05392.45319 5.93542.46674-.59762-.78366-1.25269-.81225-1.89617-.97068-1.31335-.51373-3.02378-.32544-3.88188-2.46512-.10525-1.97663.40458-11.94429-4.7496-16.27699-.88558-1.10831-.74593-2.94984.4405-5.04663 .33609-.59397 3.47347-2.99388 2.24889-2.21671-.77081-.1224-3.58284.9376-6.25269,2.44395-1.39231.78554-1.97082,1.47547-2.83976,1.89818-6.24803-1.14275-11.89243,2.03798-15.17524,8.92346-.5204,1.09151-.60472,3.26037-.97164,4.53324-.30505,1.05826-1.78014,3.66665-1.96543,4.84675-.14867.94686.45345.99628 1.20367.56138z" fill="none" stroke="url(#linearGradient6344)" stroke-width=".79763"/>
<path d="m14.29736,27.44086c5.38082-.66859 6.1829-1.32873 9.58069-2.892 5.91849-2.76154 7.99489,1.14666 9.4265,2.80988 .14497.19583.42896-2.08117-1.13855-3.08634-6.30256-2.95694 1.48267-1.80628 1.05786-2.89201-.48876-1.24916-5.18278-1.17452-6.11381-.85435-3.34645,1.15082-4.73712,1.84712-6.43809,2.19589-3.13272.59595-3.76854.04618-5.75026,2.51859-1.89293,2.36163-1.16429,2.26744-.62433,2.20035z" fill="url(#linearGradient6341)" fill-rule="evenodd" opacity=".579"/>
<path d="m24.23872,24.72983c2.07845.94201 7.26314,3.94351 5.02691,4.69768-7.68498.53454-6.66986-2.59327-8.6748-2.85622-1.15243-.82707 2.54428-2.16678 3.64789-1.84145z" fill="#729fcf" fill-rule="evenodd" stroke="#204a87"/>
<path d="m24.14028,25.74736c1.25369.60333 4.8805,2.44606 4.19943,2.8592-2.18338-.03108-4.3836-.61444-4.66709-.85841-.7527-.64775-1.24397-1.22762-1.72306-1.57152-.11835.01973 1.38459-.65583 2.19072-.42927z" fill="none" stroke="url(#linearGradient6337)" stroke-linecap="round" stroke-linejoin="round"/>
<path d="m18.51613,19.7514c.2154.68178-1.23231.9594-2.21587,1.91128-1.184,1.14586-2.00827,2.87062-2.58552,2.18918-.75372-2.19742 2.21061-6.43758 4.80139-4.10046z" fill="#2e3436" fill-rule="evenodd" opacity=".489"/>
<path d="m17.70772,20.47948c.12761.4039-.73004.56837-1.31272,1.13228-.70142.67883-1.18973,1.7006-1.5317,1.29691-.44652-1.30179 1.3096-3.81373 2.84443-2.42918z" fill="#eeeeec" fill-rule="evenodd" opacity=".753"/>
<path d="m35.44373,33.63689a15.29118,3.93328 0 1,1 -30.58237,0 15.29118,3.93328 0 1,1 30.58237,0z" fill-rule="evenodd" filter="url(#filter3946)" opacity=".1" transform="matrix(1.37334,0,0,.508481,-2.676301,26.896269)"/>
<path d="m6.12904,14.07745a.80869,.80869 0 1,1 -1.61739,0 .80869,.80869 0 1,1 1.61739,0z" fill="#555753" fill-rule="evenodd" opacity=".588" transform="matrix(1.234097,0,0,1.234097,9.512124,4.429086)"/>
</svg>
