<svg viewBox="0 0 48 48" xmlns="http://www.w3.org/2000/svg" xmlns:xlink="http://www.w3.org/1999/xlink">
<defs>
<path d="m0,0h792v612h-792z" id="XMLID_31_"/>
<clipPath id="XMLID_72_">
<use height="48" width="48" xlink:href="#XMLID_31_"/>
</clipPath>
<linearGradient gradientUnits="userSpaceOnUse" id="linearGradient4600" x1="24.85207" x2="50.59627" y1="20.90998" y2="58.52074">
<stop offset="0" stop-color="#729fcf"/>
<stop offset="1" stop-color="#729fcf" stop-opacity="0"/>
</linearGradient>
<radialGradient cx="20.15254" cy="33.63689" gradientTransform="matrix(1,0,0,.257225,0,24.98463)" gradientUnits="userSpaceOnUse" id="radialGradient3844" r="15.29118">
<stop offset="0" stop-opacity=".469"/>
<stop offset="1" stop-opacity="0"/>
</radialGradient>
</defs>
<path d="m35.44373,33.63689a15.29118,3.93328 0 1,1 -30.58237,0 15.29118,3.93328 0 1,1 30.58237,0z" fill="url(#radialGradient3844)" fill-rule="evenodd" opacity=".494" transform="matrix(1.504135,0,0,.889842,-6.312139,13.568474)"/>
<path d="m19.62844,4.54833c0,0-4.31345-1.69041-7.83549-1.33425-5.80296.22632-8.52311,4.6426-8.44684,10.06078 .48134,5.33281 1.04066,7.49417 3.04128,13.32177 1.99027,5.79745 4.31193,7.74864 5.98147,7.53229 2.06123-.26711 2.7819-1.24598 2.7819-1.24598s.80538,1.7782 3.74185,1.91128c2.68588.1202 4.13915-1.04067 4.13915-1.04067-.35467,4.10167-.14066,10.32481 3.96753,11.58054 3.23946.30061 4.41568-.19743 6.43913-1.95831s2.33816-6.09886 2.63064-10.47091c0,0 3.95328.33212 6.00573-.87608 2.06703-1.21678 2.73274-1.89876 2.70043-3.08127-.03231-1.14881-.79771-1.43756-1.48185-1.44658-.65045-.00902-2.57382.6256-4.43223.23744 1.41005-2.17402 3.47269-6.31849 4.88517-10.8784 1.04009-3.3577.97538-4.81794.89256-6.42737s-1.11957-3.84093-3.16316-5.37732c-1.80083-1.35388-4.39285-2.12237-5.96929-2.35085-3.36043-.48705-7.40926.89413-7.40926.89413s-1.58236-.70057-4.23867-.46313c-2.62288.23445-4.23006,1.41289-4.23006,1.41289z" fill="#204a87" fill-rule="evenodd" stroke="#204a87" stroke-width="1.25"/>
<path d="m19.80247,5.817c0,0-4.43907-1.72562-7.79257-1.3865-5.52527.21549-7.60419,3.96037-7.53157,9.11927 .45831,5.07762.87931,6.69936 2.7842,12.2481 1.89503,5.52002 3.80803,7.32825 5.54646,7.12225 1.96526-.23288 2.76586-1.77457 2.76586-1.77457s.44197,2.21442 3.23633,2.37224c2.9293.16404 5.09061-2.21673 5.09061-2.21673-.3377,3.9054-.40329,11.64611 3.50831,12.84175 2.24136.48459 4.181-.55905 5.4382-1.815 1.26954-1.26828 1.9783-6.66648 2.2568-10.82932 3.26518.41887 7.96192-.03932 8.57331-2.44987-.03076-.6227-1.71079-.07281-2.30752-.03166-.59452.041-2.56644-.00765-4.33591-.37723 1.34258-2.06999 3.84643-6.8935 5.19132-11.23521 .99031-3.19702 1.26616-4.72237 1.18729-6.25479s-.59356-3.45466-2.53936-4.91753c-1.71465-1.28909-4.31762-2.22328-5.81862-2.44083-3.19962-.46374-6.88383,1.03924-6.88383,1.03924s-1.68851-.63458-4.2177-.4085c-2.49737.22323-4.15162,1.39487-4.15162,1.39487z" fill="url(#linearGradient4600)" fill-rule="evenodd" stroke="#fff" stroke-width="1.25"/>
<path d="m17.78424,27.47055-2.26779,3.22265 .41775,1.31293 2.38715-.71614 2.02907-.77582 .71614-1.85004-3.28233-1.19357z" fill="#204a87" fill-rule="evenodd"/>
<path d="m18.43894,7.18053c-1.9021,2.28696-2.84644,6.25702-2.70899,14.74267-.10172,2.64274.14859,3.17799 1.71259,5.09875 .86151.89482 2.58848,1.378 4.24623,1.57074 2.9293.16404 2.56898,3.14224 2.56898,3.14224-.3377,3.9054-.75924,11.21224 3.15236,12.40787 2.24136.48459 4.181-.55905 5.4382-1.815 1.26954-1.26828 1.9783-6.66648 2.2568-10.82932 .15356-1.33613.12126-2.16449.80983-2.81006 .49037-.7795.34457-.3486.90594-2.46964 .82194-3.10561.12176-5.79371.11594-8.61662 .90308-3.75381.399-5.38116-2.8308-9.3793-2.75605-2.80616-6.89466-4.01342-9.99504-3.83435-2.49737.22323-4.21056,1.19287-5.67204,2.79202z" fill="none" stroke="#fff" stroke-width="1.25"/>
<path d="m13.12284,32.87889c1.18079-.86847 2.01883-1.94245 2.77711-2.8645 .74859-.91028 1.20494-1.32327 1.95206-2.45532" fill="none" stroke="#fff" stroke-width="1.25"/>
<path d="m15.86283,32.0922c1.1808-.86847 2.88695-.46963 3.98824-1.2522 1.08483-.77087 1.25939-1.68792 2.60595-6.02453 .01685-.05427.95898-1.8905 1.0838-3.93642 .08414-1.37916-.21109-3.96294-1.00681-5.57735-.25822-.52391-1.22262-1.15686-2.6101-1.05793-1.69167.12063-2.54882.79046-3.78207,1.40298" fill="none" stroke="#fff" stroke-width="1.25"/>
<path d="m36.51409,27.42233c-1.86341-3.27031-2.50871-4.37191-3.61545-6.84048-.64137-1.37916-1.46059-3.85149-.44198-5.50306 .30661-.49714 2.00274-1.04542 3.39022-.94648 1.69167.12063.61709.12178 1.85035.73431" fill="none" stroke="#fff" stroke-width="1.25"/>
<path d="m19.9815,15.604c0,0-.56432-.01212-.82313.21624s-.30965.31919-.2668.62427 .31825.66253.78004.86044 .91903.13506 1.24034.00413 .58863-.39259.65533-.59237c.10785-.32302-.09826-.5803-.23118-.67362-.13668-.09596-.28342-.18503-.64372-.3119s-.71088-.1272-.71088-.1272z" fill="#fff" fill-rule="evenodd"/>
<path d="m34.21732,15.5068c0,0-.50703.09856-.67984.22945-.29154.22081-.35203.40835-.35972.65479s.13572.50812.49463.66953 .85603.19386 1.19649.05512 .63628-.32883.77321-.50506c.12304-.15836.26371-.34339.24547-.59116s-.17197-.36606-.55375-.50049-1.11651-.01217-1.11651-.01217z" fill="#fff" fill-rule="evenodd"/>
<switch transform="translate(-563.64802,324.37721)"></switch>
<switch transform="translate(-563.64802,324.37721)"></switch>
</svg>
