<svg viewBox="0 0 48 48" xmlns="http://www.w3.org/2000/svg" xmlns:xlink="http://www.w3.org/1999/xlink">
<defs>
<path d="m0,0h792v612h-792z" id="XMLID_31_"/>
<clipPath id="XMLID_72_">
<use height="48" width="48" xlink:href="#XMLID_31_"/>
</clipPath>
<radialGradient cx="23.25" cy="35.375" gradientTransform="matrix(1,0,0,.398649,0,21.2728)" gradientUnits="userSpaceOnUse" id="radialGradient4792" r="18.5">
<stop offset="0"/>
<stop offset="1" stop-opacity="0"/>
</radialGradient>
</defs>
<g transform="translate(.76048,-2.57036)">
<path d="m11.04162,31.62123c1.62075,1.70606 4.46384,3.76482 6.52155,5.44737h3.31505c-.06999-.62062-.04592-1.10015-1.33864-1.25049h-1.84569c-.79747-1.30342-.98358-2.98306-1.40483-4.30999-1.05312-.5055-1.77705-1.011-2.83017-1.51649-.82143.65293-1.59584.97668-2.41728,1.62961z" fill-rule="evenodd" stroke="#000"/>
<path d="m25,20c-12.4863,1.72066-19.28574,12.41392-23.81044,19.31594 1.33333,0 2.85623-.06319 4.18956-.06319-.9808-3.74085 3.78844-8.17676 8.62088-8.25275 6.74265.11078 17.97161,3.63368 27.55769,9.24175 1.66667,0 2.63827.06319 4.30494.06319-.55769-1.31594-.77655-2.0261-1.86263-2.30494s-.38552-.06319-2.18956-.31594c-5.66667-6-11.14377-11.68406-16.81044-17.68406z" fill="#c17d11" fill-rule="evenodd" stroke="#000"/>
<path d="m25.06319,9.02403c-1.88428,9.64363 1.97667,17.94051 8.76034,21.32891 7.04307-3.23701 10.15429-12.23776 8.52941-21.37255-1.58395.64363-3.34662,1.37662-4.21569,3.13725-1.43791-.06536-2.85948-.21242-4.31373-.19608s-2.94118.19608-4.41176.29412c-1.33655-2.12343-2.18928-2.4118-4.34858-3.19166z" fill="#e9b96e" fill-rule="evenodd" stroke="#000"/>
<path d="m10.98102,31.61077c-2.57831-2.5591-5.11986-6.91107-5.12437-9.6666s1.4468-5.76979 5.96114-6.22716c1.12798-.07221 2.25596.08835 2.98489.18241" fill="none" stroke="#000"/>
<path d="m19.33153,17.26733c-.34417-.8658-1.64533-1.65404-3.03645-2.05933s-1.59152-.33112-1.88652.64861c-.2962.9837-.17704,1.34624.94016,1.67937s3.35653.37212 3.98282-.26865z" fill-rule="evenodd" stroke="#000" stroke-linejoin="round"/>
<path d="m16.50575,31.48256c-.0962-1.66049.11008-2.88406.61885-4.27567" fill="none" stroke="#000" stroke-linecap="round" stroke-linejoin="round" stroke-width=".6"/>
<path d="m24.42219,23.08142 4.32021-.00817" fill="none" stroke="#000" stroke-width=".6"/>
<path d="m24.42219,24.40632 4.32021-.00817" fill="none" stroke="#000" stroke-width=".6"/>
<path d="m38.42219,23.08142 4.32021-.00817" fill="none" stroke="#000" stroke-width=".6"/>
<path d="m38.42219,24.40632 4.32021-.00817" fill="none" stroke="#000" stroke-width=".6"/>
<path d="m29.43485,19.2502 9.38351-.00817" fill="none" stroke="#000" stroke-width=".5"/>
<path d="m30.75248,21.89999 5.90834-.00817" fill="none" stroke="#000" stroke-linecap="round" stroke-linejoin="round" stroke-width=".5"/>
<path d="m28.74826,16.83261c.59124-.84858 1.35704-1.54659 2.28213-1.52888s1.27911,1.90524.85378,3.28749-.74406,2.18146-1.13787,3.36289" fill="none" stroke="#000" stroke-linecap="round" stroke-linejoin="round" stroke-width=".5"/>
<path d="m36.70175,21.94335c-.2754-.805-.70967-1.4829-.44487-2.60566 .65671-1.77948 1.66296-2.51034 3.17764-2.54211" fill="none" stroke="#000" stroke-linecap="round" stroke-linejoin="round" stroke-width=".5"/>
<path d="m30.76673,21.93052 4.94995,3.2858" fill="none" stroke="#000" stroke-linecap="round" stroke-linejoin="round" stroke-width=".5"/>
<path d="m36.6546,21.93873-4.97353,3.30937" fill="none" stroke="#000" stroke-linecap="round" stroke-linejoin="round" stroke-width=".5"/>
<path d="m22.39174,25.18199-1.56945-4.31278-2.60474,1.57393 4.17419,2.73885z" fill-rule="evenodd"/>
<path d="m18.72959,25.43132-1.44659-2.56211-1.74476.99037 3.19136,1.57174z" fill-rule="evenodd"/>
<path d="m14.88316,27.43132-.92446-2.96139-1.92904,1.14394 2.85351,1.81745z" fill-rule="evenodd"/>
<path d="m27.49017,18.8243-2.52156-1.54857-.08624,1.42036 2.6078.12821z" fill-rule="evenodd"/>
<path d="m27.02947,20.51355-1.56945-.90359-.05552.95966 1.62497-.05607z" fill-rule="evenodd"/>
<path d="m40.05481,19.25429 2.52156-1.54857 .08624,1.42036-2.6078.12821z" fill-rule="evenodd"/>
<path d="m40.05481,21.28138 1.99943-1.11858-.2209,1.08251-1.77854.03607z" fill-rule="evenodd"/>
<path d="m34.21926,33.13144 1.13946-2.00927 .97693.92895-2.11639,1.08033z" fill-rule="evenodd"/>
<path d="m35.51285,34.70145 1.96872-1.24143 .57765.65252-2.54637.58891z" fill-rule="evenodd"/>
<path d="m25.49216,9.51605c.2969.9214.39927,1.92471.85998,2.61064s.89579,1.30599 1.56638,1.32068c.34406.00753.82799-.30018 1.68771-.4938 .89262-.20103 2.51143-.376 3.19573-.02833 .4607.22523.73712,1.86328 1.10568,2.79492 .00888-1.46922-.07118-2.79557-.0814-3.32579-.70231-.02428-2.00202-.03547-4.64848-.02198-.58356-1.50496-2.27279-2.30351-3.68561-2.85635z" fill-rule="evenodd"/>
<path d="m42.31123,9.51605c-.2969.9214-.39928,1.92471-.85998,2.61064s-.89579,1.30599-1.56639,1.32068c-.34406.00753-.82799-.30018-1.68771-.4938-.89262-.20103-2.51143-.376-3.19573-.02833-.4607.22523-.73712,1.86328-1.10568,2.79492-.00888-1.46922-.14381-2.79557-.1336-3.32579 .70231-.02428 2.21702-.03547 4.86347-.02198 .58356-1.50496 2.27279-2.30351 3.68561-2.85635z" fill-rule="evenodd"/>
</g>
<path d="m41.75,35.375a18.5,7.375 0 1,1 -37,0 18.5,7.375 0 1,1 37,0z" fill="url(#radialGradient4792)" fill-rule="evenodd" opacity=".169" transform="matrix(1.228577,0,0,.429703,-5.125058,24.840845)"/>
<switch transform="translate(-470.49382,260.46079)"></switch>
<switch transform="translate(-470.49382,260.46079)"></switch>
<switch transform="translate(-516.84022,233.00869)"></switch>
<switch transform="translate(-516.84022,233.00869)"></switch>
<switch transform="matrix(11.085238,0,0,11.085238,-7742.418,3675.9002)"></switch>
<switch transform="matrix(11.085238,0,0,11.085238,-7742.418,3675.9002)"></switch>
</svg>
