<svg viewBox="0 0 48 48" xmlns="http://www.w3.org/2000/svg" xmlns:xlink="http://www.w3.org/1999/xlink">
<defs>
<filter height="1.37858" id="filter12329" width="1.09162" x="-.04581" y="-.18929">
<feGaussianBlur stdDeviation=".831"/>
</filter>
<linearGradient id="linearGradient11821">
<stop offset="0" stop-color="#eeeeec"/>
<stop offset="1" stop-color="#eeeeec" stop-opacity="0"/>
</linearGradient>
<linearGradient id="linearGradient4013">
<stop offset="0" stop-color="#898b86" stop-opacity="0"/>
<stop offset="1" stop-color="#888a85" stop-opacity=".612"/>
</linearGradient>
<linearGradient gradientUnits="userSpaceOnUse" id="linearGradient5897" x1="12.53545" x2="13.93516" y1="25.67611" y2="35.31304">
<stop offset="0" stop-color="#eeeeec"/>
<stop offset="1" stop-color="#d3d3d3"/>
</linearGradient>
<linearGradient id="linearGradient5060">
<stop offset="0"/>
<stop offset="1" stop-opacity="0"/>
</linearGradient>
<linearGradient gradientUnits="userSpaceOnUse" id="linearGradient7539" x2="0" y1="-150.69685" y2="327.66039">
<stop offset="0" stop-opacity="0"/>
<stop offset=".5"/>
<stop offset="1" stop-opacity="0"/>
</linearGradient>
<linearGradient gradientUnits="userSpaceOnUse" id="linearGradient11853" x1="4.52601" x2="40.79672">
<stop offset="0" stop-color="#729fcf"/>
<stop offset="1" stop-color="#729fcf" stop-opacity="0"/>
</linearGradient>
<linearGradient gradientTransform="matrix(.236842,0,0,.330862,3.81579,17.844532)" gradientUnits="userSpaceOnUse" id="linearGradient7571" x1="5" x2="51.46778" xlink:href="#linearGradient4013" y1="41.59956" y2="41.5"/>
<linearGradient gradientUnits="userSpaceOnUse" id="linearGradient4027" x1="-44.1226" x2="-31.99447" xlink:href="#linearGradient4013"/>
<linearGradient gradientUnits="userSpaceOnUse" id="linearGradient11819" x1="5" x2="7" xlink:href="#linearGradient11821"/>
<linearGradient gradientUnits="userSpaceOnUse" id="linearGradient11827" x1="-43" x2="-41" xlink:href="#linearGradient11821"/>
<radialGradient cx="605.71429" cy="486.64789" gradientTransform="matrix(2.251519,0,0,1.969706,-1464.7072,-872.8854)" gradientUnits="userSpaceOnUse" id="radialGradient7541" r="117.14286" xlink:href="#linearGradient5060"/>
<radialGradient cx="605.71429" cy="486.64789" gradientTransform="matrix(-2.251518,0,0,1.969706,-339.29958,-872.02602)" gradientUnits="userSpaceOnUse" id="radialGradient7543" r="117.14286" xlink:href="#linearGradient5060"/>
</defs>
<path d="m6.90654,27.0874h34.18693a.90654,.90654 0 0,1 .90654.90654v3.29952a.90654,.90654 0 0,1 -.90654.90654h-34.18693a.90654,.90654 0 0,1 -.90654-.90654v-3.29952a.90654,.90654 0 0,1 .90654-.90654" fill="#2e3436" fill-opacity=".612" fill-rule="evenodd" opacity=".115"/>
<g opacity=".75" transform="matrix(2.140526e-2,0,0,1.4607307e-2,43.228788,30.201275)">
<path d="m-1696.2007-150.69685h1588.3947v478.35718h-1588.3947z" fill="url(#linearGradient7539)" opacity=".402"/>
<path d="m-107.80607-150.68038v478.33079c115.94765.90045 280.30501-107.16966 280.30494-239.19618s-129.38885-239.13459-280.30494-239.13461z" fill="url(#radialGradient7541)" opacity=".402"/>
<path d="m-1696.2007-149.821v478.33079c-115.9477.90045-280.3049-107.16966-280.3049-239.19617s129.3888-239.1346 280.3049-239.13462z" fill="url(#radialGradient7543)" opacity=".402"/>
</g>
<path d="m9.4887,16.61551c-.85115.01991-1.93995-.0362-2.49608,1.23029 0,0-3.44717,6.7935-3.49262,7.84854-.04541,1.05407 0,5.83109 0,5.83109 0,.61761 1.21686,1.125 1.99212,1.125h36.77927c1.09058.23649 2.22861-.5074 2.22861-1.125 0,0 .00076-4.63407 0-5.83109s-3.31386-7.62369-3.31386-7.62369c-.78425-1.63367-1.83204-1.47176-2.69793-1.45514h-28.99952z" fill="url(#linearGradient5897)" stroke="#909090"/>
<path d="m5,26.63921h9v5.4324h-9z" fill="url(#linearGradient7571)" opacity=".512"/>
<path d="m8.91554,17.57666c-.66378,0-.69144-.00818-1.04617.69144l-3.07714,7.54302c0,.61761.22112.46437.83873.46437h36.84255c.61761,0 .53043-.17708.53043-.79468l-2.51857-6.77914c-.5518-.85727-.46122-1.125-1.125-1.125h-30.44483z" fill="#eeeeec"/>
<path d="m-43,26.63921h9v5.51123h-9z" fill="url(#linearGradient4027)" opacity=".512" transform="scale(-1,1)"/>
<path d="m-34,26.63921h20v5.4324h-20z" fill="#888a85" fill-opacity=".612" opacity=".372" transform="scale(-1,1)"/>
<path d="m21.48988,24.47296c-.74267-.13137-1.73855-.5479-2.43852-1.01993-1.53363-1.03419-1.37927-2.07701.39655-2.67915 1.08517-.36795 2.37234-.47919 3.69631-.31944 1.71189.13058 2.8515.02725 4.31695-.08969 .58229-.02415 1.35439.03166 1.9741.14268 .52827.09465 1.19704.31384 1.19704.39233 0,.02558-.2336.11984-.51911.20946-1.51648.47606-1.45867,1.24551.13148,1.74989 .31248.09911.6017.18021.64271.18021 .30069,0-.03502.40971-.60233.73511-.89871.51549-1.77071.76521-2.68628.76929-.15994.00071-.64971-.04175-1.08839-.09435-1.08207-.12976-1.80251-.12909-2.82793.00262-.91692.11778-1.60798.12439-2.1926.02097zm3.08007-4.16359c-.08305-.07338.01374-.27817.21674-.45859 .35731-.31756 1.32736-.62119 2.32543-.72787 .43356-.04634.48935-.04676.61374-.00458s.12242.06993.03582.21138c-.29351.47939-1.50608.90707-2.85434,1.00674-.21954.01623-.29524.01015-.33738-.02708zm-2.73971,4.19122c-.83169-.08986-1.92965-.52712-2.73879-1.0907-.55792-.38861-.88058-.75232-1.01014-1.13866 .8333-2.68383 6.38421-.91635 2.90512-1.80386 1.74612-.06973 3.13728.14254 4.85812.0308 1.37057-.05972 1.18637-.09671 1.91443-.09793 .67059-.00113.92451.01173 1.34137.06794 .60107.08104 1.4449.33786 1.4449.43975 0,.03562-.03145.06476-.06988.06476-.15498,0-.99809.31267-1.19078.4416-.85121.69508.0543,1.15575 1.42507,1.62504l.27817.07381-.1335.17026c-.56036.60892-1.57752.98985-3.23139,1.23146-.19455.00036-.68432-.03717-1.08839-.0834s-.88146-.09332-1.06087-.10465c-.4138-.02614-1.2025.02191-1.87049.11394-.68505.09438-1.27044.11415-1.77294.05985zm-.05666-.0163c-.41605-.04334-1.35509-.3567-1.88801-.63002-1.1525-.59108-1.79145-1.22428-1.79145-1.77531 3.38204-.70653 8.49411-2.33733 12.3589-1.24291 .1235.07874.11667.08267-.43789.25238-.78963.24165-1.05785.43256-1.10684.78782-.06655.53507 1.15725.98603 1.94625,1.3544-.16822.36423-1.54569,1.04865-2.41219,1.19854-.59914.10364-.90341.10086-1.94592-.01779-.83994-.0956-1.03276-.10731-1.56727-.09517-.39117.00888-.81222.04278-1.17545.09462-.62466.08915-1.51303.1221-1.98014.07343zm-.1531-.03678c-1.03576-.16934-2.42658-.85919-3.078-1.52671-.25943-.26583-.44836-.61914-.44836-.83843 2.35888-1.32203 6.51384-1.72446 10.74682-1.62995l1.72247.46337-.57961.18008c-.68178.21183-.96699.3858-1.09651.66885-.20415.58951 1.09565,1.05061 1.96349,1.44589-.22369.40431-1.52799,1.06627-2.39716,1.21663-.61119.10573-.87402.1036-1.88918-.01527-.85847-.10052-.99662-.10857-1.63478-.0952-.48927.01025-.86578.03873-1.26303.09554-.80428.11501-1.48618.12674-2.04616.03519zm.19219.02038c-.73203-.07629-1.84462-.51568-2.60811-1.03-.63681-.42899-1.11044-1.01398-1.11044-1.37154 9.29799,1.86017 5.35198-1.88693 11.07324-1.56131 .54513.08665 1.29081.30199 1.29081.37276 0,.02487-.25462.12781-.56583.22876-1.71652.63905-1.02202,1.25731.42514,1.87372l.45518.27158c-.10851.34197-1.48925,1.03203-2.34653,1.17275-.53856.0884-1.10034.07944-1.97832-.03155-1.56313-.19219-3.07522.07144-4.63514.07484zm.24317.0211c-2.35082-.38002-3.12348-1.26244-3.82786-2.0533-.18499-.3597-.17131-.4401.12558-.73791 3.7061-.45256 8.53222-1.85639 12.10456-.81729-3e-05,.02635-.24525.12226-.54495.21313-1.5878.63363-1.08793,1.18628.15604,1.82412 .31321.09935.61232.18063.66468.18063 .16666,0 .02367.24994-.26099.45621-.31944.23146-1.02605.58559-1.4268.71506-.73999.23907-1.37974.27025-2.52194.12292-1.49253-.18006-2.9968.00944-4.46832.09644zm-.43536-.05859c-1.18155-.18413-2.8456-1.12232-3.3052-1.86345-.27272-.43978-.2639-.54827.07145-.8783 4.67921,1.73571 8.47693-1.1749 11.53827-.60154-2.0394.77218-.45239,1.51577.84361,2.17099-.14371.31191-1.3946.95955-2.16541,1.12114-.62877.13181-1.14831.13629-2.01968.0174-1.65343-.20068-3.29321.04326-4.96304.03376zm-.02408-.00697c-.76127-.12777-1.97242-.68129-2.64059-1.20679-.43345-.3409-.66729-.62736-.77594-.95051 4.06588-1.02319 8.4281-1.95415 11.9742-1.25474-2.28495.77114-1.00442,1.4675.65238,2.17662 0,.19959-1.00515.81213-1.74351,1.06249-.42545.14426-.96093.23392-1.40241.23483-.17387.00036-.70283-.04711-1.17546-.10548-.77243-.09539-.92536-.10476-1.51236-.09263-1.16833.12091-2.20469.15552-3.37631.13621zm-3.38641-2.21077c-.04612-.22919-.02716-.27331.21866-.50884 11.98166,2.05082 5.22588-1.94238 12.29058,1.51891-.6963.81522-1.78321,1.26794-4.13571,1.14551-4.85915-.01931-7.11746-.34515-8.37353-2.15558zm.00588.00124c3.3821.10317 14.3362.14138 11.29337,1.83286-.97407.42912-1.59507.49407-2.9299.30645-4.96601.0067-6.95009-.31029-8.36348-2.13931zm11.98295-1.24307zm-7.14167,3.44133c-4.08107-.9055-4.45191-1.77307 0,0zm7.14553-3.44053c-1.39924-.24505-1.98252-.58792 0,0zm.55906,2.28402c-.66088.80822-2.09165,1.05858-4.03181,1.14203-5.48888-2.38396-1.33054-3.93685 4.03181-1.14203z" fill="#888a85" opacity=".713"/>
<path d="m8.91554,17.69491c-.66378,0-.69144-.00818-1.04617.69144l-3.15597,6.47882c-.86712,1.56356 1.80051,1.71211 2.41811,1.71211h34.16236c0,0 2.73485-.24239 1.98597-1.80594l-2.79447-5.95143c-.5518-.85727-.46122-1.125-1.125-1.125h-30.44483z" fill="none" opacity=".602" stroke="#bdbdbc"/>
<path d="m5.20633,27.0874h1.58735a.20633,.20633 0 0,1 .20633.20633v4.64922a.20633,.20633 0 0,1 -.20633.20633h-1.58735a.20633,.20633 0 0,1 -.20633-.20633v-4.64922a.20633,.20633 0 0,1 .20633-.20633" fill="url(#linearGradient11819)" fill-rule="evenodd"/>
<path d="m-42.79367,27.0874h1.58735a.20633,.20633 0 0,1 .20633.20633v4.64922a.20633,.20633 0 0,1 -.20633.20633h-1.58735a.20633,.20633 0 0,1 -.20633-.20633v-4.64922a.20633,.20633 0 0,1 .20633-.20633" fill="url(#linearGradient11827)" fill-rule="evenodd" transform="scale(-1,1)"/>
<path d="m8.91554,17.57666c-.66378,0-.69144-.00818-1.04617.69144l-3.15597,6.59707c-.86712,1.56356 1.5218,1.48915 2.13941,1.48915 3.0447.03941 9.84077-3.228 17.17467-4.80858 7.34192-1.58231 9.95052-1.00479 16.76924-2.1742l-.31135-.66988c-.5518-.85727-.46122-1.125-1.125-1.125h-30.44483z" fill="url(#linearGradient11853)" filter="url(#filter12329)" opacity=".107"/>
</svg>
