<svg viewBox="0 0 48 48" xmlns="http://www.w3.org/2000/svg" xmlns:xlink="http://www.w3.org/1999/xlink">
<defs>
<filter height="1.92213" id="filter13658" width="1.46107" x="-.23053" y="-.46107">
<feGaussianBlur stdDeviation=".547"/>
</filter>
<linearGradient id="linearGradient13506">
<stop offset="0" stop-color="#eeeeec"/>
<stop offset="1" stop-color="#eeeeec" stop-opacity="0"/>
</linearGradient>
<linearGradient id="linearGradient5060">
<stop offset="0"/>
<stop offset="1" stop-opacity="0"/>
</linearGradient>
<linearGradient gradientUnits="userSpaceOnUse" id="linearGradient7539" x2="0" y1="-150.69685" y2="327.66039">
<stop offset="0" stop-opacity="0"/>
<stop offset=".5"/>
<stop offset="1" stop-opacity="0"/>
</linearGradient>
<linearGradient gradientUnits="userSpaceOnUse" id="linearGradient13265" x1="23.44902" x2="23.57402" y1="5.16033" y2="18.87968">
<stop offset="0" stop-color="#eeeeec"/>
<stop offset="1" stop-color="#d3d3d3"/>
</linearGradient>
<linearGradient gradientTransform="matrix(-1,0,0,1,47.560414,-2.999011)" gradientUnits="userSpaceOnUse" id="linearGradient13536" x1="7.14354" x2="42.88662" y1="25.9375" y2="7.93701">
<stop offset="0" stop-color="#babdb6"/>
<stop offset="1" stop-color="#babdb6" stop-opacity="0"/>
</linearGradient>
<linearGradient gradientTransform="matrix(1.809373,0,0,2.090465,-19.113642,-50.605945)" gradientUnits="userSpaceOnUse" id="linearGradient13514" x1="14.21419" x2="35.55984" xlink:href="#linearGradient13506" y1="30.9426" y2="47.3826"/>
<linearGradient gradientTransform="matrix(1.809373,0,0,2.090465,-16.113642,-48.684426)" gradientUnits="userSpaceOnUse" id="linearGradient13550" x1="16.87178" x2="28.37127" xlink:href="#linearGradient13506" y1="31.80991" y2="32.97779"/>
<linearGradient gradientTransform="matrix(1.809373,0,0,2.090465,-12.487501,-41.684426)" gradientUnits="userSpaceOnUse" id="linearGradient13562" x1="16.87178" x2="28.37127" xlink:href="#linearGradient13506" y1="31.80991" y2="32.97779"/>
<radialGradient cx="605.71429" cy="486.64789" gradientTransform="matrix(2.251519,0,0,1.969706,-1464.7072,-872.8854)" gradientUnits="userSpaceOnUse" id="radialGradient7541" r="117.14286" xlink:href="#linearGradient5060"/>
<radialGradient cx="605.71429" cy="486.64789" gradientTransform="matrix(-2.251518,0,0,1.969706,-339.29958,-872.02602)" gradientUnits="userSpaceOnUse" id="radialGradient7543" r="117.14286" xlink:href="#linearGradient5060"/>
</defs>
<g opacity=".75" transform="matrix(2.140526e-2,0,0,1.4607307e-2,43.307617,38.201275)">
<path d="m-1696.2007-150.69685h1588.3947v478.35718h-1588.3947z" fill="url(#linearGradient7539)" opacity=".402"/>
<path d="m-107.80607-150.68038v478.33079c115.94765.90045 280.30501-107.16966 280.30494-239.19618s-129.38885-239.13459-280.30494-239.13461z" fill="url(#radialGradient7541)" opacity=".402"/>
<path d="m-1696.2007-149.821v478.33079c-115.9477.90045-280.3049-107.16966-280.3049-239.19617s129.3888-239.1346 280.3049-239.13462z" fill="url(#radialGradient7543)" opacity=".402"/>
</g>
<path d="m29,31.5z" fill="#d3d3d3" fill-rule="evenodd" stroke="#bababa" transform="translate(-324.8571,-35.07897)"/>
<path d="m9.98387,6.49132h28.07683c.43011,0 .90895-.00567 1.43928.73047l3.99977,5.48738v26.76829c0,.50911-.43561.91897-.97671.91897h-37.04569c-.5411,0-.97671-.40986-.97671-.91897v-26.76829l3.99977-5.48738c.59662-.78033 1.05337-.73047 1.48347-.73047z" fill="url(#linearGradient13265)" stroke="#a1a49f" stroke-width="1.00126"/>
<path d="m10.14033,7.39542 27.84054-.05885c.40794,0 .53792-.01493.91272.5925l3.59513,5.53002v25.51942c0,.45905.1169.43884-.3963.43884h-36.05562c-.5132,0-.53661.06698-.53661-.39207v-25.69119l3.66128-5.28002c.3748-.65153.57093-.65865.97886-.65865z" fill="none" stroke="#eeeeec"/>
<path d="m42.05097,14.06442v23.95469c0,.50911-.43561.91897-.97671.91897h-34.13858c-.5411,0-.97671-.40986-.97671-.91897v-23.95469h36.092z" fill="#babdb6" opacity=".762"/>
<path d="m5.98386,13.56318h35.95313" fill="none" stroke="#fff"/>
<path d="m37.15647,7.80673-26.75829-.05574c-.41783,0-.883-.00531-1.39818.68439 0,0 8.95842-.62584 17.45842,1.0595s6.28916,3.53145 15.24882,3.50497l-3.48465-4.50873c-.57959-.73111-.64829-.68439-1.06612-.68439z" fill="url(#linearGradient13536)"/>
<path d="m6.91531,14.07848h34.16938c.50708,0 .91531.41902.91531.93952 0,0-9.73885,4.4853-17.87662,12.72989-8.08646,8.19261-10.66886,8.98219-17.20807,11.25211-.50708,0-.91531-.41902-.91531-.93952v-23.04248c0-.52049.40823-.93952.91531-.93952z" fill="url(#linearGradient13514)" fill-rule="evenodd" opacity=".75"/>
<path d="m6.50607,30.49567h35.01463v2.0581h-35.01463z" fill="#8ae234" fill-rule="evenodd" stroke="#4e9a06"/>
<path d="m34,31h6v1h-6z" fill="#888a85" fill-rule="evenodd"/>
<path d="m35,31h2v1h-2z" fill="#bfd4ea" fill-rule="evenodd"/>
<path d="m8.53795,15.51755h31.00662v7.011h-31.00662z" fill="#d3d7cf" fill-rule="evenodd" stroke="#888a85"/>
<path d="m12.45097,22.5h23.03571v3.99166h-23.03571z" fill="#d3d7cf" fill-rule="evenodd" stroke="#888a85"/>
<path d="m9.05133,16h29.79374c.06116.69676.02346.41903.02346.93952 0,0-9.96181-.19691-15.03385,1.80473-5.1203,2.02069-12.36895,3.21303-14.78336,3.2812 .00141-1.93356-.05773-3.83353 0-6.02544z" fill="url(#linearGradient13550)" fill-rule="evenodd"/>
<path d="m12.98603,23h21.90821c.06116.69676.02346.41903.02346.93952 0,0-9.20754-.19691-10.95394.57047-1.77518.78003-8.56332,1.36164-10.97773,1.42981 .00141-1.93356-.05773-.74789 0-2.9398z" fill="url(#linearGradient13562)" fill-rule="evenodd"/>
<path d="m33.6286,30.3143h4.74279v2.3714h-4.74279z" fill="#729fcf" fill-rule="evenodd" filter="url(#filter13658)" opacity=".717"/>
<path d="m31,35.5625h3l.875,1.1875-.875,1.25h-3v-2.4375z" fill="#2e3436" fill-rule="evenodd" opacity=".717"/>
<path d="m27,35.5625h3v2.4375h-3z" fill="#2e3436" fill-rule="evenodd" opacity=".717"/>
<path d="m23,35.5625h3v2.4375h-3z" fill="#2e3436" fill-rule="evenodd" opacity=".717"/>
<path d="m13,35.5h3v2.5h-3z" fill="#2e3436" fill-rule="evenodd" opacity=".717"/>
<path d="m-17.3125,17.875a1.5625,1.4375 0 1,1 -3.125,0 1.5625,1.4375 0 1,1 3.125,0z" fill="#4e9a06" fill-rule="evenodd" opacity=".717" stroke="#36630d" transform="matrix(.64,0,0,.695652,32.913623,24.231594)"/>
<path d="m-17.3125,17.875a1.5625,1.4375 0 1,1 -3.125,0 1.5625,1.4375 0 1,1 3.125,0z" fill="#a40000" fill-rule="evenodd" opacity=".717" stroke="#c00" transform="matrix(.64,0,0,.695652,29.746377,24.356594)"/>
</svg>
