<svg viewBox="0 0 48 48" xmlns="http://www.w3.org/2000/svg" xmlns:xlink="http://www.w3.org/1999/xlink">
<defs>
<filter height="1.26516" id="filter4142" width="1.12216" x="-.06108" y="-.13258">
<feGaussianBlur stdDeviation=".361"/>
</filter>
<linearGradient id="linearGradient11821">
<stop offset="0" stop-color="#eeeeec"/>
<stop offset="1" stop-color="#eeeeec" stop-opacity="0"/>
</linearGradient>
<linearGradient id="linearGradient5060">
<stop offset="0"/>
<stop offset="1" stop-opacity="0"/>
</linearGradient>
<linearGradient gradientUnits="userSpaceOnUse" id="linearGradient7539" x2="0" y1="-150.69685" y2="327.66039">
<stop offset="0" stop-opacity="0"/>
<stop offset=".5"/>
<stop offset="1" stop-opacity="0"/>
</linearGradient>
<linearGradient gradientUnits="userSpaceOnUse" id="linearGradient13265" x2="0" y1="26.34782" y2="39.94218">
<stop offset="0" stop-color="#eeeeec"/>
<stop offset="1" stop-color="#d3d3d3"/>
</linearGradient>
<linearGradient gradientUnits="userSpaceOnUse" id="linearGradient13504" x1="5.39214" x2="38.87975">
<stop offset="0" stop-color="#dfe9f5"/>
<stop offset="1" stop-color="#dfe9f5" stop-opacity="0"/>
</linearGradient>
<linearGradient gradientUnits="userSpaceOnUse" id="linearGradient11819" x1="5.87975" x2="7.87975" xlink:href="#linearGradient11821"/>
<linearGradient gradientUnits="userSpaceOnUse" id="linearGradient13283" x1="-10.71875" x2="-14.07542" xlink:href="#linearGradient5060" y1="13.56248" y2="13.62498"/>
<linearGradient gradientUnits="userSpaceOnUse" id="linearGradient13299" x1="-42.31331" x2="-39.87975" xlink:href="#linearGradient11821"/>
<radialGradient cx="605.71429" cy="486.64789" gradientTransform="matrix(2.251519,0,0,1.969706,-1464.7072,-872.8854)" gradientUnits="userSpaceOnUse" id="radialGradient7541" r="117.14286" xlink:href="#linearGradient5060"/>
<radialGradient cx="605.71429" cy="486.64789" gradientTransform="matrix(-2.251518,0,0,1.969706,-339.29958,-872.02602)" gradientUnits="userSpaceOnUse" id="radialGradient7543" r="117.14286" xlink:href="#linearGradient5060"/>
</defs>
<g transform="translate(44.95516,4.9426)">
<path d="m-12.57542,6.49995v6l-1,3v6.41763c0,0 .98115.57629 2,.58237s2.07542-.55806 2.07542-.55806l-.07542-6.44194-1-3v-6c0,0-.5-1-1-1s-1,1-1,1z" fill="#fff" fill-rule="evenodd"/>
<path d="m-12.57542,2.87603v9.62392l-1,3v6.41763c0,0 .98115.57629 2,.58237s2.07542-.55806 2.07542-.55806l-.07542-6.44194-1-3v-9.62392c0,0-.5-1-1-1s-1,1-1,1z" fill="url(#linearGradient13283)" fill-rule="evenodd" stroke="#000" stroke-linejoin="round"/>
</g>
<g opacity=".6" transform="matrix(2.140526e-2,0,0,1.4607307e-2,43.307617,39.201275)">
<path d="m-1696.2007-150.69685h1588.3947v478.35718h-1588.3947z" fill="url(#linearGradient7539)" opacity=".402"/>
<path d="m-107.80607-150.68038v478.33079c115.94765.90045 280.30501-107.16966 280.30494-239.19618s-129.38885-239.13459-280.30494-239.13461z" fill="url(#radialGradient7541)" opacity=".402"/>
<path d="m-1696.2007-149.821v478.33079c-115.9477.90045-280.3049-107.16966-280.3049-239.19617s129.3888-239.1346 280.3049-239.13462z" fill="url(#radialGradient7543)" opacity=".402"/>
</g>
<path d="m29,31.5z" fill="#d3d3d3" fill-rule="evenodd" stroke="#bababa" transform="translate(-324.8571,-35.07897)"/>
<path d="m9.98387,19.44323h28.07683c.43011,0 .90895-.00567 1.43928.73047l3.99977,7.19525v12.1085c0,.50911-.43561.91897-.97671.91897h-37.04569c-.5411,0-.97671-.40986-.97671-.91897v-12.1085l3.99977-7.19525c.59662-.78033 1.05337-.73047 1.48347-.73047z" fill="url(#linearGradient13265)" stroke="#888a85" stroke-width="1.00126"/>
<path d="m10.14033,20.4066 27.84054.06615c.40794,0 .53792-.01493.91272.5925l3.59513,6.4878v11.42547c0,.45905.1169.43884-.3963.43884h-36.05562c-.5132,0-.53661.06698-.53661-.39207v-11.47224l3.66128-6.4878c.3748-.65153.57093-.65865.97886-.65865z" fill="none" stroke="#eeeeec"/>
<path d="m-20.65324,11.5021a9.06535,3.31082 0 1,1 -18.13071,0 9.06535,3.31082 0 1,1 18.13071,0z" fill="#555753" fill-rule="evenodd" opacity=".9" transform="matrix(.357143,0,0,.357143,46.592617,20.195718)"/>
<path d="m41.88375,27.99958v10.01953c0,.50911-.43561.91897-.97671.91897h-33.97136c-.5411,0-.97671-.40986-.97671-.91897v-10.01953h35.92478z" fill="#babdb6" opacity=".762"/>
<path d="m5.98386,27.4426h35.95313" fill="none" stroke="#fff"/>
<path d="m5.87975,27.9426h2v12h-2z" fill="url(#linearGradient11819)" fill-rule="evenodd"/>
<path d="m-42.3133,27.9426h2.43356v11h-2.43356z" fill="url(#linearGradient13299)" fill-rule="evenodd" transform="scale(-1,1)"/>
<path d="m10.20642,19.9432h27.27514c.41783,0 .883-.00531 1.39818.68439 0,0-8.48203.43999-16.98203,2.12533s-7.54591,4.20896-16.50558,4.18247l3.37317-6.30781c.57959-.73111 1.02329-.68439 1.44112-.68439z" fill="url(#linearGradient13504)"/>
<path d="m-20.65324,11.5021a9.06535,3.31082 0 1,1 -18.13071,0 9.06535,3.31082 0 1,1 18.13071,0z" fill="#555753" fill-rule="evenodd" opacity=".9" transform="matrix(.209033,0,0,.202054,16.536018,22.025406)"/>
<path d="m-20.65324,11.5021a9.06535,3.31082 0 1,1 -18.13071,0 9.06535,3.31082 0 1,1 18.13071,0z" fill="#555753" fill-rule="evenodd" opacity=".9" transform="matrix(.209033,0,0,.202054,21.075057,22.025406)"/>
<path d="m-20.65324,11.5021a9.06535,3.31082 0 1,1 -18.13071,0 9.06535,3.31082 0 1,1 18.13071,0z" fill="#555753" fill-rule="evenodd" opacity=".9" transform="matrix(.209033,0,0,.202054,25.614095,22.025406)"/>
<path d="m-20.65324,11.5021a9.06535,3.31082 0 1,1 -18.13071,0 9.06535,3.31082 0 1,1 18.13071,0z" fill="#555753" fill-rule="evenodd" opacity=".9" transform="matrix(.209033,0,0,.202054,30.153134,22.025406)"/>
<path d="m-20.65324,11.5021a9.06535,3.31082 0 1,1 -18.13071,0 9.06535,3.31082 0 1,1 18.13071,0z" fill="#555753" fill-rule="evenodd" opacity=".9" transform="matrix(.209033,0,0,.202054,34.692172,22.025406)"/>
<path d="m12.99493,27.43538h21.97079c.42919,0 .90702-.00549 1.43622.70746l.0397.6291v15.83803c0,.49308-.43469.89003-.97463.89003h-23.12046c-.53995,0-.97463-.39695-.97463-.89003v-15.83803l.1427-.6291c.59535-.75575 1.05113-.70746 1.48032-.70746z" fill="#2e3436" stroke="#555753"/>
<path d="m14.32918,30.9426h19.10114a.44943,.44943 0 0,1 .44943.44943v11.10114a.44943,.44943 0 0,1 -.44943.44943h-19.10114a.44943,.44943 0 0,1 -.44943-.44943v-11.10114a.44943,.44943 0 0,1 .44943-.44943" fill="#729fcf" fill-rule="evenodd" opacity=".9"/>
<path d="m14.38562,30.9426h18.88465c.28025,0 .50587.20045.50587.44943 0,0-5.38244,2.1456-9.88001,6.0895-4.46921,3.91904-5.89644,4.29674-9.51052,5.38258-.28025,0-.50587-.20045-.50587-.44943v-11.02266c0-.24898.22562-.44943.50587-.44943z" fill="#729fcf" fill-rule="evenodd" opacity=".9"/>
<path d="m18.91238,28.72415h.24099l.37094,1.49085 .36976-1.49085h.26816l.37094,1.49085 .36976-1.49085h.24217l-.443,1.76373h-.30006l-.37212-1.53101-.37566,1.53101h-.30006l-.44182-1.76373m3.26403.16184c-.17326,0-.31109.06458-.41347.19374s-.15239.30518-.15239.52806 .0508.39772.15239.52688 .2402.19374.41347.19374 .3103-.06458.4111-.19374 .15239-.30478.15239-.52688-.0508-.3989-.15239-.52806-.23784-.19374-.4111-.19374m0-.19374c.24729,0 .44497.08309.59303.24926s.22209.38748.22209.66627-.07403.5001-.22209.66627-.34574.24808-.59303.24808-.44655-.08269-.59539-.24808-.22209-.38748-.22209-.66627 .07403-.50089.22209-.66627 .34731-.24926.59539-.24926m1.10337.0319h.25635l.43828.65564 .44064-.65564h.25635l-.56704.84702 .60484.91672h-.25635l-.49616-.75015-.49971.75015h-.25753l.62965-.94152-.54932-.82221m2.45954.16184c-.17326,0-.31109.06458-.41347.19374s-.15239.30518-.15239.52806 .0508.39772.15239.52688 .2402.19374.41347.19374 .3103-.06458.4111-.19374 .15239-.30478.15239-.52688-.0508-.3989-.15239-.52806-.23784-.19374-.4111-.19374m0-.19374c.24729,0 .44497.08309.59303.24926s.22209.38748.22209.66627-.07403.5001-.22209.66627-.34574.24808-.59303.24808-.44655-.08269-.59539-.24808-.22209-.38748-.22209-.66627 .07403-.50089.22209-.66627 .34731-.24926.59539-.24926m1.0313.0319h.24099l.37094,1.49085 .36976-1.49085h.26816l.37094,1.49085 .36976-1.49085h.24217l-.443,1.76373h-.30006l-.37212-1.53101-.37567,1.53101h-.30006l-.44182-1.76373" fill="#eeeeec"/>
<path d="m15.62641,34.70465h.31457l.48419,1.94601 .48265-1.94601h.35003l.48419,1.94601 .48265-1.94601h.31611l-.57825,2.30221h-.39167l-.48573-1.99844-.49036,1.99844h-.39167l-.57671-2.30221m4.26055.21125c-.22616,0-.40606.0843-.5397.25289s-.19892.39835-.19892.68927 .0663.51914.19892.68773 .31354.25289.5397.25289 .40503-.0843.53662-.25289 .19892-.39784.19892-.68773-.06631-.52068-.19892-.68927-.31046-.25289-.53662-.25289m0-.25289c.32279,0 .58082.10846.77408.32536s.28989.50578.2899.86969-.09663.65278-.2899.86969-.45129.32382-.77408.32382-.58288-.10794-.77717-.32382-.2899-.50578-.2899-.86969 .09663-.65381.2899-.86969 .45335-.32536.77717-.32536m1.44023.04163h.33461l.57208.85581 .57517-.85581h.33461l-.74016,1.10562 .78951,1.19659h-.33461l-.64764-.97917-.65227.97917h-.33616l.82189-1.22898-.71703-1.07323m3.21045.21125c-.22616,0-.40606.0843-.5397.25289s-.19892.39835-.19892.68927 .0663.51914.19892.68773 .31354.25289.5397.25289 .40503-.0843.53662-.25289 .19892-.39784.19892-.68773-.06631-.52068-.19892-.68927-.31046-.25289-.53662-.25289m0-.25289c.32279,0 .58082.10846.77408.32536s.28989.50578.2899.86969-.09663.65278-.2899.86969-.45129.32382-.77408.32382-.58288-.10794-.77717-.32382-.2899-.50578-.2899-.86969 .09663-.65381.2899-.86969 .45335-.32536.77717-.32536m1.34617.04163h.31457l.48419,1.94601 .48265-1.94601h.35004l.48419,1.94601 .48265-1.94601h.31611l-.57825,2.30221h-.39167l-.48573-1.99844-.49036,1.99844h-.39167l-.57671-2.30221m-9.03613,4.46872h.83114v.25289h-.83114v-.25289m2.06937.12336c-.22925,0-.38807.02622-.47648.07864s-.13261.14187-.13261.26831c0,.10074.0329.18093.09869.24055s.15728.08789.27139.08789c.15728,0 .28321-.05551.37779-.16654 .0956-.11205.14341-.2606.14341-.44564v-.06322h-.28219m.56591-.11719v.98534h-.28373v-.26214c-.06477.10486-.14546.18247-.24209.23284s-.21485.07402-.35466.07402c-.17682,0-.31765-.04934-.42251-.14803s-.15574-.23284-.15574-.39938c0-.19429.06476-.34078.19429-.43947s.32485-.14803.58288-.14803h.39784v-.02776c0-.13056-.04318-.2313-.12953-.30223s-.2056-.10794-.36083-.10794c-.09869,0-.19481.01182-.28835.03547s-.1835.05911-.26985.1064v-.26214c.10383-.04009.20457-.0699.30223-.08944s.19275-.03084.28527-.03084c.2498,0 .43639.06477.55975.19429s.18504.32588.18504.58905m.55666.30377v-1.04548h.28373v1.03468c0,.16345.03187.2863.0956.36854s.15934.12182.28681.12182c.15317,0 .27396-.04883.36237-.14649s.13415-.23079.13415-.39938v-.97917h.28373v1.72704h-.28373v-.26522c-.06888.10486-.14906.18298-.24055.23438s-.19583.07556-.31611.07556c-.19841,0-.34901-.06168-.45181-.18504s-.1542-.30377-.1542-.54124m3.17036-.78334v-.93445h.28373v2.39935h-.28373v-.25906c-.05963.1028-.13518.17939-.22668.22976s-.19943.07402-.3269.07402c-.20868,0-.37882-.08327-.5104-.2498s-.19583-.3855-.19583-.65689 .06528-.49036.19583-.65689 .30172-.2498.5104-.2498c.12747,0 .23644.02519.3269.07556s.16705.12542.22668.22822m-.96684.60292c0,.20868.04266.37265.12799.4919s.20457.17733.35466.17733 .26831-.05911.35466-.17733 .12953-.28321.12953-.4919-.04318-.37214-.12953-.49036-.20457-.17887-.35466-.17887-.26831.05963-.35466.17887-.12799.28167-.12799.49036m1.83498-.86506h.28373v1.72704h-.28373v-1.72704m0-.67231h.28373v.35929h-.28373v-.35929m1.54509.87123c-.15215,0-.27242.05963-.36083.17887s-.13261.28065-.13261.48727 .04369.36957.13107.48881 .2092.17733.36237.17733 .27088-.05962.35929-.17887 .13261-.28167.13261-.48727c0-.20457-.0442-.36648-.13261-.48573s-.20817-.18041-.35929-.18041m0-.24055c.24672,0 .4405.08019.58133.24055s.21125.38242.21125.66615-.07042.50475-.21125.66615-.33462.24055-.58133.24055-.44204-.08018-.58288-.24055-.20971-.38344-.20971-.66615 .0699-.50577.20971-.66615 .33513-.24055.58288-.24055m1.11795.77717h.83114v.25289h-.83114v-.25289" fill="#9cbcde" filter="url(#filter4142)" stroke="#8aafd7" stroke-width=".86805" transform="matrix(1.131412,0,0,1.17298,-1.18641,-6.799855)"/>
<path d="m16.37216,33.82406h.3617l.55673,2.31976 .55496-2.31976h.40247l.55673,2.31976 .55495-2.31976h.36347l-.66488,2.74438h-.45035l-.5585-2.38226-.56382,2.38226h-.45035l-.66311-2.74438m4.89886.25183c-.26004,0-.4669.10049-.62056.30146s-.22872.47486-.22872.82166 .07624.61885.22872.81982 .36051.30146.62056.30146 .46571-.10048.61701-.30146 .22872-.47424.22872-.81982-.07624-.62068-.22872-.82166-.35697-.30146-.61701-.30146m0-.30146c.37115,0 .66784.12929.89006.38785s.33333.60292.33333,1.03672-.11111.77816-.33333,1.03672-.51891.38602-.89006.38602-.6702-.12867-.8936-.38602-.33333-.60292-.33333-1.03672 .11111-.77938.33333-1.03672 .52127-.38785.8936-.38785m1.656.04963h.38475l.65779,1.02018 .66134-1.02018h.38474l-.85105,1.31796 .90779,1.42641h-.38475l-.74467-1.16723-.74999,1.16723h-.38652l.94502-1.46501-.82445-1.27936m3.69143.25183c-.26004,0-.4669.10049-.62056.30146s-.22872.47486-.22872.82166 .07624.61885.22872.81982 .36051.30146.62056.30146 .46571-.10048.61701-.30146 .22872-.47424.22872-.81982-.07624-.62068-.22872-.82166-.35697-.30146-.61701-.30146m0-.30146c.37115,0 .66784.12929.89006.38785s.33332.60292.33333,1.03672-.11111.77816-.33333,1.03672-.51891.38602-.89006.38602-.6702-.12867-.8936-.38602-.33333-.60292-.33333-1.03672 .11111-.77938.33333-1.03672 .52127-.38785.8936-.38785m1.54785.04963h.3617l.55673,2.31976 .55496-2.31976h.40247l.55673,2.31976 .55495-2.31976h.36347l-.66488,2.74438h-.45035l-.5585-2.38226-.56382,2.38226h-.45035l-.66311-2.74438m-10.3899,5.327h.95566v.30146h-.95566v-.30146m2.3794.14705c-.26359,0-.44621.03125-.54786.09374s-.15248.16911-.15248.31984c0,.12009.03782.21568.11347.28675s.18085.10477.31205.10477c.18085,0 .32564-.06617.43439-.19852s.16489-.31065.16489-.53123v-.07536h-.32446m.6507-.1397v1.17459h-.32624v-.31249c-.07447.125-.16726.21752-.27836.27756s-.24704.08823-.4078.08823c-.20331,0-.36524-.05882-.48581-.17647s-.17908-.27756-.17908-.47608c0-.23161.07447-.40623.2234-.52388s.37351-.17646.6702-.17646h.45744v-.03309c0-.15563-.04964-.27572-.14893-.36028-.09811-.08578-.2364-.12867-.41489-.12867-.11347,0-.22399.01409-.33156.04228s-.21099.07046-.31028.12683v-.31249c.11938-.04779.23522-.08333.34751-.10661s.22163-.03676.32801-.03676c.28723,0 .50176.0772.64361.23161s.21276.38847.21276.70218m.64006.36212v-1.24627h.32624v1.23341c0,.19485.03664.34129.10993.43932s.18321.14522.32978.14522c.17612,0 .315-.05821.41666-.17463s.15425-.27511.15425-.47608v-1.16723h.32624v2.05874h-.32624v-.31616c-.0792.125-.17139.21813-.27659.2794-.10402.06005-.22518.09007-.36347.09007-.22813,0-.40129-.07353-.51949-.22058s-.1773-.36212-.1773-.6452m3.64533-.93379v-1.11393h.32624v2.86018h-.32624v-.30881c-.06856.12255-.15544.21384-.26063.27389-.10402.05882-.22931.08823-.37588.08823-.23995,0-.43557-.09926-.58687-.29778s-.22518-.45954-.22518-.78306 .07506-.58454.22518-.78306 .34692-.29778.58687-.29778c.14657,0 .27186.03002.37588.09007 .1052.05882.19208.14951.26063.27205m-1.11168.71872c0,.24876.04905.44422.14716.58637s.23522.21139.4078.21139 .3085-.07046.40779-.21139 .14893-.33761.14893-.58637-.04965-.44361-.14893-.58454-.23522-.21322-.40779-.21323-.30851.07108-.4078.21323-.14716.33577-.14716.58454m2.10989-1.03121h.32624v2.05874h-.32624v-2.05874m0-.80144h.32624v.42829h-.32624v-.42829m1.77657,1.03856c-.17494,0-.31323.07108-.41489.21323s-.15248.33455-.15248.58086 .05023.44055.15071.5827 .24054.21139.41666.21139c.17375,0 .31146-.07108.41311-.21323s.15248-.33577.15248-.58086c0-.24386-.05083-.43687-.15248-.57902s-.23936-.21506-.41311-.21506m0-.28675c.28368,0 .50649.09559.66843.28675s.2429.45586.2429.79409-.08097.60169-.2429.79409-.38475.28675-.66843.28675-.50827-.09558-.6702-.28675-.24113-.45709-.24113-.79409 .08038-.60292.24113-.79409 .38534-.28675.6702-.28675m1.28544.92643h.95566v.30146h-.95566v-.30146" fill="#eeeeec"/>
</svg>
