<?xml version="1.0" encoding="UTF-8" standalone="no"?>
<!-- Created with Inkscape (http://www.inkscape.org/) -->
<svg
   xmlns:dc="http://purl.org/dc/elements/1.1/"
   xmlns:cc="http://web.resource.org/cc/"
   xmlns:rdf="http://www.w3.org/1999/02/22-rdf-syntax-ns#"
   xmlns:svg="http://www.w3.org/2000/svg"
   xmlns="http://www.w3.org/2000/svg"
   xmlns:xlink="http://www.w3.org/1999/xlink"
   xmlns:sodipodi="http://sodipodi.sourceforge.net/DTD/sodipodi-0.dtd"
   xmlns:inkscape="http://www.inkscape.org/namespaces/inkscape"
   width="48px"
   height="48px"
   id="svg2160"
   sodipodi:version="0.32"
   inkscape:version="0.45.1"
   sodipodi:docbase="/home/bellaich"
   sodipodi:docname="network-access-point-livebox.svg"
   inkscape:output_extension="org.inkscape.output.svg.inkscape"
   inkscape:export-filename="/home/bellaich/Desktop/network-access-point-livebox.png"
   inkscape:export-xdpi="90"
   inkscape:export-ydpi="90">
  <sodipodi:namedview
     id="base"
     pagecolor="#ffffff"
     bordercolor="#999999"
     borderopacity="1"
     inkscape:pageopacity="0.0"
     inkscape:pageshadow="2"
     inkscape:zoom="14.492082"
     inkscape:cx="23.753862"
     inkscape:cy="22.572487"
     inkscape:current-layer="layer1"
     showgrid="false"
     inkscape:grid-bbox="true"
     inkscape:document-units="px"
     inkscape:showpageshadow="false"
     gridspacingx="0.5px"
     gridspacingy="0.5px"
     gridempspacing="2"
     inkscape:grid-points="true"
     inkscape:window-width="1304"
     inkscape:window-height="861"
     inkscape:window-x="255"
     inkscape:window-y="490" />
  <defs
     id="defs2162">
    <linearGradient
       inkscape:collect="always"
       id="linearGradient5729">
      <stop
         offset="0"
         id="stop5731"
         style="stop-color:#729fcf;stop-opacity:1;" />
      <stop
         offset="1"
         id="stop5733"
         style="stop-color:#729fcf;stop-opacity:0;" />
    </linearGradient>
    <linearGradient
       inkscape:collect="always"
       id="linearGradient3177">
      <stop
         offset="0"
         id="stop3179"
         style="stop-color:#d3d7cf;stop-opacity:1;" />
      <stop
         offset="1"
         id="stop3181"
         style="stop-color:#d3d7cf;stop-opacity:0.38039216" />
    </linearGradient>
    <linearGradient
       inkscape:collect="always"
       id="linearGradient3238">
      <stop
         offset="0"
         id="stop3240"
         style="stop-color:#ffffff;stop-opacity:1;" />
      <stop
         offset="1"
         id="stop3242"
         style="stop-color:#ffffff;stop-opacity:0.17870723" />
    </linearGradient>
    <linearGradient
       inkscape:collect="always"
       id="linearGradient3198">
      <stop
         offset="0"
         id="stop3200"
         style="stop-color:#d3d7cf;stop-opacity:1;" />
      <stop
         offset="1"
         id="stop3202"
         style="stop-color:#d3d7cf;stop-opacity:0;" />
    </linearGradient>
    <linearGradient
       inkscape:collect="always"
       id="linearGradient3190">
      <stop
         offset="0"
         id="stop3192"
         style="stop-color:#f5f5f4;stop-opacity:1" />
      <stop
         offset="1"
         id="stop3194"
         style="stop-color:#d3d7cf;stop-opacity:1" />
    </linearGradient>
    <linearGradient
       inkscape:collect="always"
       id="linearGradient3204"
       x1="26.75"
       y1="22.570559"
       gradientTransform="translate(2.5,4e-7)"
       x2="30.891626"
       gradientUnits="userSpaceOnUse"
       xlink:href="#linearGradient3198"
       y2="29.136547" />
    <linearGradient
       inkscape:collect="always"
       id="linearGradient3234"
       x1="1.25"
       y1="2.8583736"
       gradientTransform="translate(1,-1)"
       x2="33.949238"
       gradientUnits="userSpaceOnUse"
       xlink:href="#linearGradient3190"
       y2="35.96796" />
    <linearGradient
       inkscape:collect="always"
       id="linearGradient3183"
       x1="17.240038"
       y1="9.7772818"
       gradientTransform="matrix(-1,0,0,1,27.973165,0.5)"
       x2="15.52602"
       gradientUnits="userSpaceOnUse"
       xlink:href="#linearGradient3177"
       y2="30.813709" />
    <linearGradient
       inkscape:collect="always"
       id="linearGradient2740"
       x1="27.738585"
       y1="38.3797"
       x2="14.655324"
       gradientUnits="userSpaceOnUse"
       xlink:href="#linearGradient3238"
       y2="6.9639559"
       gradientTransform="translate(-2.130128,0.372687)" />
    <filter
       inkscape:collect="always"
       id="filter3758"
       x="-0.061960734"
       y="-0.28858026"
       width="1.1239215"
       height="1.5771605">
      <feGaussianBlur
         inkscape:collect="always"
         id="feGaussianBlur3760"
         stdDeviation="1.1908079" />
    </filter>
    <linearGradient
       inkscape:collect="always"
       id="linearGradient5735"
       x1="28.045364"
       y1="43.740036"
       x2="36.350952"
       gradientUnits="userSpaceOnUse"
       xlink:href="#linearGradient5729"
       y2="47.010406"
       gradientTransform="translate(-2,-3.032994e-2)" />
    <linearGradient
       inkscape:collect="always"
       id="linearGradient5735-808"
       y2="47.010406"
       y1="43.740036"
       x2="36.350952"
       gradientUnits="userSpaceOnUse"
       xlink:href="#linearGradient5729-497"
       x1="28.045364"
       gradientTransform="translate(-1.2374369,0.3535534)" />
    <linearGradient
       inkscape:collect="always"
       id="linearGradient5729-497">
      <stop
         offset="0"
         id="stop6325"
         style="stop-color:#979797;stop-opacity:1;" />
      <stop
         offset="1"
         id="stop6327"
         style="stop-color:#979797;stop-opacity:0;" />
    </linearGradient>
  </defs>
  <metadata
     id="metadata2165">
    <rdf:RDF>
      <cc:Work
         rdf:about="">
        <dc:format>image/svg+xml</dc:format>
        <dc:type
           rdf:resource="http://purl.org/dc/dcmitype/StillImage" />
        <dc:title>France Telecom LiveBox</dc:title>
        <dc:creator>
          <cc:Agent>
            <dc:title>F.Bellaiche &lt;frederic.bellaiche@gmail.com&gt;</dc:title>
          </cc:Agent>
        </dc:creator>
        <cc:license
           rdf:resource="http://creativecommons.org/licenses/GPL/2.0/" />
        <dc:date>Sept 2007</dc:date>
      </cc:Work>
      <cc:License
         rdf:about="http://creativecommons.org/licenses/GPL/2.0/">
        <cc:permits
           rdf:resource="http://web.resource.org/cc/Reproduction" />
        <cc:permits
           rdf:resource="http://web.resource.org/cc/Distribution" />
        <cc:requires
           rdf:resource="http://web.resource.org/cc/Notice" />
        <cc:permits
           rdf:resource="http://web.resource.org/cc/DerivativeWorks" />
        <cc:requires
           rdf:resource="http://web.resource.org/cc/ShareAlike" />
        <cc:requires
           rdf:resource="http://web.resource.org/cc/SourceCode" />
      </cc:License>
    </rdf:RDF>
  </metadata>
  <g
     inkscape:groupmode="layer"
     id="layer1"
     inkscape:label="Layer 1">
    <path
       id="path3735"
       sodipodi:cx="24.5625"
       sodipodi:cy="39.375"
       transform="matrix(0.9105693,-9.6841346e-2,0,1.1167017,-0.3658575,-5.0914637)"
       d="M 47.625 39.375 A 23.0625 4.5 0 1 1  1.5,39.375 A 23.0625 4.5 0 1 1  47.625 39.375 z"
       sodipodi:type="arc"
       style="opacity:0.5;fill:#2e3436;fill-opacity:0.75;fill-rule:evenodd;stroke:none;stroke-width:1px;stroke-linecap:butt;stroke-linejoin:miter;stroke-opacity:1;filter:url(#filter3758)"
       sodipodi:ry="4.5"
       sodipodi:rx="23.0625" />
    <path
       id="path3723"
       d="M 3,39 L 5.0688275,31.922105 L 10.5,38 L 3,39 z "
       style="fill:#555753;fill-rule:evenodd;stroke:#555753;stroke-width:1px;stroke-linecap:round;stroke-linejoin:round;stroke-opacity:1"
       sodipodi:nodetypes="cccc" />
    <path
       id="rect2157"
       d="M 7.6325825,3.9419417 C 7.9309097,3.6871906 7.8977476,3.5 8.915825,3.5014824 L 38.43934,3.5450487 L 42.449747,37.4375 L 12.483022,41.430683 L 11.483022,40.930683 L 11.483022,39 L 3.4063905,37 L 3,39 L 1.5,38.441942 C 7.529601,4.2645478 2.4725052,33.371635 7.6325825,3.9419417 z "
       style="fill:url(#linearGradient3234);fill-opacity:1;fill-rule:evenodd;stroke:#959692;stroke-width:1;stroke-linecap:round;stroke-linejoin:round;stroke-miterlimit:4;stroke-opacity:1"
       sodipodi:nodetypes="ccccccccccc" />
    <path
       d="M 10.662608,5.3535534 L 13.414019,40.345016 L 41.5625,36.5 L 37.48951,4.5503836 L 10.662608,5.3535534 z "
       sodipodi:nodetypes="ccccc"
       style="fill:none;fill-opacity:1;fill-rule:evenodd;stroke:url(#linearGradient2740);stroke-width:1;stroke-linecap:round;stroke-linejoin:round;stroke-miterlimit:4;stroke-opacity:1"
       id="path3232" />
    <path
       id="path2204"
       d="M 3.5625,33 L 8.309359,4.5 L 9.5,4.5 L 9.624776,6.0051995 L 12.045087,39.955806"
       style="fill:none;fill-rule:evenodd;stroke:url(#linearGradient3183);stroke-width:1px;stroke-linecap:round;stroke-linejoin:round;stroke-opacity:1"
       sodipodi:nodetypes="ccccc" />
    <path
       id="rect3131"
       d="M 37,5 L 41,35.505204 L 13.489592,40 L 13.618718,36.823223 C 19.618718,35.323223 28,16 37,5 z "
       style="opacity:1;fill:url(#linearGradient3204);fill-opacity:1;fill-rule:evenodd;stroke:none;stroke-width:1;stroke-linecap:round;stroke-linejoin:round;stroke-miterlimit:4;stroke-opacity:1"
       sodipodi:nodetypes="ccccc" />
    <path
       id="text2742"
       d="M 23.007332,20.185644 C 22.812286,19.70477 22.643091,19.272126 22.499751,18.887712 C 22.353777,18.494295 22.237456,18.148638 22.15079,17.850741 C 21.625519,16.0454 21.66092,14.488848 22.256999,13.181079 C 22.850446,11.864319 23.789611,11.126735 25.0745,10.968324 C 25.895601,10.867124 26.633352,11.06137 27.287751,11.551065 C 27.949738,12.039861 28.392358,12.667886 28.615604,13.435145 C 28.896616,14.401027 28.894949,15.261482 28.610603,16.01651 C 28.192979,17.152668 27.306545,18.220372 25.951301,19.219623 C 27.025352,21.097598 27.740147,22.309205 28.095684,22.854453 C 28.451208,23.399716 28.885805,23.986656 29.399486,24.615267 C 29.667379,23.993165 29.818886,23.404105 29.854015,22.848085 C 29.886496,22.283057 29.852842,21.829031 29.753049,21.486002 C 29.668995,21.197156 29.523233,20.95331 29.315754,20.754464 C 29.108257,20.555639 28.826609,20.426723 28.470807,20.367719 L 28.465834,19.863404 L 32.84508,19.323562 L 32.81584,19.832095 C 32.439413,20.000064 32.151263,20.241297 31.951388,20.555792 C 31.751486,20.870312 31.447366,21.67922 31.039022,22.982523 C 30.751336,23.915644 30.437262,24.744483 30.096796,25.469036 C 30.996539,26.396036 31.752461,27.018167 32.36457,27.335431 C 32.757414,27.548821 33.159119,27.630209 33.569688,27.579595 C 33.805362,27.550544 33.997506,27.480105 34.146123,27.368277 C 34.29471,27.256456 34.457691,27.058706 34.635061,26.775023 L 35,26.730037 C 34.905561,27.704785 34.62632,28.463875 34.162281,29.007306 C 33.698211,29.550741 33.086041,29.869318 32.325769,29.96304 C 31.687116,30.041769 31.069769,29.963588 30.473719,29.728496 C 29.87502,29.484382 29.185516,29.036398 28.405204,28.384546 C 27.813823,29.140038 27.167575,29.733982 26.466461,30.16638 C 25.77293,30.597843 25.02322,30.863246 24.217321,30.962593 C 23.046476,31.106925 22.002196,30.833585 21.084474,30.14257 C 20.166746,29.451554 19.555554,28.582495 19.250898,27.535385 C 19.009274,26.704926 18.94217,25.946453 19.049584,25.259969 C 19.157,24.573495 19.517381,23.809079 20.130731,22.966717 C 20.74408,22.124371 21.702946,21.197349 23.007332,20.185644 M 25.450561,18.229414 C 25.926637,17.619058 26.227714,17.016236 26.353798,16.420948 C 26.533503,15.604011 26.497294,14.762253 26.24517,13.895665 C 26.056067,13.245755 25.796261,12.758826 25.465755,12.434881 C 25.207118,12.195616 24.937148,12.093315 24.655847,12.127972 C 24.313714,12.170167 24.091087,12.365919 23.987966,12.715232 C 23.840876,13.238313 23.915722,14.009854 24.212502,15.029864 C 24.346442,15.490245 24.515012,15.98842 24.718218,16.524388 C 24.926386,17.050423 25.170499,17.618764 25.450561,18.229414 M 23.473861,21.18007 C 22.764988,21.856546 22.30978,22.525122 22.108231,23.185797 C 21.911655,23.836522 21.936805,24.586139 22.183685,25.434651 C 22.48571,26.472736 23.010368,27.315062 23.757657,27.961631 C 24.509911,28.598242 25.220565,28.875308 25.889623,28.792828 C 26.178526,28.757217 26.475523,28.641127 26.780612,28.444556 C 27.085687,28.247991 27.400171,27.97546 27.724066,27.626964 C 27.018658,26.853675 26.265434,25.861865 25.46439,24.651532 C 24.670937,23.440275 24.007424,22.283121 23.473861,21.18007"
       style="font-size:27.81938171px;font-style:normal;font-variant:normal;font-weight:normal;font-stretch:normal;text-align:start;line-height:100%;writing-mode:lr-tb;text-anchor:start;opacity:0.7;fill:#ffffff;fill-opacity:1;stroke:none;stroke-width:1px;stroke-linecap:butt;stroke-linejoin:miter;stroke-opacity:1;font-family:AquaBase" />
    <path
       d="M 8.929787,5.3370874 L 3.0967867,38.928078"
       id="path3717"
       style="opacity:1;fill:none;fill-rule:evenodd;stroke:#555753;stroke-width:1px;stroke-linecap:round;stroke-linejoin:round;stroke-opacity:1"
       sodipodi:nodetypes="cc" />
    <path
       id="path3725"
       d="M 9.403899,5.2928932 L 3.776731,37.564405 L 11.915584,39.657394 L 9.403899,5.2928932 z "
       style="fill:#babdb6;fill-rule:evenodd;stroke:none;stroke-width:1px;stroke-linecap:round;stroke-linejoin:round;stroke-opacity:1"
       sodipodi:nodetypes="cccc" />
    <path
       id="rect3745"
       d="M 14.889585,34.009868 L 18.848206,33.623735 L 19.110415,37.490132 L 15.151794,38.001265 L 14.889585,34.009868 z "
       style="opacity:0.8;fill:#f57900;fill-opacity:1;fill-rule:evenodd;stroke:none;stroke-width:1px;stroke-linecap:butt;stroke-linejoin:miter;stroke-opacity:1"
       sodipodi:nodetypes="ccccc" />
    <path
       id="path3748"
       d="M 39.492287,34.587087 L 32.534287,35.428078"
       style="opacity:0.3;fill:none;fill-rule:evenodd;stroke:#555753;stroke-width:1px;stroke-linecap:round;stroke-linejoin:round;stroke-opacity:1"
       sodipodi:nodetypes="cc" />
    <g
       transform="translate(-25.590837,26.758716)"
       id="g2299"
       inkscape:label="Shadow" />
    <g
       id="g2301"
       transform="translate(-25.590837,41.824746)"
       inkscape:label="Shadow" />
    <g
       id="g2303"
       transform="translate(-25.590837,41.824746)"
       inkscape:label="Lavoro"
       style="display:inline" />
    <g
       transform="translate(76.409163,13.577836)"
       id="layer3"
       inkscape:label="tastiera"
       style="display:inline">
      <g
         transform="translate(-54,0.18088)"
         id="g3270"
         inkscape:label="Shadow" />
      <g
         id="g2611"
         transform="translate(-54,15.24691)"
         inkscape:label="Shadow" />
      <g
         id="g2613"
         transform="translate(-54,15.24691)"
         inkscape:label="Lavoro"
         style="display:inline" />
    </g>
    <g
       transform="translate(76.409163,13.577836)"
       id="layer2"
       inkscape:label="tasti"
       style="display:inline" />
    <g
       id="g3893"
       transform="translate(143.09434,-12.212009)"
       inkscape:label="Emblem" />
    <g
       transform="translate(69.589461,0.3671409)"
       id="g5591"
       inkscape:label="Emblem" />
    <path
       sodipodi:nodetypes="ccccc"
       style="opacity:1;fill:#2e3436;fill-opacity:1;fill-rule:evenodd;stroke:none;stroke-width:1px;stroke-linecap:butt;stroke-linejoin:miter;stroke-opacity:1"
       d="M 9.051056,34.20181 L 5.8879299,33.683094 L 5.8466918,37.063355 L 9.098206,37.751265 L 9.051056,34.20181 z "
       id="path6983" />
    <path
       id="path5737"
       d="M 35.762563,47.353553 C 27.744153,36.265165 26.270082,46.237437 13.674175,46.06066 C 1.0791972,45.883896 -2.5026019,39.972271 7.4973979,35.972271"
       style="fill:none;fill-opacity:1;fill-rule:evenodd;stroke:url(#linearGradient5735-808);stroke-width:1.00000012;stroke-linecap:butt;stroke-linejoin:miter;stroke-miterlimit:4;stroke-dasharray:none;stroke-opacity:1;display:inline"
       sodipodi:nodetypes="czz" />
    <path
       d="M 35,46.96967 C 26.98159,35.881282 25.419131,45.411612 13,45.411612 C 0.4924806,45.411612 -2.4696699,39.5 7.5303301,35.5"
       id="path4172"
       style="fill:none;fill-opacity:1;fill-rule:evenodd;stroke:url(#linearGradient5735);stroke-width:1.00000012;stroke-linecap:butt;stroke-linejoin:miter;stroke-miterlimit:4;stroke-dasharray:none;stroke-opacity:1;display:inline"
       sodipodi:nodetypes="czz" />
    <g
       transform="translate(-6.881835,-25.791899)"
       id="g4438"
       inkscape:label="Emblem" />
    <g
       id="g10085"
       transform="matrix(0.136407,0.9953937,-1.0435796,0.1301086,45.785673,-75.431388)"
       style="stroke:#729fcf;opacity:0.5">
      <path
         sodipodi:nodetypes="csc"
         id="path3235"
         d="M 92.499999,14.261455 C 90.317351,11.925923 87.299304,10.490561 83.992301,10.490561 C 80.685298,10.490561 77.667251,11.925923 75.484604,14.261455"
         style="color:#000000;fill:none;fill-opacity:1;fill-rule:evenodd;stroke:#729fcf;stroke-width:0.97288436;stroke-linecap:round;stroke-linejoin:miter;marker:none;marker-start:none;marker-mid:none;marker-end:none;stroke-miterlimit:4;stroke-dasharray:none;stroke-dashoffset:0;stroke-opacity:1;visibility:visible;display:inline;overflow:visible" />
      <path
         sodipodi:nodetypes="csc"
         id="path3233"
         d="M 90.499998,15.084547 C 88.845263,13.486227 86.557836,12.5 84.050692,12.5 C 81.543549,12.500002 79.256121,13.486229 77.601387,15.084547"
         style="color:#000000;fill:none;fill-opacity:1;fill-rule:evenodd;stroke:#729fcf;stroke-width:0.97288436;stroke-linecap:round;stroke-linejoin:miter;marker:none;marker-start:none;marker-mid:none;marker-end:none;stroke-miterlimit:4;stroke-dasharray:none;stroke-dashoffset:0;stroke-opacity:1;visibility:visible;display:inline;overflow:visible" />
      <path
         sodipodi:nodetypes="csc"
         id="path3227"
         d="M 87.694397,15.558058 C 86.764797,14.968942 85.490497,14.601802 84.082031,14.601802 C 82.673564,14.601803 81.399264,14.968942 80.469666,15.558058"
         style="color:#000000;fill:none;fill-opacity:1;fill-rule:evenodd;stroke:#729fcf;stroke-width:0.97288436;stroke-linecap:round;stroke-linejoin:miter;marker:none;marker-start:none;marker-mid:none;marker-end:none;stroke-miterlimit:4;stroke-dasharray:none;stroke-dashoffset:0;stroke-opacity:1;visibility:visible;display:inline;overflow:visible" />
    </g>
    <g
       inkscape:label="Emblem"
       id="g5764"
       transform="translate(54.975595,-55.764429)" />
    <g
       transform="translate(108.21841,-16.623049)"
       id="g3054"
       inkscape:label="Emblem" />
    <g
       transform="translate(104.37248,-1.6769783)"
       id="g5767"
       inkscape:label="Emblem" />
    <g
       inkscape:label="Emblem"
       id="g9908"
       transform="translate(47.110985,5.8494807)" />
  </g>
</svg>
