<svg viewBox="0 0 48 48" xmlns="http://www.w3.org/2000/svg" xmlns:xlink="http://www.w3.org/1999/xlink">
<defs>
<clipPath id="clipPath5609">
<path d="m3.64852,32.7406h41.70297a1.24471,1.24206 0 0,1 1.24471,1.24206v7.77528a1.24471,1.24206 0 0,1 -1.24471,1.24206h-41.70297a1.24471,1.24206 0 0,1 -1.24471-1.24206v-7.77528a1.24471,1.24206 0 0,1 1.24471-1.24206" fill-rule="evenodd"/>
</clipPath>
<filter height="2.02204" id="filter3918" width="1.29959" x="-.14979" y="-.51102">
<feGaussianBlur stdDeviation="2.184"/>
</filter>
<filter height="1.21865" id="filter4560" width="1.08145" x="-.04072" y="-.10932">
<feGaussianBlur stdDeviation=".769"/>
</filter>
<linearGradient gradientTransform="matrix(-1,0,0,.785714,48,.285714)" gradientUnits="userSpaceOnUse" id="linearGradient4510" x1="24" x2="18.43622" y1="6.67922" y2="22.81601">
<stop offset="0" stop-color="#729fcf"/>
<stop offset="1" stop-color="#729fcf" stop-opacity="0"/>
</linearGradient>
<linearGradient gradientUnits="userSpaceOnUse" id="linearGradient4515" x1="32.18444" x2="32.18753" y1="43" y2="44.57326">
<stop offset="0" stop-color="#eeeeec"/>
<stop offset="1" stop-color="#eeeeec" stop-opacity="0"/>
</linearGradient>
<linearGradient gradientUnits="userSpaceOnUse" id="linearGradient4520" x2="0" y1="26.95283" y2="7.37056">
<stop offset="0" stop-color="#3465a4"/>
<stop offset="1" stop-color="#204a87"/>
</linearGradient>
<linearGradient gradientUnits="userSpaceOnUse" id="linearGradient4525" x1="26.09188" x2="26.35526" y1="34.85095" y2="46.69499">
<stop offset="0"/>
<stop offset="1" stop-opacity="0"/>
</linearGradient>
<linearGradient gradientUnits="userSpaceOnUse" id="linearGradient4548" x2="0" y1="28" y2="30.625">
<stop offset="0" stop-color="#3f3f3d"/>
<stop offset="1" stop-color="#888a85" stop-opacity="0"/>
</linearGradient>
<radialGradient cx="17.4965" cy="41.41312" gradientTransform="matrix(1.281313,2.2565658e-6,-1.296351e-6,1.611302,-2.918432,-35.397317)" gradientUnits="userSpaceOnUse" id="radialGradient4504" r=".5">
<stop offset="0" stop-color="#cbccc9"/>
<stop offset=".625" stop-color="#d5d6d5" stop-opacity=".629"/>
<stop offset="1" stop-color="#414340"/>
</radialGradient>
</defs>
<path d="m4.8125,29.36335-3.3125,13.21875c-.70396,1.95396.0843,2.94603.625,3.125h43.125c.78838-.62889 1.61378-1.47564 1.125-3.25l-2.5-12.96875c-.06594-.3568-.35154-.54885-.75-.65625l-36.875.03125c-.72083-.04375-1.09962-.0267-1.4375.5z" fill="#2e3436" fill-rule="evenodd" filter="url(#filter4560)" transform="matrix(.971299,0,0,1.066667,.813622,-2.754243)"/>
<path d="m5.75557,1.5h36.48886a1.24471,1.28775 0 0,1 1.24471,1.28775v25.91363a1.24471,1.28775 0 0,1 -1.24471,1.28775h-36.48886a1.24471,1.28775 0 0,1 -1.24471-1.28775v-25.91363a1.24471,1.28775 0 0,1 1.24471-1.28775" fill="#babdb6" fill-rule="evenodd" stroke="#555753" stroke-linecap="square" stroke-linejoin="round"/>
<path d="m4.82173,29.98796-3.32173,13.01667 .62674,1.99537h43.24513l1.12813-2.11018-3.20064-12.78704c-.06612-.32773-.35252-.50413-.75209-.60278l-36.28404.0287c-.72284-.04018-1.10268-.02452-1.4415.45926z" fill="#babdb6" fill-rule="evenodd" stroke="#555753" stroke-linecap="square" stroke-linejoin="round"/>
<path d="m7.82965,4.48421h32.34069a.34544,.39989 0 0,1 .34544.39989v21.23178a.34544,.39989 0 0,1 -.34544.39989h-32.34069a.34544,.39989 0 0,1 -.34544-.39989v-21.23178a.34544,.39989 0 0,1 .34544-.39989" fill="url(#linearGradient4520)" fill-rule="evenodd" stroke="#204a87" stroke-linecap="square" stroke-linejoin="round" stroke-width=".96843"/>
<path d="m19.11688,39.33729-.11688,1.66041h9l-.05844-1.53846c-.01249-.31154-.16527-.45568-.35065-.46154h-8.24026c-.11726.00908-.19443.12427-.23377.33959z" fill="#1f2c3e" fill-rule="evenodd" opacity=".581"/>
<path d="m19.11688,41.72847-.11688-.73077h9l-.05844.76923c-.02013.21907-.21155.20426-.35065.23077h-8.24026c-.09541.01608-.17723-.0501-.23377-.26923z" fill="#2a323d" fill-rule="evenodd" opacity=".581"/>
<path d="m2.00218,43h43.99782c0,1.15488-.48411,1.86465-.92908,1.86465 0,0-31.12172.30455-41.8919,0-1.28375-.0363-1.17684-1.86465-1.17684-1.86465z" fill="url(#linearGradient4515)" fill-rule="evenodd" opacity=".35"/>
<path clip-path="url(#clipPath5609)" d="m8.31022,29h32.37956a1.31022,.79642 0 0,1 1.31022.79642v12.40715a1.31022,.79642 0 0,1 -1.31022.79642h-32.37956a1.31022,.79642 0 0,1 -1.31022-.79642v-12.40715a1.31022,.79642 0 0,1 1.31022-.79642" fill="url(#linearGradient4525)" fill-rule="evenodd" filter="url(#filter3918)" opacity=".1" transform="matrix(.914286,0,0,1.267131,1.6,-11.486619)"/>
<path d="m40,5v8.64286c0,0-4,2.35714-10,2.35714-7,0-11.5-2.35714-15-2.35714s-7,.78571-7,.78571v-9.42857h32z" fill="url(#linearGradient4510)" fill-rule="evenodd" opacity=".785"/>
<path d="m6.10361,33.03033-1.11731,5.09467h30.17696l.14349,1 7.71404.125-2.1514-8.25h-14.52983v2.03033h-20.23596z" fill="#222728" fill-rule="evenodd" opacity=".596"/>
<path d="m13.5,31.5h3.04225" fill="none" stroke="#555753" stroke-linecap="round"/>
<path d="m19.5,31.5" fill="none" stroke="url(#radialGradient4504)" stroke-linecap="round"/>
<path d="m8,28h6v2h-6v-2z" fill="#888a85" fill-rule="evenodd"/>
<path d="m22,27v1h4v-1h-4z" fill="#2e3436" fill-opacity=".825" fill-rule="evenodd" opacity=".531"/>
<path d="m5.5,28.49496v-25.48992c0-.27979.24822-.50504.55654-.50504h35.88692c.30832,0 .55654.22525.55654.50504v25.48992" fill="none" opacity=".365" stroke="#eeeeec" stroke-linecap="square" stroke-linejoin="round"/>
<path d="m17,43.5h13" fill="none" opacity=".735" stroke="#888a85" stroke-linecap="round"/>
<g transform="translate(2.5,5)">
<path d="m15,38.5a.5,.5 0 1,1 -1,0 .5,.5 0 1,1 1,0z" fill="#555753"/>
<path d="m14.5,38c-.276,0-.5.224-.5.5 0,.02238-.01876.05142 0,.0625 .05829.03443.24271.09427.328.09825 .24301.01152.27154-.12818.45427-.14237 .08665-.00672.14345-.00216.21773-.01839 0-.276-.224-.5-.5-.5z" fill="#d3d7cf" fill-rule="evenodd"/>
</g>
<g transform="translate(4.5,5)">
<path d="m15,38.5a.5,.5 0 1,1 -1,0 .5,.5 0 1,1 1,0z" fill="#555753"/>
<path d="m14.5,38c-.276,0-.5.224-.5.5 0,.02238-.00285.0409 0,.0625 .05829.0188.2117.0946.29675.10216 .30551.02715.29888-.16334.48161-.17752 .08665-.00672.14735-.01388.22164.01286 0-.276-.224-.5-.5-.5z" fill="#d3d7cf" fill-rule="evenodd"/>
</g>
<g transform="translate(6.5,5)">
<path d="m15,38.5a.5,.5 0 1,1 -1,0 .5,.5 0 1,1 1,0z" fill="#555753"/>
<path d="m14.5,38c-.276,0-.5.224-.5.5 0,.02238-.00285.0409 0,.0625 .05829.0188.2117.0946.29675.10216 .30551.02715.29888-.16334.48161-.17752 .08665-.00672.14735-.01388.22164.01286 0-.276-.224-.5-.5-.5z" fill="#d3d7cf" fill-rule="evenodd"/>
</g>
<g transform="translate(11.5,5)">
<path d="m15,38.5a.5,.5 0 1,1 -1,0 .5,.5 0 1,1 1,0z" fill="#555753"/>
<path d="m14.5,38c-.276,0-.5.224-.5.5 0,.02238-.00285.0409 0,.0625 .05829.0188.2117.0946.29675.10216 .30551.02715.29888-.16334.48161-.17752 .08665-.00672.14735-.01388.22164.01286 0-.276-.224-.5-.5-.5z" fill="#d3d7cf" fill-rule="evenodd"/>
</g>
<g transform="translate(13.5,5)">
<path d="m15,38.5a.5,.5 0 1,1 -1,0 .5,.5 0 1,1 1,0z" fill="#555753"/>
<path d="m14.5,38c-.276,0-.5.224-.5.5 0,.02238-.00285.0409 0,.0625 .05829.0188.2117.0946.29675.10216 .30551.02715.29888-.16334.48161-.17752 .08665-.00672.14735-.01388.22164.01286 0-.276-.224-.5-.5-.5z" fill="#d3d7cf" fill-rule="evenodd"/>
</g>
<g transform="translate(15.5,5)">
<path d="m15,38.5a.5,.5 0 1,1 -1,0 .5,.5 0 1,1 1,0z" fill="#555753"/>
<path d="m14.5,38c-.276,0-.5.224-.5.5 0,.02238-.00285.0409 0,.0625 .05829.0188.2117.0946.29675.10216 .30551.02715.29888-.16334.48161-.17752 .08665-.00672.14735-.01388.22164.01286 0-.276-.224-.5-.5-.5z" fill="#d3d7cf" fill-rule="evenodd"/>
</g>
<g transform="matrix(1.840977,0,0,1,-3.114658,5)">
<path d="m15,38.5a.5,.5 0 1,1 -1,0 .5,.5 0 1,1 1,0z" fill="#555753"/>
<path d="m14.5,38c-.276,0-.5.224-.5.5 0,.02238-.00285.0409 0,.0625 .05829.0188.07166.16492.29463.17247 .30581.01046.36041-.20631.48798-.23221 .0862-.0175.14311-.0295.21739-.00276 0-.276-.224-.5-.5-.5z" fill="#d3d7cf" fill-rule="evenodd"/>
</g>
<path d="m4.5,43.5h4.5" fill="none" opacity=".462" stroke="#555753" stroke-linecap="round"/>
<path d="m39,43.5h4.5" fill="none" opacity=".462" stroke="#555753" stroke-linecap="round"/>
<g transform="translate(2.5,5)">
<path d="m15,38.5a.5,.5 0 1,1 -1,0 .5,.5 0 1,1 1,0z" fill="#555753"/>
<path d="m14.5,38c-.276,0-.5.224-.5.5 0,.02238-.01876.05142 0,.0625 .05829.03443.24271.09427.328.09825 .24301.01152.27154-.12818.45427-.14237 .08665-.00672.14345-.00216.21773-.01839 0-.276-.224-.5-.5-.5z" fill="#d3d7cf" fill-rule="evenodd"/>
</g>
<g transform="translate(4.5,5)">
<path d="m15,38.5a.5,.5 0 1,1 -1,0 .5,.5 0 1,1 1,0z" fill="#555753"/>
<path d="m14.5,38c-.276,0-.5.224-.5.5 0,.02238-.00285.0409 0,.0625 .05829.0188.2117.0946.29675.10216 .30551.02715.29888-.16334.48161-.17752 .08665-.00672.14735-.01388.22164.01286 0-.276-.224-.5-.5-.5z" fill="#d3d7cf" fill-rule="evenodd"/>
</g>
<g transform="translate(6.5,5)">
<path d="m15,38.5a.5,.5 0 1,1 -1,0 .5,.5 0 1,1 1,0z" fill="#555753"/>
<path d="m14.5,38c-.276,0-.5.224-.5.5 0,.02238-.00285.0409 0,.0625 .05829.0188.2117.0946.29675.10216 .30551.02715.29888-.16334.48161-.17752 .08665-.00672.14735-.01388.22164.01286 0-.276-.224-.5-.5-.5z" fill="#d3d7cf" fill-rule="evenodd"/>
</g>
<g transform="translate(11.5,5)">
<path d="m15,38.5a.5,.5 0 1,1 -1,0 .5,.5 0 1,1 1,0z" fill="#555753"/>
<path d="m14.5,38c-.276,0-.5.224-.5.5 0,.02238-.00285.0409 0,.0625 .05829.0188.2117.0946.29675.10216 .30551.02715.29888-.16334.48161-.17752 .08665-.00672.14735-.01388.22164.01286 0-.276-.224-.5-.5-.5z" fill="#d3d7cf" fill-rule="evenodd"/>
</g>
<g transform="translate(13.5,5)">
<path d="m15,38.5a.5,.5 0 1,1 -1,0 .5,.5 0 1,1 1,0z" fill="#555753"/>
<path d="m14.5,38c-.276,0-.5.224-.5.5 0,.02238-.00285.0409 0,.0625 .05829.0188.2117.0946.29675.10216 .30551.02715.29888-.16334.48161-.17752 .08665-.00672.14735-.01388.22164.01286 0-.276-.224-.5-.5-.5z" fill="#d3d7cf" fill-rule="evenodd"/>
</g>
<g transform="translate(15.5,5)">
<path d="m15,38.5a.5,.5 0 1,1 -1,0 .5,.5 0 1,1 1,0z" fill="#555753"/>
<path d="m14.5,38c-.276,0-.5.224-.5.5 0,.02238-.00285.0409 0,.0625 .05829.0188.2117.0946.29675.10216 .30551.02715.29888-.16334.48161-.17752 .08665-.00672.14735-.01388.22164.01286 0-.276-.224-.5-.5-.5z" fill="#d3d7cf" fill-rule="evenodd"/>
</g>
<g transform="matrix(1.840977,0,0,1,-3.114658,5)">
<path d="m15,38.5a.5,.5 0 1,1 -1,0 .5,.5 0 1,1 1,0z" fill="#555753"/>
<path d="m14.5,38c-.276,0-.5.224-.5.5 0,.02238-.00285.0409 0,.0625 .05829.0188.07166.16492.29463.17247 .30581.01046.36041-.20631.48798-.23221 .0862-.0175.14311-.0295.21739-.00276 0-.276-.224-.5-.5-.5z" fill="#d3d7cf" fill-rule="evenodd"/>
</g>
<path d="m34,28h6v2h-6v-2z" fill="#888a85" fill-rule="evenodd"/>
<path d="m7.5,2.5" fill="none" id="path6494" stroke="#9e9fa6" stroke-linecap="round"/>
<path d="m18,2.5h-1" fill="none" stroke="#888a85"/>
<use height="48" transform="translate(12)" width="48" xlink:href="#path6494"/>
<use height="48" transform="translate(21)" width="48" xlink:href="#path6494"/>
<use height="48" transform="translate(33)" width="48" xlink:href="#path6494"/>
<path d="m31,2.5h-1" fill="none" stroke="#888a85"/>
<path d="m5.5,14.5v1" fill="none" stroke="#9e9fa6" stroke-linecap="round"/>
<path d="m42.5,14.5v1" fill="none" stroke="#9e9fa6" stroke-linecap="round"/>
<use height="48" transform="translate(34,25)" width="48" xlink:href="#path6494"/>
<use height="48" transform="translate(-1,25)" width="48" xlink:href="#path6494"/>
<path d="m6.4426,33.29117h2.53467v1.13777h-2.53467z" fill="#555753" fill-rule="evenodd" opacity=".577" stroke="#222728" stroke-linecap="square" stroke-linejoin="round" stroke-opacity=".829" stroke-width=".48863"/>
<path d="m9.39734,33.29117h2.53467v1.13777h-2.53467z" fill="#555753" fill-rule="evenodd" opacity=".577" stroke="#222728" stroke-linecap="square" stroke-linejoin="round" stroke-opacity=".829" stroke-width=".48863"/>
<path d="m12.28617,33.29117h2.53467v1.13777h-2.53467z" fill="#555753" fill-rule="evenodd" opacity=".577" stroke="#222728" stroke-linecap="square" stroke-linejoin="round" stroke-opacity=".829" stroke-width=".48863"/>
<path d="m15.3851,33.29117h2.53467v1.13777h-2.53467z" fill="#555753" fill-rule="evenodd" opacity=".577" stroke="#222728" stroke-linecap="square" stroke-linejoin="round" stroke-opacity=".829" stroke-width=".48863"/>
<path d="m18.32645,33.29117h2.53467v1.13777h-2.53467z" fill="#555753" fill-rule="evenodd" opacity=".577" stroke="#222728" stroke-linecap="square" stroke-linejoin="round" stroke-opacity=".829" stroke-width=".48863"/>
<path d="m21.26781,33.29117h2.53467v1.13777h-2.53467z" fill="#555753" fill-rule="evenodd" opacity=".577" stroke="#222728" stroke-linecap="square" stroke-linejoin="round" stroke-opacity=".829" stroke-width=".48863"/>
<path d="m24.36674,33.29117h2.53467v1.13777h-2.53467z" fill="#555753" fill-rule="evenodd" opacity=".577" stroke="#222728" stroke-linecap="square" stroke-linejoin="round" stroke-opacity=".829" stroke-width=".48863"/>
<path d="m27.33623,32.72867h2.40004v1.70027h-2.40004z" fill="#555753" fill-rule="evenodd" opacity=".577" stroke="#222728" stroke-linecap="square" stroke-linejoin="round" stroke-opacity=".829" stroke-width=".48863"/>
<path d="m30.12135,32.72867h2.40004v1.70027h-2.40004z" fill="#555753" fill-rule="evenodd" opacity=".577" stroke="#222728" stroke-linecap="square" stroke-linejoin="round" stroke-opacity=".829" stroke-width=".48863"/>
<path d="m32.85674,32.72867h2.40004v1.70027h-2.40004z" fill="#555753" fill-rule="evenodd" opacity=".577" stroke="#222728" stroke-linecap="square" stroke-linejoin="round" stroke-opacity=".829" stroke-width=".48863"/>
<path d="m35.69159,32.72867h2.40004v1.70027h-2.40004z" fill="#555753" fill-rule="evenodd" opacity=".577" stroke="#222728" stroke-linecap="square" stroke-linejoin="round" stroke-opacity=".829" stroke-width=".48863"/>
<path d="m38.47671,32.72867h2.40004v1.70027h-2.40004z" fill="#555753" fill-rule="evenodd" opacity=".577" stroke="#222728" stroke-linecap="square" stroke-linejoin="round" stroke-opacity=".829" stroke-width=".48863"/>
<path d="m5.88497,34.48147h2.48287v1.70027h-2.48287z" fill="#555753" fill-rule="evenodd" opacity=".577" stroke="#222728" stroke-linecap="square" stroke-linejoin="round" stroke-opacity=".829" stroke-width=".48863"/>
<path d="m8.72293,34.48147h2.40004v1.70027h-2.40004z" fill="#555753" fill-rule="evenodd" opacity=".577" stroke="#222728" stroke-linecap="square" stroke-linejoin="round" stroke-opacity=".829" stroke-width=".48863"/>
<path d="m11.52072,34.48147h2.40004v1.70027h-2.40004z" fill="#555753" fill-rule="evenodd" opacity=".577" stroke="#222728" stroke-linecap="square" stroke-linejoin="round" stroke-opacity=".829" stroke-width=".48863"/>
<path d="m14.2561,34.48147h2.40004v1.70027h-2.40004z" fill="#555753" fill-rule="evenodd" opacity=".577" stroke="#222728" stroke-linecap="square" stroke-linejoin="round" stroke-opacity=".829" stroke-width=".48863"/>
<path d="m17.19043,34.48147h2.40004v1.70027h-2.40004z" fill="#555753" fill-rule="evenodd" opacity=".577" stroke="#222728" stroke-linecap="square" stroke-linejoin="round" stroke-opacity=".829" stroke-width=".48863"/>
<path d="m19.97555,34.48147h2.40004v1.70027h-2.40004z" fill="#555753" fill-rule="evenodd" opacity=".577" stroke="#222728" stroke-linecap="square" stroke-linejoin="round" stroke-opacity=".829" stroke-width=".48863"/>
<path d="m22.76067,34.48147h2.40004v1.70027h-2.40004z" fill="#555753" fill-rule="evenodd" opacity=".577" stroke="#222728" stroke-linecap="square" stroke-linejoin="round" stroke-opacity=".829" stroke-width=".48863"/>
<path d="m25.695,34.48147h2.40004v1.70027h-2.40004z" fill="#555753" fill-rule="evenodd" opacity=".577" stroke="#222728" stroke-linecap="square" stroke-linejoin="round" stroke-opacity=".829" stroke-width=".48863"/>
<path d="m28.52985,34.48147h2.40004v1.70027h-2.40004z" fill="#555753" fill-rule="evenodd" opacity=".577" stroke="#222728" stroke-linecap="square" stroke-linejoin="round" stroke-opacity=".829" stroke-width=".48863"/>
<path d="m31.31496,34.48147h2.40004v1.70027h-2.40004z" fill="#555753" fill-rule="evenodd" opacity=".577" stroke="#222728" stroke-linecap="square" stroke-linejoin="round" stroke-opacity=".829" stroke-width=".48863"/>
<path d="m34.05035,34.48147h2.40004v1.70027h-2.40004z" fill="#555753" fill-rule="evenodd" opacity=".577" stroke="#222728" stroke-linecap="square" stroke-linejoin="round" stroke-opacity=".829" stroke-width=".48863"/>
<path d="m36.88521,34.48147h2.40004v1.70027h-2.40004z" fill="#555753" fill-rule="evenodd" opacity=".577" stroke="#222728" stroke-linecap="square" stroke-linejoin="round" stroke-opacity=".829" stroke-width=".48863"/>
<path d="m39.47139,34.48147h2.01707v1.70027h-2.01707z" fill="#555753" fill-rule="evenodd" opacity=".577" stroke="#222728" stroke-linecap="square" stroke-linejoin="round" stroke-opacity=".829" stroke-width=".48863"/>
<path d="m9.15511,36.24292h2.40004v1.70027h-2.40004z" fill="#555753" fill-rule="evenodd" opacity=".577" stroke="#222728" stroke-linecap="square" stroke-linejoin="round" stroke-opacity=".829" stroke-width=".48863"/>
<path d="m12.10503,36.24292h2.40004v1.70027h-2.40004z" fill="#555753" fill-rule="evenodd" opacity=".577" stroke="#222728" stroke-linecap="square" stroke-linejoin="round" stroke-opacity=".829" stroke-width=".48863"/>
<path d="m17.40924,36.24292h11.62413v1.70027h-11.62413z" fill="#555753" fill-rule="evenodd" opacity=".577" stroke="#222728" stroke-linecap="square" stroke-linejoin="round" stroke-opacity=".829" stroke-width=".48863"/>
<path d="m29.65359,36.24292h2.40004v1.70027h-2.40004z" fill="#555753" fill-rule="evenodd" opacity=".577" stroke="#222728" stroke-linecap="square" stroke-linejoin="round" stroke-opacity=".829" stroke-width=".48863"/>
<path d="m32.60766,36.24292h2.40004v1.70027h-2.40004z" fill="#555753" fill-rule="evenodd" opacity=".577" stroke="#222728" stroke-linecap="square" stroke-linejoin="round" stroke-opacity=".829" stroke-width=".48863"/>
<path d="m35.33979,37.73365h2.4339v1.02203h-2.4339z" fill="#555753" fill-rule="evenodd" opacity=".577" stroke="#222728" stroke-linecap="square" stroke-linejoin="round" stroke-opacity=".829" stroke-width=".48863"/>
<path d="m37.2781,36.79762h2.4339v.91204h-2.4339z" fill="#555753" fill-rule="evenodd" opacity=".577" stroke="#222728" stroke-linecap="square" stroke-linejoin="round" stroke-opacity=".829" stroke-width=".48863"/>
<path d="m37.84818,37.73365h2.83296v.99587h-2.83296z" fill="#555753" fill-rule="evenodd" opacity=".577" stroke="#222728" stroke-linecap="square" stroke-linejoin="round" stroke-opacity=".829" stroke-width=".48863"/>
<path d="m40.18555,37.73365h2.4339v1.02203h-2.4339z" fill="#555753" fill-rule="evenodd" opacity=".577" stroke="#222728" stroke-linecap="square" stroke-linejoin="round" stroke-opacity=".829" stroke-width=".48863"/>
<path d="m5.62495,36.24292h3.01131v1.70027h-3.01131z" fill="#555753" fill-rule="evenodd" opacity=".577" stroke="#222728" stroke-linecap="square" stroke-linejoin="round" stroke-opacity=".829" stroke-width=".48863"/>
<path d="m26.84389,31.18181h2.40004v1.70027h-2.40004z" fill="#555753" fill-rule="evenodd" opacity=".577" stroke="#222728" stroke-linecap="square" stroke-linejoin="round" stroke-opacity=".829" stroke-width=".48863"/>
<path d="m29.629,31.18181h2.40004v1.70027h-2.40004z" fill="#555753" fill-rule="evenodd" opacity=".577" stroke="#222728" stroke-linecap="square" stroke-linejoin="round" stroke-opacity=".829" stroke-width=".48863"/>
<path d="m32.36439,31.18181h2.40004v1.70027h-2.40004z" fill="#555753" fill-rule="evenodd" opacity=".577" stroke="#222728" stroke-linecap="square" stroke-linejoin="round" stroke-opacity=".829" stroke-width=".48863"/>
<path d="m35.19925,31.18181h2.40004v1.70027h-2.40004z" fill="#555753" fill-rule="evenodd" opacity=".577" stroke="#222728" stroke-linecap="square" stroke-linejoin="round" stroke-opacity=".829" stroke-width=".48863"/>
<path d="m37.98437,31.18181h2.40004v1.70027h-2.40004z" fill="#555753" fill-rule="evenodd" opacity=".577" stroke="#222728" stroke-linecap="square" stroke-linejoin="round" stroke-opacity=".829" stroke-width=".48863"/>
<path d="m14.4398,36.24292h2.40004v1.70027h-2.40004z" fill="#555753" fill-rule="evenodd" opacity=".577" stroke="#222728" stroke-linecap="square" stroke-linejoin="round" stroke-opacity=".829" stroke-width=".48863"/>
<path d="m8,28h6v2h-6v-2z" fill="url(#linearGradient4548)" fill-rule="evenodd" opacity=".55"/>
<path d="m32,28h6v2h-6v-2z" fill="url(#linearGradient4548)" fill-rule="evenodd" opacity=".55"/>
</svg>
