<svg viewBox="0 0 48 48" xmlns="http://www.w3.org/2000/svg">
<defs>
<filter height="2.3422" id="filter4504" width="1.08359" x="-.04179" y="-.6711">
<feGaussianBlur stdDeviation=".775"/>
</filter>
<linearGradient gradientUnits="userSpaceOnUse" id="linearGradient3505" x1="10.35981" x2="11.0173">
<stop offset="0" stop-color="#eeeeec"/>
<stop offset="1" stop-color="#eeeeec" stop-opacity="0"/>
</linearGradient>
<linearGradient gradientUnits="userSpaceOnUse" id="linearGradient4452" x1="8.15901" x2="26.29349" y1="31.29595" y2="31.05853">
<stop offset="0" stop-color="#6996d0"/>
<stop offset="1" stop-color="#3465a4"/>
</linearGradient>
<linearGradient gradientUnits="userSpaceOnUse" id="linearGradient4466" x1="28.65053" x2=".38945" y1="33.37088" y2="33.29174">
<stop offset="0" stop-color="#204a87"/>
<stop offset="1" stop-color="#204a87" stop-opacity="0"/>
</linearGradient>
<linearGradient gradientUnits="userSpaceOnUse" id="linearGradient4467" x1="-10.59779" x2="26.73525" y1="21.87637" y2="28.76178">
<stop offset="0" stop-color="#7a7d77"/>
<stop offset="1" stop-color="#3c3d3a"/>
</linearGradient>
</defs>
<path d="m46.45672,40.2836a22.23908,1.385 0 1,1 -44.47815,0 22.23908,1.385 0 1,1 44.47815,0z" fill-rule="evenodd" filter="url(#filter4504)" opacity=".389" transform="matrix(.989732,0,0,2.166071,2.0316654e-2,-49.253907)"/>
<path d="m35.46429,35.96749h8.02129v2.611h-8.02129z" fill="#3465a4" fill-rule="evenodd" stroke="#173663" stroke-linejoin="round" stroke-width=".92857"/>
<path d="m4.46429,35.92792h8.02129v2.611h-8.02129z" fill="#3465a4" fill-rule="evenodd" stroke="#173663" stroke-linejoin="round" stroke-width=".92857"/>
<g transform="matrix(1.016921,0,0,.987229,25.847708,4.360856)">
<path d="m10.46044,3.9658v9.04825l-.96043,3.07914v9.89792c0,0-.00826,1.49136.42679,1.49136 .56218.00569 1.46013.01139 2.02231.01708 .37605.02024.49629-.64465.48061-1.5198l.00373-9.92612-.96043-3v-9.04825c-.28917-.62767-.73802-.6256-1.01257-.03957z" fill-rule="evenodd" stroke="#000" stroke-linejoin="round"/>
<path d="m10.46799,4.21689c-.0357-.58068.51939-.88993.5493,0 .00671,6.83279-.05596,22.72247-.05596,22.72247h-.69921c-.46929-.2081-.30293-.4451-.3164-1.22982-.03543-2.06417 0-9.62561 0-9.62561l.55025-2.177c0,0-.09316-5.57331-.02798-9.69003z" fill="url(#linearGradient3505)" fill-rule="evenodd" opacity=".5"/>
</g>
<g transform="matrix(1.016921,0,0,.987229,-.152292,4.360856)">
<path d="m10.46044,3.9658v9.04825l-.96043,3.07914v9.89792c0,0-.00826,1.49136.42679,1.49136 .56218.00569 1.46013.01139 2.02231.01708 .37605.02024.49629-.64465.48061-1.5198l.00373-9.92612-.96043-3v-9.04825c-.28917-.62767-.73802-.6256-1.01257-.03957z" fill-rule="evenodd" stroke="#000" stroke-linejoin="round"/>
<path d="m10.46799,4.21689c-.0357-.58068.51939-.88993.5493,0 .00671,6.83279-.05596,22.72247-.05596,22.72247h-.69921c-.46929-.2081-.30293-.4451-.3164-1.22982-.03543-2.06417 0-9.62561 0-9.62561l.55025-2.177c0,0-.09316-5.57331-.02798-9.69003z" fill="url(#linearGradient3505)" fill-rule="evenodd" opacity=".5"/>
</g>
<path d="m29,31.5z" fill="#d3d3d3" fill-rule="evenodd" stroke="#bababa" transform="translate(-277.8571,-33.07897)"/>
<path d="m24.01978,21.46835c4.83214.05715 12.12592.68 17.64521,1.88782l3.72277,5.15229v7.00266c0,.51593-.43561.93127-.97671.93127 0,0-10.17766,1.14723-20.40488,1.11925s-20.50401-1.23117-20.50401-1.23117c-.5411,0-.97671-.41535-.97671-.93127v-6.89074l3.86441-4.994c5.62334-1.39947 12.75822-2.10325 17.62992-2.0461z" fill="url(#linearGradient4467)" stroke="#2e3436" stroke-linecap="round"/>
<path d="m24.01978,22.45763c4.83214.05715 11.61149.60086 17.09121,1.80867l3.44577,4.63786-41.12118.03957 3.50827-4.55872c5.62334-1.39947 12.20422-1.98454 17.07592-1.92739z" fill="none" opacity=".168" stroke="#eeeeec" stroke-linecap="round"/>
<path d="m24.07606,24.55553c1.55319.00157 8.55789.29217 11.98515.50712 .29896.01875.67966,1.42336.98301,1.44399 4.16373.28319 7.00377.58719 7.46024.80703l.99492,1.19504v7.00198c0,.51588-.43674.93118-.97924.93118 0,0-10.20401,1.14712-20.45772,1.11914s-20.5571-1.23105-20.5571-1.23105c-.5425,0-.97924-.41531-.97924-.93118v-6.89007l1.01801-1.27418c.6276-.14593 3.03425-.38998 7.41357-.66877 .33094-.02107.73759-1.54462 1.06064-1.56339 2.98856-.1737 10.65997-.44825 12.05778-.44684z" fill="url(#linearGradient4452)" stroke="#204a87" stroke-linecap="round" stroke-width="1.00125"/>
<path d="m3.46875,29.50321c0,0 10.23357-.98928 20.49785-.98928s20.55928.98928 20.55928.98928v6.02252c0,0-10.25543.96096-20.51971.96096s-20.53742-.96096-20.53742-.96096v-6.02252z" fill="url(#linearGradient4466)" fill-rule="evenodd" stroke="#3b72ad" stroke-linecap="round" stroke-linejoin="round"/>
<path d="m29,31.5z" fill="#d3d3d3" fill-rule="evenodd" stroke="#bababa" transform="translate(-329.95425,-39.83636)"/>
<path d="m29,31.5z" fill="#d3d3d3" fill-rule="evenodd" stroke="#bababa" transform="translate(-340.63515,-91.68361)"/>
<path d="m29,31.5z" fill="#d3d3d3" fill-rule="evenodd" stroke="#bababa" transform="translate(-395.17037,-103.70455)"/>
<path d="m29,31.5z" fill="#d3d3d3" fill-rule="evenodd" stroke="#bababa" transform="translate(-284.31835,25.92094)"/>
<path d="m3.99934,31.56034 39.9366-.11178" fill="none" opacity=".164" stroke="#000" stroke-width=".999"/>
<path d="m4,31.01393h24.11021v4.89942c0,0-6.96431.17089-12.99187-.05664s-11.11835-.8535-11.11835-.8535v-3.98928z" fill="#2e3436" fill-rule="evenodd"/>
<path d="m20.02638,31.01393h8.08383v4.89942c0,0-2.33464.09175-4.68189.06207s-3.36237.01707-3.36237.01707l-.03957-4.97857z" fill="#555753" fill-rule="evenodd" opacity=".631"/>
<path d="m6.39075,32.39396h3.2185v1.2185h-3.2185z" fill="#fff" fill-rule="evenodd" opacity=".143" stroke="#fff" stroke-linejoin="round" stroke-width=".7815"/>
<path d="m14.14148,33.14469h.71704v.71704h-.71704z" fill="#8ae234" fill-rule="evenodd" opacity=".537" stroke="#73d216" stroke-linejoin="round" stroke-width=".28296"/>
<path d="m16.14148,33.14469h.71704v.71704h-.71704z" fill="#8ae234" fill-rule="evenodd" opacity=".537" stroke="#73d216" stroke-linejoin="round" stroke-width=".28296"/>
<path d="m18.14148,33.14469h.71704v.71704h-.71704z" fill="#8ae234" fill-rule="evenodd" opacity=".537" stroke="#73d216" stroke-linejoin="round" stroke-width=".28296"/>
<path d="m21.27963,33.19576h.15712l.20487-.85801 .19563.85801h.15712l.3127-1.11372h-.12786l-.24647.86725-.19871-.86725h-.15096l-.2095.87958-.22798-.87958h-.1525l.28652,1.11372m1.1776,0h.14788v-.81642h-.14788v.81642m0-.9643h.14788v-.14942h-.14788v.14942m.44528.9643h.14788v-.53915c.06264-.11091.1412-.16636.23568-.16636 .01848,0 .04108.00411.06778.01232v-.13864l-.02465-.00154-.02311-.00154c-.11194,0-.19717.057-.25571.17099v-.1525h-.14788v.81642m1.22802-.02619v-.11707c-.09037.03286-.16636.04929-.22798.04929-.16842,0-.26341-.09705-.28498-.29114h.51604v-.04621c.00308-.12529-.02362-.2249-.0801-.29884-.0534-.06983-.12991-.10475-.22952-.10475-.11194,0-.20077.04313-.26649.12939-.06059.08113-.09089.17869-.09089.29268 0,.12426.03646.22696.10937.30808 .07599.08216.17561.12323.29884.12323 .06881,0 .15404-.01489.25571-.04467m-.50526-.46983c.01232-.15199.07548-.22798.18947-.22798s.17099.07599.17099.22798h-.36046m.76349.49601h.14788v-1.18766h-.14788v1.18766m1.0445-.02619v-.11707c-.09037.03286-.16636.04929-.22798.04929-.16842,0-.26341-.09705-.28498-.29114h.51604v-.04621c.00308-.12529-.02362-.2249-.0801-.29884-.0534-.06983-.12991-.10475-.22952-.10475-.11194,0-.20077.04313-.26649.12939-.06059.08113-.09089.17869-.09089.29268 0,.12426.03646.22696.10937.30808 .07599.08216.17561.12323.29884.12323 .06881,0 .15404-.01489.25571-.04467m-.50526-.46983c.01232-.15199.07548-.22798.18947-.22798s.17099.07599.17099.22798h-.36046m.73422.46675c.09448.03184.17663.04775.24647.04775 .0801,0 .14891-.02003.20642-.06008 .06367-.04621.0955-.10783.0955-.18485 0-.06367-.02259-.11707-.06778-.1602-.03081-.02978-.08216-.06007-.15404-.09088l-.07086-.02927c-.07291-.03081-.10937-.06829-.10937-.11245 0-.06983.04775-.10475.14326-.10475 .04827,0 .11399.01232.19717.03697v-.12323l-.03081-.00616c-.0647-.01232-.12118-.01848-.16944-.01848-.08216,0-.14737.01746-.19563.05237-.05751.04108-.08626.10013-.08626.17715 0,.09756.06367.17407.19101.22952l.08626.03697c.07907.03389.11861.07548.11861.12477 0,.038-.01592.06829-.04775.09088s-.06213.03081-.10013.03081c-.07189,0-.1561-.02413-.25263-.0724v.13556m.78525,0c.09448.03184.17663.04775.24647.04775 .0801,0 .14891-.02003.20641-.06008 .06367-.04621.0955-.10783.09551-.18485 0-.06367-.02259-.11707-.06778-.1602-.03081-.02978-.08216-.06007-.15404-.09088l-.07086-.02927c-.07291-.03081-.10937-.06829-.10937-.11245 0-.06983.04775-.10475.14326-.10475 .04827,0 .11399.01232.19717.03697v-.12323l-.03081-.00616c-.0647-.01232-.12118-.01848-.16945-.01848-.08216,0-.14737.01746-.19563.05237-.05751.04108-.08626.10013-.08626.17715 0,.09756.06367.17407.19101.22952l.08626.03697c.07907.03389.11861.07548.11861.12477 0,.038-.01592.06829-.04775.09088s-.06213.03081-.10013.03081c-.07189,0-.1561-.02413-.25263-.0724v.13556" fill="#eeeeec" opacity=".43"/>
<path d="m21.76788,35.12213h.15712v-.47137h.14788l.31579.47137h.19409l-.37124-.52066c.14993-.06367.2249-.16893.2249-.31578 0-.18485-.1104-.27727-.33119-.27727h-.33735v1.11372m.15712-.58844v-.40667h.09859c.16636,0 .24955.05751.24955.17253 0,.1561-.0991.23414-.2973.23414h-.05083m1.1427.60692c.12631,0 .2249-.04005.29576-.12015 .06572-.07497.09859-.17766.09859-.30808s-.03286-.22849-.09859-.30346c-.06881-.08113-.16585-.12169-.29114-.12169s-.22233.04057-.29114.12169-.09859.17972-.09859.305c0,.12426.03235.22541.09705.30346 .06983.08216.16585.12323.28806.12323m.00154-.11091c-.08113,0-.14172-.03389-.18177-.10167-.03081-.05545-.04621-.12683-.04621-.21412 0-.21052.07702-.31578.23106-.31578 .15507,0 .2326.10475.2326.31424s-.07856.31733-.23568.31732m1.13418.09243h.14788v-.81642h-.14788v.52836c-.07907.11912-.16431.17869-.25571.17869-.04827,0-.08061-.01746-.09705-.05237-.01232-.02465-.01848-.06367-.01848-.11707v-.5376h-.14942v.5869c0,.07497.02002.13453.06008.17869 .04313.04621.10115.06932.17407.06932 .11296,0 .20847-.05751.28652-.17253v.15404m.8104,0v-.10167c-.02978.00616-.05391.00924-.0724.00924-.09242,0-.13864-.0534-.13864-.1602v-.45288h.21412v-.11091h-.21412v-.16328l-.14788.0154v.14788h-.10167v.11091h.10167v.48061c0,.07497.02105.13453.06316.17869s.09961.0647.17561.0647c.03389,0 .07394-.00616.12015-.01848m.80879-.02619v-.11707c-.09037.03286-.16637.04929-.22798.04929-.16842,0-.26341-.09705-.28498-.29114h.51604v-.04621c.00308-.12529-.02362-.2249-.0801-.29884-.0534-.06983-.12991-.10475-.22952-.10475-.11194,0-.20077.04313-.26649.1294-.06059.08113-.09088.17869-.09088.29268 0,.12426.03646.22696.10937.30808 .07599.08216.17561.12323.29884.12323 .0688,0 .15404-.01489.25571-.04467m-.50526-.46983c.01232-.15199.07548-.22798.18947-.22798s.17099.07599.17099.22798h-.36046m.76349.49601h.14788v-.53915c.06264-.11091.1412-.16636.23568-.16636 .01849,0 .04108.00411.06778.01232v-.13864l-.02465-.00154-.02311-.00154c-.11194,0-.19717.057-.25571.17099v-.1525h-.14788v.81642" fill="#eeeeec" opacity=".43"/>
<path d="m33.63309,33.14886h3.36691v1.50903h-4.27992l.91301-1.50903z" fill="#73d216" fill-opacity=".966" fill-rule="evenodd"/>
<path d="m32.95173,32.83379h-1.47167v-.32723c.09927-.10619.19103-.20084.27529-.28395s.16044-.16217.22854-.23374 .13043-.1414.18353-.20603c.05309-.06579.09696-.13331.13158-.20257 .03578-.07041.06291-.14543.08138-.22508s.0277-.17025.0277-.27183c0-.07041-.00924-.13158-.0277-.18353s-.04328-.09696-.07445-.13158c-.03001-.03578-.06522-.06233-.10561-.07964s-.08311-.02597-.12812-.02597c-.07156,0-.1287.0075-.17141.02251s-.08195.03752-.11773.06752l-.07445.33589h-.15063v-.52807l.2701-.05194c.08888-.015.18526-.02251.28914-.02251 .25509,0 .45016.05252.58521.15756s.2043.25452.2043.44843c0,.09234-.01097.17602-.0329.25105-.02193.07387-.05425.14371-.09696.2095s-.0935.12985-.15583.19218-.13447.12812-.21642.19738l-.2701.22508c-.09927.0808-.20661.17256-.32204.27529h1.13925v.39129m.5956.05021c-.0404,0-.07791-.0075-.11254-.02251-.03463-.015-.06522-.0352-.09176-.0606s-.04559-.05714-.0606-.09176-.02251-.07214-.02251-.11254 .0075-.07618.02251-.11081c.01501-.03578.0352-.06637.0606-.09176s.05714-.04732.09176-.06233c.03463-.015.07214-.02251.11254-.02251s.07618.0075.11081.02251c.03578.01501.06637.03578.09176.06233s.04732.05598.06233.09176c.01501.03463.02251.07156.02251.11081s-.0075.07791-.02251.11254-.03578.06522-.06233.09176-.05598.04559-.09176.0606c-.03463.01501-.07156.02251-.11081.02251m1.91837-.50903v.45882h-.46574v-.45882h-.96092v-.28222l1.04575-1.59287h.3809v1.52015h.23201v.35493h-.23201m-.46574-1.04229c0-.03001.00058-.06175.00173-.09523l.00346-.09869c.00231-.03347.00404-.06464.00519-.09349s.00462-.05656.00692-.07964l-.69082,1.05441h.67351v-.68736" fill="#eeeeec" transform="scale(.953,1.05)"/>
<path d="m34.70736,33.31c-.05387.01765-.10983.03251-.16788.04458s-.12051.01811-.18739.01811-.14048-.00999-.19993-.02995-.10937-.05039-.15116-.08986-.07384-.08917-.09613-.14768-.03344-.12609-.03344-.20271c0-.16347.04087-.28561.1226-.36641s.20248-.12191.36084-.12191c.06037,0 .11773.00372.17206.01115l.15604.03065v.20062h-.04667l-.01881-.11564c-.03205-.02275-.07059-.04017-.11564-.05225-.04458-.01254-.09172-.01881-.14141-.01881s-.10287.00766-.14559.02299c-.04226.01486-.07802.03924-.10728.07314s-.05178.07849-.06757.13375c-.01533.0548-.02299.12191-.02299.20132s.00905.14745.02717.20132 .04249.09613.07314.12818 .06687.0548.10728.06827 .08382.0202.12887.0202l.06757-.00418 .06339-.01184c.01997-.00464.03762-.00975.05294-.01533l.03622-.01602v-.26541l-.11982-.01811v-.03762h.34482v.03762l-.09126.01811v.30372m.17764.04876v-.03692l.11982-.01881v-.82339l-.11982-.01811v-.03692h.37408v.03692l-.11982.01811v.36711h.43956v-.36711l-.11982-.01811v-.03692h.37338v.03692l-.11982.01811v.82339l.11982.01881v.03692h-.37338v-.03692l.11982-.01881v-.39358h-.43956v.39358l.11982.01881v.03692h-.37408m1.02819,0v-.03135l.35945-.56773h-.15395l-.03901.00209-.03622.00488c-.01115.00186-.02113.00441-.02995.00766l-.0202.00975-.02159.09404h-.03274v-.17415h.48345v.03413l-.35945.56495h.19157l.03971-.00209 .0411-.00697 .03692-.00975c.01161-.00418.0209-.00882.02786-.01393l.03553-.13723h.03274l-.01741.2257h-.53778" fill="#eeeeec" transform="scale(1.013,.987)"/>
<path d="m34.40677,34.09462 .16431-.01702c.00469.03717.01858.0667.04166.08861s.04969.03227.07981.03227 .06357-.01389.08744-.04166 .0358-.07042.0358-.12676c0-.05281-.01193-.09233-.0358-.11854s-.05418-.0399-.09213-.0399c-.04734,0-.08979.02093-.12734.06279l-.1338-.01937 .0845-.44775h.43601v.15434h-.31102l-.02582.14612c.03677-.01839.07433-.02758.11267-.02758 .07316,0 .13517.0266.18603.07981s.07629.12226.07629.20715c0,.07081-.02054.13399-.06162.18955-.05594.0759-.1336.11384-.23297.11384-.07942,0-.14416-.02132-.19424-.06397s-.08-.09996-.08978-.17194m.98998.22124v-.17312h-.3521v-.14436l.37322-.54634h.13849v.54575h.1068v.14495h-.1068v.17312h-.15962m0-.31806v-.294l-.19776.294h.19776m.36559.35914 .18837.02289c.00313.02191.01037.03697.02171.04519 .01565.01174.0403.0176.07394.0176 .04303,0 .07531-.00645.09683-.01936 .01447-.00861.02543-.0225.03286-.04167 .00509-.01369.00763-.03893.00763-.0757v-.09096c-.04929.06729-.1115.10093-.18661.10093s-.15003-.03541-.19893-.10622c-.03834-.05594-.05751-.12558-.05751-.20891 0-.10445.02504-.18426.07511-.23943s.11306-.08274.18778-.08274c.07707,0 .14064.03384.19072.10152v-.08744h.15434v.55925c0,.07355-.00606.12852-.01819.1649s-.02915.06494-.05105.08568-.05125.03697-.08802.04871-.08255.0176-.13849.0176c-.10563,0-.18055-.01819-.22475-.05457s-.06631-.08176-.06631-.13732c0-.00548.0002-.01213.00059-.01995m.14729-.36559c0,.06612.01271.11463.03814.14553s.05751.04577.09507.04577 .07433-.01565.10211-.04695 .04166-.07844.04166-.14025-.0133-.11248-.0399-.14377-.06025-.04695-.10093-.04695-.07218.01545-.098.04636-.03814.07727-.03814.14025"/>
<path d="m29,31.5z" fill="#d3d3d3" fill-rule="evenodd" stroke="#bababa" transform="translate(-284.68315,3.60237)"/>
<path d="m29,31.5z" fill="#d3d3d3" fill-rule="evenodd" stroke="#bababa" transform="translate(-336.7803,-3.15502)"/>
<path d="m29,31.5z" fill="#d3d3d3" fill-rule="evenodd" stroke="#bababa" transform="translate(-347.4612,-55.00227)"/>
<path d="m29,31.5z" fill="#d3d3d3" fill-rule="evenodd" stroke="#bababa" transform="translate(-401.99642,-67.02321)"/>
<path d="m29,31.5z" fill="#d3d3d3" fill-rule="evenodd" stroke="#bababa" transform="translate(-291.1444,62.60227)"/>
<path d="m6,33.99972c0,0 .81148-.27394 1.3042-.77387s.66669-1.22585.66669-1.22585 .19175.74045.69903,1.24045 1.33008.75955 1.33008.75955l-4-.00028z" fill="#eeeeec" fill-rule="evenodd" opacity=".324"/>
</svg>
