<svg viewBox="0 0 48 48" xmlns="http://www.w3.org/2000/svg">
<defs>
<filter height="1.56414" id="filter3795" width="1.14797" x="-.07399" y="-.28207">
<feGaussianBlur stdDeviation=".897"/>
</filter>
<linearGradient gradientUnits="userSpaceOnUse" id="linearGradient3732" x2="0" y1="5.52097" y2="59.08839">
<stop offset="0" stop-color="#d3d7cf"/>
<stop offset="1" stop-color="#eeeeec"/>
</linearGradient>
<linearGradient gradientUnits="userSpaceOnUse" id="linearGradient4774" x1="22.6607" x2="21.9121" y1="35" y2="-1.95606">
<stop offset="0" stop-color="#fff"/>
<stop offset="1" stop-color="#fff" stop-opacity="0"/>
</linearGradient>
<linearGradient gradientUnits="userSpaceOnUse" id="linearGradient3808" x1="7.92173" x2="30.35067" y1="15.98575" y2="26.00703">
<stop offset="0" stop-color="#eeeeec"/>
<stop offset="1" stop-color="#eeeeec" stop-opacity="0"/>
</linearGradient>
<linearGradient gradientUnits="userSpaceOnUse" id="linearGradient3989" x1="30.0139" x2="38.31949" y1="38.85615" y2="42.12652">
<stop offset="0" stop-color="#729fcf"/>
<stop offset="1" stop-color="#729fcf" stop-opacity="0"/>
</linearGradient>
<linearGradient gradientTransform="matrix(1,0,0,.912074,2.731102,-1.368197)" gradientUnits="userSpaceOnUse" id="linearGradient3992" x1="28.04536" x2="36.35095" y1="43.74004" y2="47.01041">
<stop offset="0" stop-color="#979797"/>
<stop offset="1" stop-color="#979797" stop-opacity="0"/>
</linearGradient>
</defs>
<path d="m39.89982,44.5c-8.01841-10.11343-9.91428-2.47986-22.08839-2.6411-12.08975-.16123-15.33319-6.32247-6.34549-10.74018" fill="none" stroke="url(#linearGradient3992)"/>
<path d="m40.31827,46.33404c-8.01841-11.08839-10.59317-4.00446-23.0123-4.00446-12.50752,0-15.8071-7.68314-5.8071-11.68314" fill="none" stroke="url(#linearGradient3989)"/>
<path d="m39.01141,42.98936a14.55472,3.81763 0 1,1 -29.10944,0 14.55472,3.81763 0 1,1 29.10944,0z" fill="#2e3436" fill-opacity=".75" fill-rule="evenodd" filter="url(#filter3795)" opacity=".4" transform="matrix(1.168006,0,0,1.571655,-4.565572,-35.564458)"/>
<path d="m29,31.5z" fill="#d3d3d3" fill-rule="evenodd" stroke="#bababa" transform="translate(-319.44822,-27.1391)"/>
<path d="m-81.5,3.5h11" fill="none" stroke="#fff" stroke-opacity=".162"/>
<path d="m15.11436,13.5c-2.68239,1.13471-6.11227,1.83911-6.625,4.97533v12.97771c0,2.24981 1.79793,4.06102 4.03125,4.06102h23.04997c2.23332,0 4.03125-1.81122 4.03125-4.06102v-12.97771c-.26419-2.9592-4.12826-4.10151-6.625-4.97533h-17.86247z" fill="#eeeeec" stroke="#888a85" stroke-dashoffset="1.4" stroke-linecap="round"/>
<path d="m15.79093,14.55985c-2.60435,1.59355-5.17404,1.2323-6.33311,4.04873v5.86017c0,1.69661 1.34696,3.03125 3.05925,3.03125h23.02551c1.71229,0 3.05925-1.33464 3.05925-3.03125v-5.86017c-.72157-2.87244-3.84311-3.16591-6.51206-4.04873h-16.29883z" fill="none" opacity=".7" stroke="#f9f9f9" stroke-dashoffset="1.4" stroke-linecap="round" stroke-linejoin="round"/>
<path d="m12.4582,16.42091h23.05546c1.67779,0 3.02849,1.35083 3.02849,3.02876v12.02157c0,1.67793-1.35071,3.02876-3.02849,3.02876h-23.05546c-1.67779,0-3.0285-1.35083-3.0285-3.02876v-12.02157c0-1.67793 1.35071-3.02876 3.0285-3.02876z" fill="url(#linearGradient3732)" stroke="url(#linearGradient4774)" stroke-dashoffset="1.4" stroke-linecap="round"/>
<path d="m12.50769,18.5h22.98462a1.50769,1.50769 0 0,1 1.50769,1.50769v10.98462a1.50769,1.50769 0 0,1 -1.50769,1.50769h-22.98462a1.50769,1.50769 0 0,1 -1.50769-1.50769v-10.98462a1.50769,1.50769 0 0,1 1.50769-1.50769" fill="#2e3436" fill-rule="evenodd" stroke="#6d6f6a" stroke-linejoin="round" stroke-opacity=".696"/>
<path d="m-18.66667-25h2.33333a.33333,.33333 0 0,1 .33333.33333v1.33333a.33333,.33333 0 0,1 -.33333.33333h-2.33333a.33333,.33333 0 0,1 -.33333-.33333v-1.33333a.33333,.33333 0 0,1 .33333-.33333" fill="#729fcf" fill-rule="evenodd" transform="matrix(0,-1,-1,0,0,0)"/>
<path d="m18.42006,27.88353h-1.4185v-2.09267c0-.17032-.00915-.33938-.02743-.5072s-.04964-.29555-.09404-.3757c-.05225-.09267-.12931-.1603-.23119-.20288s-.23903-.06387-.41928-.06387c-.12801,0-.25862.02004-.39185.06011s-.27299.10395-.42712.19161v2.99061h-1.41066v-4.21916h1.41066v.46587c.25078-.18785.49111-.33187.721-.43206s.48981-.15028.77194-.15028c.47544,0 .84639.13275 1.11285.39825s.4036.66249.4036,1.19098v2.7464m11.39107,0h-1.41066v-.46587c-.26124.19036-.50026.33563-.71708.43582s-.47545.14653-.77586.14653c-.4859,0-.86076-.134-1.12461-.402s-.39185-.66374-.39185-1.18723v-2.7464h1.4185v2.09267c0,.2129.00653.39073.01959.5335 .01567.14026.04963.25673.10188.34941s.12408.1603.22335.20288 .24294.06387.4232.06387c.12017,0 .25339-.02129.39969-.06387s.28735-.1052.4232-.18785v-2.99061h1.41066v4.21916m4.18887-4.8541h-.1058l-.24686-.06011c-.09927-.02254-.20638-.03381-.32132-.03381-.27691,0-.465.04759-.56426.14277s-.14499.27928-.14498.55229v.03381h1.08934v.91672h-1.04232v3.30244h-1.41066v-3.30244h-.60345v-.91672h.60345v-.11647c0-.51596.14237-.90294.42712-1.16093 .28736-.25798.721-.38697 1.30094-.38698 .20898,1e-05 .39838.00752.56818.02254 .1698.01253.32001.03006.45063.0526v.95429" fill="#729fcf"/>
<path d="m24.52487,25.51299c-1e-05,.33583-.07028.64831-.21084.93744s-.35433.53247-.6413.73002c-.31041.21371-.69548.37444-1.15522.48219s-.99563.15893-1.60765.15893c-.2167,0-.45096-.00808-.7028-.02425s-.41729-.03053-.49635-.0431v-.78928h.1757c.08785.02514.2123.05208.37336.08081s.38654.0431.66766.0431c.22841,0 .45242-.01706.67205-.05118 .21962-.03591.4085-.09159.56663-.16701 .17277-.08081.31479-.18138.42607-.3017s.18595-.26848.22402-.43909c-.25477.08979-.49196.15893-.71158.20742s-.48757.07004-.81261.07004c-.24598,0-.48171-.01796-.70719-.05388-.22255-.03771-.42607-.09518-.61056-.1724-.24305-.10595-.43779-.24513-.5842-.41754-.14349-.1742-.21523-.39329-.21523-.65728 0-.42921.24305-.7785.72915-1.04788s1.12887-.40676 1.91952-.40676c.40703,0 .76722.03323 1.08055.09967 .31626.06466.58859.16433.817.29901 .26647.15445.46706.35109.60177.58994s.20205.52978.20205.87279m-1.68232-.15085c0-.21909-.03514-.39868-.10542-.53876s-.16106-.25142-.28112-.32864c-.08493-.05746-.18302-.09877-.2943-.12391s-.22841-.03771-.3514-.03771c-.11421,0-.22402.01258-.32944.03771-.10249.02335-.20206.06465-.29869.12391-.09078.05747-.16545.1329-.22402.22628s-.08346.20473-.08346.33403 .03075.23167.09224.31787c.06149.08441.14641.15175.25476.20203 .10249.04849.22255.08261.36019.10236s.29283.02963.45682.02963c.13177,0 .27526-.00988.43046-.02963s.27526-.0431.36018-.06465c0-.01975.00146-.04759.00439-.08351 .00585-.03771.00878-.09338.00878-.16701" fill="#729fcf"/>
<path d="m-32.66667-33h.33333a.33333,.33333 0 0,1 .33333.33333v1.33333a.33333,.33333 0 0,1 -.33333.33333h-.33333a.33333,.33333 0 0,1 -.33333-.33333v-1.33333a.33333,.33333 0 0,1 .33333-.33333" fill="#729fcf" fill-rule="evenodd" opacity=".65" transform="matrix(0,-1,-1,0,0,0)"/>
<path d="m-32.66667-29h.33333a.33333,.33333 0 0,1 .33333.33333v1.33333a.33333,.33333 0 0,1 -.33333.33333h-.33333a.33333,.33333 0 0,1 -.33333-.33333v-1.33333a.33333,.33333 0 0,1 .33333-.33333" fill="#729fcf" fill-rule="evenodd" opacity=".65" transform="matrix(0,-1,-1,0,0,0)"/>
<path d="m-32.66667-25h.33333a.33333,.33333 0 0,1 .33333.33333v1.33333a.33333,.33333 0 0,1 -.33333.33333h-.33333a.33333,.33333 0 0,1 -.33333-.33333v-1.33333a.33333,.33333 0 0,1 .33333-.33333" fill="#729fcf" fill-rule="evenodd" opacity=".65" transform="matrix(0,-1,-1,0,0,0)"/>
<path d="m-32.66667-21h.33333a.33333,.33333 0 0,1 .33333.33333v1.33333a.33333,.33333 0 0,1 -.33333.33333h-.33333a.33333,.33333 0 0,1 -.33333-.33333v-1.33333a.33333,.33333 0 0,1 .33333-.33333" fill="#729fcf" fill-rule="evenodd" opacity=".65" transform="matrix(0,-1,-1,0,0,0)"/>
<path d="m-32.66667-17h.33333a.33333,.33333 0 0,1 .33333.33333v1.33333a.33333,.33333 0 0,1 -.33333.33333h-.33333a.33333,.33333 0 0,1 -.33333-.33333v-1.33333a.33333,.33333 0 0,1 .33333-.33333" fill="#729fcf" fill-rule="evenodd" opacity=".65" transform="matrix(0,-1,-1,0,0,0)"/>
<path d="m12.40364,18.5h23.08226c.83881,0 1.5141.67243 1.5141,1.50769 0,0-7.72742,1.84488-15.40406,4.44601-7.73035,2.61933-9.74284,7.33049-9.74284,7.33049-.83881,0-.96356.04337-.96356-.79189v-10.98462c0-.83526.67529-1.50769 1.5141-1.50769z" fill="url(#linearGradient3808)" fill-rule="evenodd" opacity=".3"/>
<g opacity=".4" stroke="#729fcf" stroke-width=".97326" transform="matrix(-.970727,-.427422,-.412542,.967366,123.43565,32.098901)">
<path d="m92.5,14.26145c-2.18265-2.33553-5.20069-3.77089-8.5077-3.77089s-6.32505,1.43536-8.5077,3.77089" fill="none" stroke="#729fcf" stroke-linecap="round" stroke-width=".94687"/>
<path d="m90.5,15.08455c-1.65474-1.59832-3.94216-2.58455-6.44931-2.58455s-4.79457.98623-6.4493,2.58455" fill="none" stroke="#729fcf" stroke-linecap="round" stroke-width=".94687"/>
<path d="m87.6944,15.55806c-.9296-.58912-2.2039-.95626-3.61237-.95626s-2.68277.36714-3.61236.95626" fill="none" stroke="#729fcf" stroke-linecap="round" stroke-width=".94687"/>
</g>
</svg>
