<svg viewBox="0 0 48 48" xmlns="http://www.w3.org/2000/svg" xmlns:xlink="http://www.w3.org/1999/xlink">
<defs>
<filter height="1.67135" id="filter5826" width="1.11737" x="-.05869" y="-.33568">
<feGaussianBlur stdDeviation="1.351"/>
</filter>
<linearGradient id="linearGradient4902">
<stop offset="0" stop-color="#eeeeec"/>
<stop offset="1" stop-color="#eeeeec" stop-opacity="0"/>
</linearGradient>
<linearGradient gradientUnits="userSpaceOnUse" id="linearGradient3892" x2="0" y1="34" y2="32.21764">
<stop offset="0" stop-color="#fff" stop-opacity=".027"/>
<stop offset=".5" stop-color="#fff" stop-opacity=".588"/>
<stop offset="1" stop-color="#fff" stop-opacity=".039"/>
</linearGradient>
<linearGradient gradientUnits="userSpaceOnUse" id="linearGradient4908" x1="3.29906" x2="3.95654" xlink:href="#linearGradient4902"/>
<linearGradient gradientTransform="matrix(0,.910785,-.910785,0,27.251741,26.267645)" gradientUnits="userSpaceOnUse" id="linearGradient4915" x1="3" x2="4" xlink:href="#linearGradient4902"/>
</defs>
<path d="m7.125,35c-2.51725,0-5.05911-.34163-6.08933.82357-.30514.34511-.47767.82242-.47767,1.47993 0,.92427 3.16325.8376 5.65423.89299 .442,1.89832.81454,4.4235 2.82809,4.80351h33.42853c2.53171.01494 4.11592-1.77739 4.11592-3.96875 0-2.18438-2.1787-3.95747-5.45978-3.96875h-34v-.0625z" fill="#2e3436" filter="url(#filter5826)" opacity=".45" transform="matrix(.99729,0,0,1,2.7100271e-3,-4)"/>
<path d="m3.43926,4.14476v17.04166l-1,3v6.41763c0,0-.03534,1.68722.76256,1.68722l6.21671.01708 .08147-2.76542-3.73533.00267-.07542-5.35918-1-3v-17.04166c-.21002-.74638-.97545-.74432-1.25,0z" fill-rule="evenodd" stroke="#000" stroke-linejoin="round"/>
<path d="m29,31.5z" fill="#d3d3d3" fill-rule="evenodd" stroke="#bababa" transform="translate(-277.8571,-33.07897)"/>
<path d="m8.42547,29-.2078,1.39564h-2.4457c.00336-.53448.17988-.96506.52956-1.39564h2.12393z" fill="url(#linearGradient4915)" fill-rule="evenodd" opacity=".5"/>
<path d="m14.16663,21.50063h24.01433c.43011,0 .90895-.00567 1.43928.73047l3.84352,7.19525c0,0 1.14905,1.84377 1.14905,3.63602-.12287,1.83639-.75575,3.52408-2.12576,4.45197h-32.92069c-1.50978-.74533-1.79194-2.88658-1.94898-4.54036 0-1.79226.97227-3.54763.97227-3.54763l4.09352-7.19525c.59662-.78033 1.05337-.73047 1.48347-.73047z" fill="#3465a4" stroke="#555753" stroke-width="1.00126"/>
<path d="m14.38558,22.464 23.71554.06615c.40794,0 .53792-.01493.91272.5925l3.47013,6.4878c0,0 1.08119,1.82744 1.08119,3.43898 .07859,1.44618-.91956,3.42519-1.47749,3.44603h-31.93062c-1.10868-.00403-1.42518-2.36461-1.46469-3.56567-.03931-1.62276.92808-3.31934.92808-3.31934l3.78628-6.4878c.3748-.65153.57093-.65865.97886-.65865z" fill="none" opacity=".209" stroke="#eeeeec"/>
<path d="m25.40407,32.40407h2.19186v1.19186h-2.19186z" fill="#ef2929" stroke="#c00" stroke-width=".80814"/>
<path d="m29.40407,32.40407h2.19186v1.19186h-2.19186z" fill="#8ae234" stroke="#73d216" stroke-width=".80814"/>
<path d="m34.07246,30h8.02129c0,0 .97829,1.20895 1.00038,2.97398s-1.09413,3.02602-1.09413,3.02602h-7.92754v-6z" fill="#2e3436" fill-rule="evenodd"/>
<path d="m3.40724,5.28728c-.11964-1.19626.54737-2.87659.5493,0 .00671,6.83279 0,26.71272 0,26.71272h-.69921c-.4693-.2081-.72265-.47308-.73611-1.25781-.03543-2.06417 0-6.61819 0-6.61819l.88602-2.56874c0,0-.06518-12.15126 0-16.26799z" fill="url(#linearGradient4908)" fill-rule="evenodd" opacity=".5"/>
<path d="m21.40407,32.40407h2.19186v1.19186h-2.19186z" fill="#8ae234" stroke="#73d216" stroke-width=".80814"/>
<path d="m17.40407,32.40407h2.19186v1.19186h-2.19186z" fill="#8ae234" stroke="#73d216" stroke-width=".80814"/>
<path d="m16.54061,24.57005 14.89952.06615 .01935,2.84733-16.11077-.04898 1.1919-2.8645z" fill="#eeeeec" opacity=".2" stroke="#eeeeec" stroke-linejoin="round"/>
<path d="m36.05451,33h4.94549v1.0575h-4.94549z" fill="#eeeeec" fill-rule="evenodd" opacity=".877"/>
<path d="m42.9236,34h-33.53696c0,0-.24255-.28558-.2078-.9959s.2078-1.0041.2078-1.0041h33.59946c0,0 .1538.30767.12787,1.00392s-.19037.99608-.19037.99608z" fill="url(#linearGradient3892)" fill-rule="evenodd"/>
</svg>
