<svg viewBox="0 0 48 48" xmlns="http://www.w3.org/2000/svg">
<defs>
<filter id="filter3974">
<feGaussianBlur stdDeviation=".569"/>
</filter>
<linearGradient gradientUnits="userSpaceOnUse" id="linearGradient3868" x2="0" y1="-43.672" y2="-40.8492">
<stop offset="0" stop-color="#2e3436" stop-opacity=".825"/>
<stop offset="1" stop-color="#2e3436" stop-opacity="0"/>
</linearGradient>
<linearGradient gradientUnits="userSpaceOnUse" id="linearGradient3870" x2="0" y1="-44.7425" y2="-39.6681">
<stop offset="0" stop-color="#555753"/>
<stop offset="1" stop-color="#555753" stop-opacity=".227"/>
</linearGradient>
<linearGradient gradientUnits="userSpaceOnUse" id="linearGradient3880" x2="0" y1="-45.5582" y2="-32.0149">
<stop offset="0" stop-color="#d3d7cf"/>
<stop offset="1" stop-color="#bbc1b5"/>
</linearGradient>
<linearGradient gradientUnits="userSpaceOnUse" id="linearGradient4868" x1="19.0039" x2="29.0195" y1="19" y2="32.5761">
<stop offset="0" stop-color="#fff"/>
<stop offset="1" stop-color="#fff" stop-opacity="0"/>
</linearGradient>
</defs>
<path d="m7.0562,2.0303h13.3875a.5562,.5562 0 0,1 .5562.5562v6.8574a.5562,.5562 0 0,1 -.5562.5562h-13.3875a.5562,.5562 0 0,1 -.5562-.5562v-6.8574a.5562,.5562 0 0,1 .5562-.5562" filter="url(#filter3974)" opacity=".193" stroke="#000" stroke-width=".9849" transform="matrix(1.12925,0,0,.35758,8.97281,43.14943)"/>
<path d="m19.5853,35.0538h10.0748a.625,.625 0 0,1 .625.625v8.2794a.625,.625 0 0,1 -.625.625h-10.0748a.625,.625 0 0,1 -.625-.625v-8.2794a.625,.625 0 0,1 .625-.625" fill="#fff"/>
<path d="m18.1043-46.4309h12.831a.5647,.5647 0 0,1 .5647.5647v13.8015a.5647,.5647 0 0,1 -.5647.5647h-12.831a.5647,.5647 0 0,1 -.5647-.5647v-13.8015a.5647,.5647 0 0,1 .5647-.5647" fill="url(#linearGradient3880)" stroke="#555753" transform="scale(1,-1)"/>
<path d="m19.0396,44.9309h11v-4.0792l-11-.8518v4.9309z" fill="#eeeeec" opacity=".363"/>
<path d="m20.4996-43.4044h3.0787v3.1133h-3.0787z" fill="url(#linearGradient3868)" opacity=".882" stroke="url(#linearGradient3870)" stroke-width=".92" transform="scale(1,-1)"/>
<path d="m18.5396-45.4309h11.9604v13.0345h-11.9604z" fill="none" opacity=".715" stroke="#eeeeec" transform="scale(1,-1)"/>
<path d="m25.4996-43.4044h3.0787v3.1133h-3.0787z" fill="url(#linearGradient3868)" opacity=".882" stroke="url(#linearGradient3870)" stroke-width=".92" transform="scale(1,-1)"/>
<path d="m16.1785,1.5h16.7043a1.625,1.6208 0 0,1 1.625,1.6208v32.7418a1.625,1.6208 0 0,1 -1.625,1.6208h-16.7043a1.625,1.6208 0 0,1 -1.625-1.6208v-32.7418a1.625,1.6208 0 0,1 1.625-1.6208" fill="#bc0000" stroke="#686a65" stroke-linecap="round" stroke-linejoin="round"/>
<path d="m16.1468,2h16.7064a1.1468,1.5514 0 0,1 1.1468,1.5514v.8972a1.1468,1.5514 0 0,1 -1.1468,1.5514h-16.7064a1.1468,1.5514 0 0,1 -1.1468-1.5514v-.8972a1.1468,1.5514 0 0,1 1.1468-1.5514" fill="#fff" opacity=".7"/>
<path d="m16.125,2.5h16.7936a.625,.6244 0 0,1 .625.6244v32.7512a.625,.6244 0 0,1 -.625.6244h-16.7936a.625,.6244 0 0,1 -.625-.6244v-32.7512a.625,.6244 0 0,1 .625-.6244" fill="none" stroke="#eb9c96" stroke-linecap="round" stroke-linejoin="round" stroke-opacity=".766"/>
<path d="m15.0001,2.9204c-.0098-.4658.5925-.9012 1.0975-.916 .5792-.0181 16.208.0255 16.208.0255s1.823-.1974 1.6872,1.0008c-4.2604,2.6873-11.2465,10.7483-10.7102,15.6415 1.1712,10.5667-8.2733,17.3278-8.2733,17.3278s.0119-31.5017-.0092-33.0796z" fill="url(#linearGradient4868)" opacity=".5"/>
<path d="m27.7588,3.4199a0.0244140625,.1709 0 0,1 .0244.1709 0.0244140625,.1709 0 0,1 -.0244.1709 0.0244140625,.1709 0 0,1 -.0244-.1709 0.0244140625,.1709 0 0,1 .0244-.1709" fill="#fff"/>
<path d="m22.5966,30.1911c0-1.2693.4293-1.5986.9551-2.0418 .4222-.2003.4896-.337.4841-.981-.0061-.7117-.0755-.6304-1.4178-1.7755-2.0496-1.7483-2.3252-2.1699-2.5659-3.9243-.1775-1.2939-.053-1.0093-.5626-1.507-.9379-.9161-.7772-2.2595.3393-2.8369 1.0059-.5202 2.1975.0331 2.5649,1.1908 .1811.5706-.2531,1.556-.8361,1.8976-.5335.3125-.7549-.2085-.6329.9436 .0675.6377.2321,1.371.3657,1.6296 .2294.4442 2.4762,2.5353 2.7206,2.5353v-12.3531h-1.2454c.5761-.9823 1.1375-1.9802 1.6955-2.9684l1.7773,2.9684h-1.2106v8.3665c.1684,0 1.8191-1.6462 2.3745-2.3874 .24-.3202.3856-.7749.3856-1.204 0-.6471.2172-.7832-.2851-.7832h-.5351v-3.0322h3.0322v3.0322h-.4905c-.4377.0504-.7505.2696-.8331.9871-.1232,1.0701-.5896,1.7724-2.3059,3.4725l-1.3426,1.4228v5.074l.3968.2327c.2698.128.6413.5415.8257.919 .657,1.3453-.2561,2.7919-1.7621,2.7919-1.0913-.0393-1.8916-.59-1.8916-1.6691z" fill="#eeeeec" opacity=".95"/>
</svg>
