<svg viewBox="0 0 47.960255 24.022324" xmlns="http://www.w3.org/2000/svg" xmlns:xlink="http://www.w3.org/1999/xlink">
<defs>
<linearGradient id="linearGradient6783">
<stop offset="0" stop-color="#eeeeec"/>
<stop offset="1" stop-color="#eeeeec" stop-opacity="0"/>
</linearGradient>
<linearGradient id="linearGradient3506">
<stop offset="0" stop-color="#555753"/>
<stop offset="1" stop-color="#555753" stop-opacity=".227"/>
</linearGradient>
<linearGradient gradientUnits="userSpaceOnUse" id="linearGradient3868" x2="0" y1="-43.67201" y2="-40.84924">
<stop offset="0" stop-color="#2e3436" stop-opacity=".825"/>
<stop offset="1" stop-color="#2e3436" stop-opacity="0"/>
</linearGradient>
<linearGradient gradientUnits="userSpaceOnUse" id="linearGradient3880" x2="0" y1="-45.55818" y2="-32.01493">
<stop offset="0" stop-color="#d3d7cf"/>
<stop offset="1" stop-color="#bbc1b5"/>
</linearGradient>
<linearGradient gradientUnits="userSpaceOnUse" id="linearGradient6775" x1="26.84" x2="26.73751" y1="35.29089" y2="23.48276">
<stop offset="0" stop-color="#23446f"/>
<stop offset="1" stop-color="#3465a4"/>
</linearGradient>
<linearGradient gradientUnits="userSpaceOnUse" id="linearGradient3870" x2="0" xlink:href="#linearGradient3506" y1="-44.74251" y2="-39.66809"/>
<linearGradient gradientUnits="userSpaceOnUse" id="linearGradient3876" x2="0" xlink:href="#linearGradient3506" y1="-44.74251" y2="-39.6681"/>
<linearGradient gradientUnits="userSpaceOnUse" id="linearGradient6767" x1="7.52576" x2="43.62326" xlink:href="#linearGradient6783" y1="12.10619" y2="34.13422"/>
<linearGradient gradientUnits="userSpaceOnUse" id="linearGradient6789" x1="38.10584" x2="6.7499" xlink:href="#linearGradient6783"/>
<linearGradient gradientTransform="matrix(-.002679,.668603,.841025,.00337,14.247145,8.271034)" gradientUnits="userSpaceOnUse" id="linearGradient6822" x1="3" x2="4" xlink:href="#linearGradient6783"/>
<linearGradient gradientTransform="matrix(.668603,-5.0260735e-4,.00337,.157771,37.830056,9.740811)" gradientUnits="userSpaceOnUse" id="linearGradient6827" x1="3" x2="4" xlink:href="#linearGradient6783"/>
</defs>
<g transform="translate(-.04571,-8.97768)">
<g transform="matrix(.001643,1.009145,-.999999,.001658,46.949123,-1.368688)">
<path d="m19.58525,35.05376h10.07476a.625,.625 0 0,1 .625.625v8.27937a.625,.625 0 0,1 -.625.625h-10.07476a.625,.625 0 0,1 -.625-.625v-8.27937a.625,.625 0 0,1 .625-.625" fill="#fff"/>
<path d="m18.10433-46.43095h12.83097a.56471,.56471 0 0,1 .56471.56471v13.80153a.56471,.56471 0 0,1 -.56471.56471h-12.83097a.56471,.56471 0 0,1 -.56471-.56471v-13.80153a.56471,.56471 0 0,1 .56471-.56471" fill="url(#linearGradient3880)" stroke="#555753" transform="scale(1,-1)"/>
<path d="m19.03962,44.93095h11v-4.07915l-11-.85179v4.93095z" fill="#eeeeec" opacity=".363"/>
<path d="m20.49962-43.40444h3.07874v3.11325h-3.07874z" fill="url(#linearGradient3868)" opacity=".882" stroke="url(#linearGradient3876)" stroke-width=".92" transform="scale(1,-1)"/>
<path d="m18.53962-45.43095h11.96038v13.03453h-11.96038z" fill="none" opacity=".715" stroke="#eeeeec" transform="scale(1,-1)"/>
<path d="m25.49962-43.40444h3.07874v3.11325h-3.07874z" fill="url(#linearGradient3868)" opacity=".882" stroke="url(#linearGradient3870)" stroke-width=".92" transform="scale(1,-1)"/>
</g>
<path d="m44.34747,32.40735-27.76731.09501-7.0316-1.45563-.02669-15.07265 7.15415-1.48041c8.43121-.02561 23.64239-.04133 27.68595-.02166 4.19538,2.25368 4.19975,15.75554-.0145,17.93534z" fill="url(#linearGradient6775)" stroke="#2e3436" stroke-linecap="round" stroke-linejoin="round" stroke-width=".99527"/>
<path d="m32.13797,24.37968c-9.3176,5.42456-7.02968,7.10843-14.99529,7.12636l-6.69128-1.43874-.0254-13.15374 6.8079-1.393c8.02314-.02235 23.15435-.03607 27.00221-.0189 .83498.87977 1.47962,2.25589 1.89221,3.85888 1.03107,4.00599-4.72437-.37538-13.99035,5.01912z" fill="url(#linearGradient6767)" opacity=".352"/>
<path d="m21.47453,32.45848c-4.27286.008 4.29451.04017-4.52375.06073l-6.5586-1.45598-.02812-15.07632 6.6877-1.48077c8.88196-.02562.1783-.007 4.43804.01265l-.01527,17.9397z" fill="#2e3436" stroke="#2e3436" stroke-linecap="round" stroke-linejoin="round" stroke-width=".96158"/>
<path d="m2.96115,10.40736 8.93262.0358 15.20191-.96449 15.92377.03916c1.81168.01528 1.85754.48681 1.8698,1.42227s.04516,1.62518-1.89296,1.55694l-15.95163-.03548-15.11595-.98854c-5.60796-.02247-7.55575.00055-8.93262-.03579-.61847-.29654-.6146-.75298-.03494-1.02985z" fill-rule="evenodd" stroke="#000" stroke-linejoin="round" stroke-width="1.00197"/>
<path d="m5.60158,10.41603c-.57311-.0386-.88067.52465-.00224.55859 6.74545.03385 38.83857.03298 38.83857.03298 .0011-.27297.0018-.43807.0028-.71104-.20348-.47805-.43813-.30981-1.21277-.32661-2.03764-.04419-16.19206-.03808-16.19206-.03808l-11.86822.55094c0,0-5.5017-.11678-9.56609-.06679z" fill="url(#linearGradient6822)" fill-rule="evenodd" opacity=".5"/>
<path d="m12.92936,21.96426h7.14128v3.10652h-7.14128z" fill="#fff" fill-rule="evenodd" opacity=".143" stroke="#fff" stroke-linejoin="round" stroke-width="1.85872"/>
<path d="m12.94866,26.05808c0,0 1.44174-.69839 2.31715-1.97294s1.1845-3.12526 1.1845-3.12526 .34068,1.88776 1.24196,3.16249 2.36314,1.93643 2.36314,1.93643l-7.10675-.00071z" fill="#eeeeec" fill-rule="evenodd" opacity=".324"/>
<path d="m43.49284,15.38499v16.12217" fill="none" opacity=".201" stroke="#000" stroke-linecap="round" stroke-width=".98569"/>
<path d="m42.49284,15.38499v16.12217" fill="none" opacity=".119" stroke="#eeeeec" stroke-linecap="round" stroke-width=".98569"/>
<path d="m44.22232,31.42313-27.07963.08292-6.69128-1.43874-.0254-13.15374 6.8079-1.393c8.02314-.02235 23.15435-.03607 27.00221-.0189 2.92164,3.07837 3.51295,12.23386-.0138,15.92145z" fill="none" opacity=".291" stroke="url(#linearGradient6789)" stroke-linecap="round" stroke-linejoin="round" stroke-width=".9879"/>
<path d="m44.42077,22.42076h2.15847v2.10673h-2.15847z" fill="#ef2929" fill-rule="evenodd" opacity=".537" stroke="#a40000" stroke-linejoin="round" stroke-width=".84153"/>
<path d="m-14.98283,8.33547h4.93441v-.88773h-3.74693v-7.44774h-1.18749v8.33547" fill="#eeeeec" transform="matrix(.375353,0,0,.355251,31.623855,21.001952)"/>
<path d="m-8.59844,9.3697h1.03885v-7.36364h-1.03885v7.36364m2.92416,0h.89627v-5.68314l3.70728,5.68314h1.02867v-7.36364h-.89627v5.68314l-3.70728-5.68314h-1.02867v7.36364m7.51928,0h.97774v-3.72765l3.21841,3.72765h1.32403l-3.39155-3.84987 2.88231-3.51377h-1.04904l-2.98416,3.6258v-3.6258h-.97774v7.36364m6.19588-.14259c.77405.21728 1.40551.32591 1.89438.32591 .71294-2e-07 1.30705-.16975 1.78235-.50924 .5364-.39381.8046-.93021.8046-1.6092-5e-06-.50924-.17654-.95058-.52961-1.32403-.22407-.25122-.61788-.53979-1.18144-.86571l-.52961-.29536c-.38024-.21048-.64504-.38362-.79442-.51943-.2716-.25122-.4074-.51942-.40739-.8046 0-.32591.1324-.58053.39721-.76386 .23085-.16974.51263-.25461.84534-.25462 .38702,6.8e-06 .96756.15278 1.74161.45832v-.95737c-.31913-.09505-.62807-.16635-.92682-.21388-.29197-.04752-.58054-.07129-.86571-.07129-.61109,1e-05-1.12373.17315-1.53791.51943-.43455.35308-.65183.83177-.65183,1.43606-6e-07,.46851.17993.89288.5398,1.2731 .24443.25802.63485.5398 1.17126.84534l.50924.29536c.37344.21728.63825.40061.79442.54998 .23764.23765.35647.52282.35647.85553-4e-06,.37345-.1392.66881-.41758.88608-.25123.19012-.56696.28518-.94719.28518-.55677,6e-07-1.23916-.19012-2.04715-.57035v1.02867m5.9384.14259h1.03885v-7.36364h-1.03885v7.36364m2.05845,0h.98793l1.93512-2.92305 1.87401,2.92305h1.23237l-2.41381-3.80913 2.3527-3.55451h-.98793l-1.86382,2.78046-1.76198-2.78046h-1.23237l2.32214,3.66654-2.44436,3.6971" fill="#eeeeec" transform="matrix(.424891,0,0,.313832,31.623855,21.001952)"/>
<path d="m27.55158,26.96359h.43084c.08765,0 .15777-.0074.21036-.02225 .07012-.02023.12743-.05866.17193-.11529 .05259-.06608.07888-.14226.07889-.22857-2e-06-.19013-.12001-.32161-.36004-.39443 .20092-.07686.30138-.20294.30138-.37824-1e-06-.21575-.15103-.32363-.45309-.32363h-.38027v1.46242m.20632-.15575v-.53197h.05866c.10653,1e-06 .19687.0236.27104.0708 .09035.05664.13552.13417.13552.23261s-.04248.16384-.12743.20025c-.0418.01888-.14024.02832-.29531.02832h-.04248m0-.66345v-.48747h.08091c.2225,2e-06 .33375.07147.33375.21441-1e-06,.09439-.03573.16519-.1072.21238-.06068.04046-.14092.06068-.2407.06068h-.06675m.96123.8192h.19418v-1.55951h-.19418v1.55951m1.25622,0h.19418v-1.07203h-.19418v.69379c-.10383.15642-.21576.23463-.33577.23463-.06338,0-.10586-.02292-.12743-.06877-.01618-.03236-.02427-.0836-.02427-.15373v-.70592h-.1962v.77065c0,.09844.0263.17665.07889.23463 .05664.06068.13282.09102.22857.09102 .14833,0 .27374-.07551.37622-.22654v.20227m1.37158-.03439v-.15373c-.11867.04315-.21845.06473-.29936.06473-.22115,0-.34588-.12743-.3742-.38229h.67761v-.06068c.004-.16451-.03102-.29531-.10518-.39241-.07012-.09169-.17058-.13754-.30138-.13754-.14698,2e-06-.26363.05664-.34993.16991-.07956.10653-.11934.23463-.11934.38431 0,.16317.04787.29801.14361.40454s.23059.16182.3924.16182c.09035,0 .20227-.01955.33577-.05866m-.66345-.61692c.01618-.19957.09911-.29936.24879-.29936s.22452.09979.22452.29936h-.47331m1.48191.65131v-.1335c-.03911.0081-.07079.01214-.09507.01214-.12136,0-.18204-.07012-.18204-.21036v-.59467h.28115v-.14563h-.28115v-.21441l-.19418.02023v.19418h-.1335v.14563h.1335v.63108c0,.09844.02764.17665.08293.23463 .05394.05664.1308.08495.23059.08495 .0445,0 .09709-.0081.15777-.02427m.6959.02427c.16586,0 .29531-.05259.38836-.15777 .0863-.09844.12945-.23328.12945-.40454s-.04315-.30003-.12945-.39847c-.09035-.10653-.21778-.15979-.38229-.15979s-.29194.05327-.38229.15979c-.0863.10248-.12945.23598-.12945.40049s.04248.29599.12743.39847c.0917.10788.21778.16182.37824.16182m.002-.14563c-.10653,0-.18609-.0445-.23868-.1335-.04045-.07282-.06068-.16654-.06068-.28116 0-.27643.10114-.41465.30341-.41465s.30543.13755.30543.41263-.10316.41668-.30947.41668m1.23846.14563c.16586,0 .29531-.05259.38836-.15777 .0863-.09844.12945-.23328.12945-.40454s-.04315-.30003-.12945-.39847c-.09035-.10653-.21778-.15979-.38229-.15979s-.29194.05327-.38229.15979c-.0863.10248-.12945.23598-.12945.40049s.04248.29599.12743.39847c.0917.10788.21778.16182.37825.16182m.002-.14563c-.10653,0-.18609-.0445-.23868-.1335-.04045-.07282-.06068-.16654-.06068-.28116 0-.27643.10114-.41465.30341-.41465s.30543.13755.30543.41263-.10316.41668-.30947.41668m1.29712.12136v-.1335c-.03911.0081-.0708.01214-.09507.01214-.12136,0-.18204-.07012-.18204-.21036v-.59467h.28116v-.14563h-.28116v-.21441l-.19418.02023v.19418h-.1335v.14563h.1335v.63108c0,.09844.02764.17665.08293.23463 .05394.05664.1308.08495.23059.08495 .0445,0 .09709-.0081.15777-.02427m.27518,0h.19418v-.69379c.10518-.15642.21778-.23463.33779-.23463 .06203,1e-06 .10383.02293.12541.06877 .01753.03506.0263.08563.0263.1517v.70795h.19418v-.77065c-1e-06-.09574-.0263-.17395-.07888-.23463-.05664-.06068-.13215-.09102-.22654-.09102-.14968,2e-06-.27576.07484-.37825.22452v-.68772h-.19418v1.55951m1.87808-1.46242v.92033c-1e-06,.18879.04113.33172.12338.42881 .08765.09979.22519.14968.41263.14968 .14428,0 .25823-.03236.34184-.09709 .07147-.05798.11934-.12878.14361-.21238 .01888-.06473.02832-.15238.02832-.26295v-.9264h-.18204v.93044c-1e-06,.13754-.01888.23598-.05663.29531-.04855.07821-.1362.11732-.26295.11732s-.21845-.0391-.27104-.11732c-.04585-.06607-.06877-.16721-.06877-.3034v-.92235h-.20834m1.3256,1.4341c.15375.04314.27915.06471.37624.06471 .14159,0 .25958-.03371.35397-.10114 .10653-.07821.15979-.18474.15979-.31959-1e-06-.10114-.03506-.18879-.10518-.26295-.0445-.04989-.12271-.1072-.23463-.17193l-.10518-.05866c-.07552-.0418-.1281-.07619-.15777-.10316-.05394-.04989-.08091-.10316-.08091-.15979s.02629-.11529.07888-.1517c.04585-.03371.10181-.05057.16789-.05057 .07686,1e-06 .19216.03034.34588.09102v-.19013c-.06338-.01888-.12473-.03304-.18407-.04248s-.11529-.01416-.17193-.01416c-.12136,1e-06-.22317.03439-.30543.10316-.0863.07012-.12945.16519-.12945.2852 0,.09305.03573.17732.1072.25284 .04854.05124.12608.1072.23261.16789l.10114.05866c.07417.04315.12676.07956.15777.10923 .0472.0472.07079.10383.07079.16991s-.02764.13282-.08293.17597c-.04989.03776-.1126.05664-.18811.05664-.11057,0-.2461-.03776-.40656-.11327v.20429m1.17936.02832h.43084c.08765,0 .15777-.0074.21036-.02225 .07012-.02023.12743-.05866.17193-.11529 .05259-.06608.07888-.14226.07889-.22857-2e-06-.19013-.12001-.32161-.36004-.39443 .20092-.07686.30138-.20294.30138-.37824-1e-06-.21575-.15103-.32363-.45309-.32363h-.38027v1.46242m.20632-.15575v-.53197h.05866c.10653,1e-06 .19687.0236.27104.0708 .09035.05664.13552.13417.13552.23261s-.04248.16384-.12743.20025c-.0418.01888-.14024.02832-.29531.02832h-.04248m0-.66345v-.48747h.08091c.2225,2e-06 .33375.07147.33375.21441 0,.09439-.03573.16519-.1072.21238-.06068.04046-.14092.06068-.2407.06068h-.06675"/>
<path d="m39.68838,12.69681h1.60638v2.60638h-1.60638z" fill-rule="evenodd" stroke="#000" stroke-linejoin="round" stroke-width="1.39362"/>
<path d="m40.56663,15.40442-.71104.00053c-.47806-.03818-.30981-.0822-.32661-.22752-.04513-1.31351 1.03467-4.27812 1.03765.22698z" fill="url(#linearGradient6827)" fill-rule="evenodd" opacity=".5"/>
</g>
</svg>
