<svg viewBox="0 0 48 48" xmlns="http://www.w3.org/2000/svg" xmlns:xlink="http://www.w3.org/1999/xlink">
<defs>
<linearGradient id="linearGradient5225">
<stop offset="0"/>
<stop offset="1" stop-opacity="0"/>
</linearGradient>
<linearGradient gradientUnits="userSpaceOnUse" id="linearGradient2452" x2="0" y1="4.9834" y2="26.7622">
<stop offset="0" stop-color="#fff"/>
<stop offset="1" stop-color="#fff" stop-opacity="0"/>
</linearGradient>
<linearGradient gradientTransform="matrix(1.00077,0,0,.90784,-1.8481e-2,3.29853)" gradientUnits="userSpaceOnUse" id="linearGradient2458" x1="1.1885" x2="49.1116" y1=".003" y2="38.876">
<stop offset="0" stop-color="#eeeeec"/>
<stop offset="1" stop-color="#d3d3ce"/>
</linearGradient>
<linearGradient gradientUnits="userSpaceOnUse" id="linearGradient2465" x1="28.8111" x2="28.8854" y1="38.3584" y2="42.1368">
<stop offset="0" stop-color="#eeeeec"/>
<stop offset="1" stop-color="#e6e6e3"/>
</linearGradient>
<linearGradient gradientUnits="userSpaceOnUse" id="linearGradient2461" x1="23.4593" x2="23.5463" xlink:href="#linearGradient5225" y1="35.7894" y2="39.4998"/>
<radialGradient cx="24.0061" cy="32.997" gradientTransform="matrix(1.30474,0,0,.64448,-7.30995,-31.99149)" gradientUnits="userSpaceOnUse" id="radialGradient2455" r="19.0002">
<stop offset="0" stop-color="#729fcf"/>
<stop offset="1" stop-color="#326194"/>
</radialGradient>
<radialGradient cx="23.9375" cy="42.6875" gradientTransform="matrix(1,0,0,.24763,0,32.1168)" gradientUnits="userSpaceOnUse" id="radialGradient2422" r="23.7596" xlink:href="#linearGradient5225"/>
</defs>
<path d="m4.4788,4.5671 38.999.0446c1.1168-.0459 1.9866.9756 1.9866,1.9168l-.0901,26.946c0,.94-.8387,2.0279-1.9418,2.0279l-38.9897-.0886c-1.1802-.0261-1.9466-.547-1.9624-1.9311l.0152-27.0126c-.0505-.8308.8532-1.9029 1.9833-1.9029z" fill="url(#linearGradient2458)" fill-rule="evenodd" stroke="#888a85"/>
<path d="m47.6971,42.6875a23.7596,5.8836 0 1,1 -47.5191,0 23.7596,5.8836 0 1,1 47.5191,0z" fill="url(#radialGradient2422)" fill-rule="evenodd" opacity=".298" transform="matrix(.96825,0,0,.56361,.81756,18.2569)"/>
<path d="m17.8437,35.4356c0,0 .7684,4.5808-2.4352,4.6101-1.5347.0138-1.2203,2.5481-1.2203,2.5481l19.4788-.0198c0,0 .2642-2.4598-1.277-2.4887-3.1495-.0582-2.4063-4.6893-2.4063-4.6893l-12.1401.0396z" fill="url(#linearGradient2465)" fill-rule="evenodd" stroke="#888a85"/>
<path d="m17.4298,35.7993c.0541,1.3719-.0798,3.1012-.9531,3.5835l15.1182.6172c-.6138-.738-1.4548-2.913-1.2113-4.2106l-12.9537.0099z" fill="url(#linearGradient2461)" fill-rule="evenodd" opacity=".6"/>
<path d="m4.4788,4.5671 38.999.0446c1.1168-.0459 1.9866.9756 1.9866,1.9168l-.0901,26.946c0,.94-.8387,2.0279-1.9418,2.0279l-38.9897-.0886c-1.1802-.0261-1.9466-.547-1.9624-1.9311l.0152-27.0126c-.0505-.8308.8532-1.9029 1.9833-1.9029z" fill="url(#linearGradient2458)" fill-rule="evenodd" stroke="#888a85"/>
<path d="m5.4879-27.564h37.0761v20.064h-37.0761z" fill="url(#radialGradient2455)" fill-rule="evenodd" stroke="#204a87" transform="scale(1,-1)"/>
<path d="m15.0757,40.6657h17.553" fill="none" stroke="#8d8d8f" stroke-linecap="round" stroke-opacity=".439" stroke-width=".6315"/>
<path d="m15.037,41.3021h17.7073" fill="none" stroke="#fff" stroke-linecap="round" stroke-width=".6315"/>
<path d="m23.6152,5.7143h.7143v.7143h-.7143z" fill="#babdb6" fill-rule="evenodd" opacity=".666" stroke="#888a85" stroke-linejoin="round" stroke-opacity=".646"/>
<path d="m6,8h36.0714v1.0714h-36.0714z" fill="#eeeeec" fill-rule="evenodd" opacity=".836"/>
<path d="m6,8.0326v18.7296c17.4078-1.4085 21.9499-10.5177 36.1031-11.4694v-7.2928l-36.1031.0326z" fill="url(#linearGradient2452)" fill-rule="evenodd" opacity=".75"/>
<path d="m15.0616,25h17.9286v2.0714h-17.9286z" fill="#eeeeec" fill-rule="evenodd" opacity=".459"/>
<g transform="matrix(1.32084,0,0,1.32084,35.18641,-8.27152)">
<path d="m-8.5,29.0312c-.2587,0-.5062.0734-.7188.1875 .2744.1413.4688.4233.4688.75 0,.4675-.3706.875-.8438.875-.1339,0-.2621-.0708-.375-.125 .0999.7226.7102,1.2813 1.4688,1.2812 .828,0 1.5-.6506 1.5-1.4688s-.672-1.5-1.5-1.5z" fill="#babdb6" fill-rule="evenodd"/>
<path d="m-8.4636,28.866c-.0221-.0576.0037-.2183.0577-.3599 .0951-.2492.3532-.4875.6188-.5712 .1154-.0364.1302-.0367.1633-.0036s.0326.0549.0095.1659c-.0781.3762-.4008.7119-.7596.7901-.0584.0127-.0786.008-.0898-.0213z" fill="#babdb6"/>
</g>
</svg>
