<svg viewBox="0 0 48 45.031246" xmlns="http://www.w3.org/2000/svg">
<defs>
<linearGradient gradientUnits="userSpaceOnUse" id="linearGradient2960" x2="0" y1="3.51439" y2="21.49703">
<stop offset="0" stop-color="#fff"/>
<stop offset="1" stop-color="#fff" stop-opacity="0"/>
</linearGradient>
<linearGradient gradientTransform="matrix(.899989,0,0,1.029683,2.083674,1.028038)" gradientUnits="userSpaceOnUse" id="linearGradient3632" x1="23.13323" x2="23.20853" y1=".91344" y2="35.90615">
<stop offset="0" stop-color="#eeeeec"/>
<stop offset="1" stop-color="#d3d3ce"/>
</linearGradient>
<linearGradient gradientUnits="userSpaceOnUse" id="linearGradient3642" x1="29.12217" x2="29.12783" y1="37.5" y2="24.64062">
<stop offset="0" stop-color="#babdb6"/>
<stop offset="1" stop-color="#babdb6" stop-opacity="0"/>
</linearGradient>
<linearGradient gradientUnits="userSpaceOnUse" id="linearGradient3683" x2="0" y1="37.01207" y2="41.60601">
<stop offset="0"/>
<stop offset="1" stop-color="#2e3436"/>
</linearGradient>
<linearGradient gradientTransform="matrix(1,0,0,1.132922,.0625,-4.852542)" gradientUnits="userSpaceOnUse" id="linearGradient3687" x1="42.75" x2="5" y1="37" y2="43.125">
<stop offset="0" stop-color="#babdb6"/>
<stop offset="1" stop-color="#eeeeec"/>
</linearGradient>
<linearGradient gradientTransform="matrix(1,0,0,1.132922,.0625,-4.852542)" gradientUnits="userSpaceOnUse" id="linearGradient3689" x1="7.99872" x2="7.5" y1="35.03901" y2="45">
<stop offset="0" stop-color="#babdb6"/>
<stop offset="1" stop-color="#888a85"/>
</linearGradient>
<linearGradient gradientUnits="userSpaceOnUse" id="linearGradient3441" x2="0" y1="1.89062" y2="36.64062">
<stop offset="0" stop-color="#3465a4" stop-opacity="0"/>
<stop offset=".46" stop-color="#3465a4"/>
<stop offset="1" stop-color="#3465a4" stop-opacity="0"/>
</linearGradient>
<radialGradient cx="24.0061" cy="32.99703" gradientTransform="matrix(1.052102,0,0,.671058,-1.745305,-31.037336)" gradientUnits="userSpaceOnUse" id="radialGradient2980" r="19.00016">
<stop offset="0" stop-color="#729fcf"/>
<stop offset="1" stop-color="#326194"/>
</radialGradient>
<radialGradient cx="23.49999" cy="26" gradientTransform="matrix(1.620985,5.750583e-7,-7.015418e-8,.197752,-14.59314,35.92447)" gradientUnits="userSpaceOnUse" id="radialGradient3666" r="19.5">
<stop offset="0" stop-color="#707370"/>
<stop offset="1" stop-color="#242524"/>
</radialGradient>
</defs>
<g transform="translate(-.0625,-1.03125)">
<path d="m23.5625,1.53125c-14.67025.00565-17.97238.40444-18.84375,5.59375-.44041,2.62279-.70622,2.62132-1.0625,12.5625s.15025,17.78125 3.625,17.78125l16.28125.03125 16.28125-.03125c3.47475-3e-06 3.98135-7.83808 3.625-17.78125s-.62209-9.93971-1.0625-12.5625c-.87137-5.18931-4.1735-5.5881-18.84375-5.59375z" fill="url(#linearGradient3632)" fill-rule="evenodd" stroke="#888a85"/>
<path d="m23.5625,1.53125c-14.67025.00565-17.97238.40444-18.84375,5.59375-.44041,2.62279-.70622,2.62132-1.0625,12.5625s.15025,17.78125 3.625,17.78125l16.28125.03125 16.28125-.03125c3.47475-3e-06 3.98135-7.83808 3.625-17.78125s-.62209-9.93971-1.0625-12.5625c-.87137-5.18931-4.1735-5.5881-18.84375-5.59375z" fill="url(#linearGradient3642)" fill-rule="evenodd"/>
<path d="m9.19693-26.42725h28.65203a.62249,.62249 0 0,1 .62249.62249v19.64637a.62249,.62249 0 0,1 -.62249.62249h-28.65203a.62249,.62249 0 0,1 -.62249-.62249v-19.64637a.62249,.62249 0 0,1 .62249-.62249" fill="url(#radialGradient2980)" fill-rule="evenodd" stroke="#204a87" transform="scale(1,-1)"/>
<path d="m9.19302,6.05546h28.76813v1.07143h-28.76813z" fill="#eeeeec" fill-rule="evenodd" opacity=".836"/>
<path d="m9.19638,6.03215v15.46488c13.87052-1.16301 17.48964-8.6844 28.76688-9.47022v-6.0216l-28.76688.02694z" fill="url(#linearGradient2960)" fill-rule="evenodd" opacity=".75"/>
<path d="m15,24.07404h17v1.76887h-17z" fill="#eeeeec" fill-rule="evenodd" opacity=".459"/>
<path d="m8.45576,31.56819h4.11165a1.96192,1.96192 0 0,1 1.96192,1.96192v.125a1.96192,1.96192 0 0,1 -1.96192,1.96192h-4.11165a1.96192,1.96192 0 0,1 -1.96192-1.96192v-.125a1.96192,1.96192 0 0,1 1.96192-1.96192" fill="#729fcf" fill-rule="evenodd" stroke="#204a87" stroke-linecap="round" stroke-linejoin="round"/>
<path d="m34.40529,31.59183h4.18259a1.86395,1.86395 0 0,1 1.86395,1.86395v.125a1.86395,1.86395 0 0,1 -1.86395,1.86395h-4.18259a1.86395,1.86395 0 0,1 -1.86395-1.86395v-.125a1.86395,1.86395 0 0,1 1.86395-1.86395" fill="#729fcf" fill-rule="evenodd" stroke="#204a87" stroke-linecap="round" stroke-linejoin="round"/>
<path d="m17.84796,32.48031h11.41395a.32062,.32062 0 0,1 .32062.32062v1.34011a.32062,.32062 0 0,1 -.32062.32062h-11.41395a.32062,.32062 0 0,1 -.32062-.32062v-1.34011a.32062,.32062 0 0,1 .32062-.32062" fill="none" stroke="#888a85" stroke-linecap="round" stroke-linejoin="round"/>
<path d="m5.5,30.49308 36,.06091h-.10651" fill="none" opacity=".152" stroke="#000" stroke-linecap="round" stroke-linejoin="round"/>
<path d="m23.49464,2.54013c-13.85039.00534-16.96797.38216-17.79064,5.28565-.4158,2.47833-.66676,2.47694-1.00312,11.87056-.33643,9.3955-.35898,16.80186 2.92159,16.80186l15.87218.02953 15.80957-.02953c3.28056-3e-06 3.32062-7.40636 2.98419-16.80186-.33637-9.39362-.58732-9.39223-1.00312-11.87056-.82267-4.90349-3.94025-5.28031-17.79064-5.28565z" fill="none" stroke="#eeeeec"/>
<path d="m23.5625,1.53125c-14.67025.00565-17.97238.40444-18.84375,5.59375-.44041,2.62279-.70622,2.62132-1.0625,12.5625s.15025,17.78125 3.625,17.78125l16.28125.03125 16.28125-.03125c3.47475-3e-06 3.98135-7.83808 3.625-17.78125s-.62209-9.93971-1.0625-12.5625c-.87137-5.18931-4.1735-5.5881-18.84375-5.59375z" fill="none" stroke="url(#linearGradient3441)"/>
<path d="m3.5625,37.63204h40.5l3.5,7.93046h-47l3-7.93046z" fill="url(#linearGradient3687)" stroke="url(#linearGradient3689)" stroke-linecap="round" stroke-linejoin="round"/>
<path d="m4.25,38.72853h39.3125l2,4.8h-43l1.6875-4.8z" fill="none" opacity=".7" stroke="#fff" stroke-linecap="round"/>
<path d="m5.27656,37.63775h30.35469l.05625,4.97291h-31.625l1.21406-4.97291z" fill="url(#linearGradient3683)" stroke="#000" stroke-linecap="round"/>
<path d="m37.625,37.63775h4.3125l2,4.97291h-6.375l.0625-4.97291z" fill="url(#linearGradient3683)" stroke="#000" stroke-linecap="round"/>
<path d="m4.1875,42.06603h.625c.10387,0 .1875.08363.1875.1875v.625c0,.10387-.08363.1875-.1875.1875h-.625c-.10388,0-.1875-.08362-.1875-.1875v-.625c0-.10387.08363-.1875.1875-.1875zm2,0h.625c.10387,0 .1875.08363.1875.1875v.625c0,.10387-.08363.1875-.1875.1875h-.625c-.10388,0-.1875-.08362-.1875-.1875v-.625c0-.10387.08363-.1875.1875-.1875zm-1-1h.625c.10387,0 .1875.08363.1875.1875v.625c0,.10387-.08363.1875-.1875.1875h-.625c-.10388,0-.1875-.08362-.1875-.1875v-.625c0-.10387.08363-.1875.1875-.1875zm27,1h.625c.10387,0 .1875.08363.1875.1875v.625c0,.10387-.08362.1875-.1875.1875h-.625c-.10388,0-.1875-.08362-.1875-.1875v-.625c0-.10387.08362-.1875.1875-.1875zm2,0h.625c.10387,0 .1875.08363.1875.1875v.625c0,.10387-.08362.1875-.1875.1875h-.625c-.10388,0-.1875-.08362-.1875-.1875v-.625c0-.10387.08362-.1875.1875-.1875zm6,0h.625c.10387,0 .1875.08363.1875.1875v.625c0,.10387-.08362.1875-.1875.1875h-.625c-.10388,0-.1875-.08362-.1875-.1875v-.625c0-.10387.08362-.1875.1875-.1875zm2,0h.625c.10387,0 .1875.08363.1875.1875v.625c0,.10387-.08362.1875-.1875.1875h-.625c-.10388,0-.1875-.08362-.1875-.1875v-.625c0-.10387.08362-.1875.1875-.1875zm-3-1h.625c.10387,0 .1875.08363.1875.1875v.625c0,.10387-.08362.1875-.1875.1875h-.625c-.10388,0-.1875-.08362-.1875-.1875v-.625c0-.10387.08362-.1875.1875-.1875zm2,0h.625c.10387,0 .1875.08363.1875.1875v.625c0,.10387-.08362.1875-.1875.1875h-.625c-.10388,0-.1875-.08362-.1875-.1875v-.625c0-.10387.08362-.1875.1875-.1875zm-10,0h.625c.10387,0 .1875.08363.1875.1875v.625c0,.10387-.08363.1875-.1875.1875h-.625c-.10387,0-.1875-.08362-.1875-.1875v-.625c0-.10387.08363-.1875.1875-.1875zm2,0h.625c.10387,0 .1875.08363.1875.1875v.625c0,.10387-.08362.1875-.1875.1875h-.625c-.10388,0-.1875-.08362-.1875-.1875v-.625c0-.10387.08362-.1875.1875-.1875zm-6,0h.625c.10387,0 .1875.08363.1875.1875v.625c0,.10387-.08363.1875-.1875.1875h-.625c-.10387,0-.1875-.08362-.1875-.1875v-.625c0-.10387.08363-.1875.1875-.1875zm2,0h.625c.10387,0 .1875.08363.1875.1875v.625c0,.10387-.08363.1875-.1875.1875h-.625c-.10387,0-.1875-.08362-.1875-.1875v-.625c0-.10387.08363-.1875.1875-.1875zm-6,0h.625c.10387,0 .1875.08363.1875.1875v.625c0,.10387-.08363.1875-.1875.1875h-.625c-.10387,0-.1875-.08362-.1875-.1875v-.625c0-.10387.08363-.1875.1875-.1875zm2,0h.625c.10387,0 .1875.08363.1875.1875v.625c0,.10387-.08363.1875-.1875.1875h-.625c-.10387,0-.1875-.08362-.1875-.1875v-.625c0-.10387.08363-.1875.1875-.1875zm-6,0h.625c.10387,0 .1875.08363.1875.1875v.625c0,.10387-.08363.1875-.1875.1875h-.625c-.10387,0-.1875-.08362-.1875-.1875v-.625c0-.10387.08363-.1875.1875-.1875zm2,0h.625c.10387,0 .1875.08363.1875.1875v.625c0,.10387-.08363.1875-.1875.1875h-.625c-.10387,0-.1875-.08362-.1875-.1875v-.625c0-.10387.08363-.1875.1875-.1875zm-6,0h.625c.10387,0 .1875.08363.1875.1875v.625c0,.10387-.08362.1875-.1875.1875h-.625c-.10388,0-.1875-.08362-.1875-.1875v-.625c0-.10387.08362-.1875.1875-.1875zm2,0h.625c.10387,0 .1875.08363.1875.1875v.625c0,.10387-.08363.1875-.1875.1875h-.625c-.10387,0-.1875-.08362-.1875-.1875v-.625c0-.10387.08363-.1875.1875-.1875zm-6,0h.625c.10387,0 .1875.08363.1875.1875v.625c0,.10387-.08362.1875-.1875.1875h-.625c-.10388,0-.1875-.08362-.1875-.1875v-.625c0-.10387.08362-.1875.1875-.1875zm2,0h.625c.10387,0 .1875.08363.1875.1875v.625c0,.10387-.08362.1875-.1875.1875h-.625c-.10388,0-.1875-.08362-.1875-.1875v-.625c0-.10387.08362-.1875.1875-.1875zm-6,0h.625c.10387,0 .1875.08363.1875.1875v.625c0,.10387-.08363.1875-.1875.1875h-.625c-.10388,0-.1875-.08362-.1875-.1875v-.625c0-.10387.08363-.1875.1875-.1875zm2,0h.625c.10387,0 .1875.08363.1875.1875v.625c0,.10387-.08363.1875-.1875.1875h-.625c-.10388,0-.1875-.08362-.1875-.1875v-.625c0-.10387.08363-.1875.1875-.1875zm-3-1h.625c.10387,0 .1875.08363.1875.1875v.625c0,.10387-.08363.1875-.1875.1875h-.625c-.10388,0-.1875-.08362-.1875-.1875v-.625c0-.10387.08363-.1875.1875-.1875zm-1-1h.625c.10387,0 .1875.08363.1875.1875v.625c0,.10387-.08363.1875-.1875.1875h-.625c-.10388,0-.1875-.08362-.1875-.1875v-.625c0-.10387.08363-.1875.1875-.1875zm3,1h.625c.10387,0 .1875.08363.1875.1875v.625c0,.10387-.08363.1875-.1875.1875h-.625c-.10388,0-.1875-.08362-.1875-.1875v-.625c0-.10387.08363-.1875.1875-.1875zm2,0h.625c.10387,0 .1875.08363.1875.1875v.625c0,.10387-.08362.1875-.1875.1875h-.625c-.10388,0-.1875-.08362-.1875-.1875v-.625c0-.10387.08362-.1875.1875-.1875zm2,0h.625c.10387,0 .1875.08363.1875.1875v.625c0,.10387-.08362.1875-.1875.1875h-.625c-.10388,0-.1875-.08362-.1875-.1875v-.625c0-.10387.08362-.1875.1875-.1875zm2,0h.625c.10387,0 .1875.08363.1875.1875v.625c0,.10387-.08362.1875-.1875.1875h-.625c-.10388,0-.1875-.08362-.1875-.1875v-.625c0-.10387.08362-.1875.1875-.1875zm2,0h.625c.10387,0 .1875.08363.1875.1875v.625c0,.10387-.08363.1875-.1875.1875h-.625c-.10387,0-.1875-.08362-.1875-.1875v-.625c0-.10387.08363-.1875.1875-.1875zm2,0h.625c.10387,0 .1875.08363.1875.1875v.625c0,.10387-.08363.1875-.1875.1875h-.625c-.10387,0-.1875-.08362-.1875-.1875v-.625c0-.10387.08363-.1875.1875-.1875zm2,0h.625c.10387,0 .1875.08363.1875.1875v.625c0,.10387-.08363.1875-.1875.1875h-.625c-.10387,0-.1875-.08362-.1875-.1875v-.625c0-.10387.08363-.1875.1875-.1875zm2,0h.625c.10387,0 .1875.08363.1875.1875v.625c0,.10387-.08363.1875-.1875.1875h-.625c-.10387,0-.1875-.08362-.1875-.1875v-.625c0-.10387.08363-.1875.1875-.1875zm2,0h.625c.10387,0 .1875.08363.1875.1875v.625c0,.10387-.08363.1875-.1875.1875h-.625c-.10387,0-.1875-.08362-.1875-.1875v-.625c0-.10387.08363-.1875.1875-.1875zm2,0h.625c.10387,0 .1875.08363.1875.1875v.625c0,.10387-.08363.1875-.1875.1875h-.625c-.10387,0-.1875-.08362-.1875-.1875v-.625c0-.10387.08363-.1875.1875-.1875zm2,0h.625c.10387,0 .1875.08363.1875.1875v.625c0,.10387-.08363.1875-.1875.1875h-.625c-.10387,0-.1875-.08362-.1875-.1875v-.625c0-.10387.08363-.1875.1875-.1875zm2,0h.625c.10387,0 .1875.08363.1875.1875v.625c0,.10387-.08363.1875-.1875.1875h-.625c-.10387,0-.1875-.08362-.1875-.1875v-.625c0-.10387.08363-.1875.1875-.1875zm2,0h.625c.10387,0 .1875.08363.1875.1875v.625c0,.10387-.08362.1875-.1875.1875h-.625c-.10388,0-.1875-.08362-.1875-.1875v-.625c0-.10387.08362-.1875.1875-.1875zm8,0h.625c.10387,0 .1875.08363.1875.1875v.625c0,.10387-.08362.1875-.1875.1875h-.625c-.10388,0-.1875-.08362-.1875-.1875v-.625c0-.10387.08362-.1875.1875-.1875zm2,0h.625c.10387,0 .1875.08363.1875.1875v.625c0,.10387-.08362.1875-.1875.1875h-.625c-.10388,0-.1875-.08362-.1875-.1875v-.625c0-.10387.08362-.1875.1875-.1875zm-3-1h.625c.10387,0 .1875.08363.1875.1875v.625c0,.10387-.08362.1875-.1875.1875h-.625c-.10388,0-.1875-.08362-.1875-.1875v-.625c0-.10387.08362-.1875.1875-.1875zm2,0h.625c.10387,0 .1875.08363.1875.1875v.625c0,.10387-.08362.1875-.1875.1875h-.625c-.10388,0-.1875-.08362-.1875-.1875v-.625c0-.10387.08362-.1875.1875-.1875zm-10,0h.625c.10387,0 .1875.08363.1875.1875v.625c0,.10387-.08363.1875-.1875.1875h-.625c-.10387,0-.1875-.08362-.1875-.1875v-.625c0-.10387.08363-.1875.1875-.1875zm2,0h.625c.10387,0 .1875.08363.1875.1875v.625c0,.10387-.08362.1875-.1875.1875h-.625c-.10388,0-.1875-.08362-.1875-.1875v-.625c0-.10387.08362-.1875.1875-.1875zm-6,0h.625c.10387,0 .1875.08363.1875.1875v.625c0,.10387-.08363.1875-.1875.1875h-.625c-.10387,0-.1875-.08362-.1875-.1875v-.625c0-.10387.08363-.1875.1875-.1875zm2,0h.625c.10387,0 .1875.08363.1875.1875v.625c0,.10387-.08363.1875-.1875.1875h-.625c-.10387,0-.1875-.08362-.1875-.1875v-.625c0-.10387.08363-.1875.1875-.1875zm-6,0h.625c.10387,0 .1875.08363.1875.1875v.625c0,.10387-.08363.1875-.1875.1875h-.625c-.10387,0-.1875-.08362-.1875-.1875v-.625c0-.10387.08363-.1875.1875-.1875zm2,0h.625c.10387,0 .1875.08363.1875.1875v.625c0,.10387-.08363.1875-.1875.1875h-.625c-.10387,0-.1875-.08362-.1875-.1875v-.625c0-.10387.08363-.1875.1875-.1875zm-6,0h.625c.10387,0 .1875.08363.1875.1875v.625c0,.10387-.08363.1875-.1875.1875h-.625c-.10387,0-.1875-.08362-.1875-.1875v-.625c0-.10387.08363-.1875.1875-.1875zm2,0h.625c.10387,0 .1875.08363.1875.1875v.625c0,.10387-.08363.1875-.1875.1875h-.625c-.10387,0-.1875-.08362-.1875-.1875v-.625c0-.10387.08363-.1875.1875-.1875zm-6,0h.625c.10387,0 .1875.08363.1875.1875v.625c0,.10387-.08362.1875-.1875.1875h-.625c-.10388,0-.1875-.08362-.1875-.1875v-.625c0-.10387.08362-.1875.1875-.1875zm2,0h.625c.10387,0 .1875.08363.1875.1875v.625c0,.10387-.08363.1875-.1875.1875h-.625c-.10387,0-.1875-.08362-.1875-.1875v-.625c0-.10387.08363-.1875.1875-.1875zm-6,0h.625c.10387,0 .1875.08363.1875.1875v.625c0,.10387-.08362.1875-.1875.1875h-.625c-.10388,0-.1875-.08362-.1875-.1875v-.625c0-.10387.08362-.1875.1875-.1875zm2,0h.625c.10387,0 .1875.08363.1875.1875v.625c0,.10387-.08362.1875-.1875.1875h-.625c-.10388,0-.1875-.08362-.1875-.1875v-.625c0-.10387.08362-.1875.1875-.1875zm-6,0h.625c.10387,0 .1875.08363.1875.1875v.625c0,.10387-.08363.1875-.1875.1875h-.625c-.10388,0-.1875-.08362-.1875-.1875v-.625c0-.10387.08363-.1875.1875-.1875zm2,0h.625c.10387,0 .1875.08363.1875.1875v.625c0,.10387-.08363.1875-.1875.1875h-.625c-.10388,0-.1875-.08362-.1875-.1875v-.625c0-.10387.08363-.1875.1875-.1875zm29,1h.625c.10387,0 .1875.08363.1875.1875v.625c0,.10387-.08362.1875-.1875.1875h-.625c-.10388,0-.1875-.08362-.1875-.1875v-.625c0-.10387.08362-.1875.1875-.1875z" fill="url(#radialGradient3666)" fill-rule="evenodd"/>
<path d="m20.125,28h6.875v1h-6.875z" fill="#2e3436" fill-rule="evenodd" opacity=".734"/>
</g>
</svg>
