<svg viewBox="0 0 48 48" xmlns="http://www.w3.org/2000/svg" xmlns:xlink="http://www.w3.org/1999/xlink">
<defs>
<filter height="1.56414" id="filter3795" width="1.14797" x="-.07399" y="-.28207">
<feGaussianBlur stdDeviation=".897"/>
</filter>
<linearGradient id="linearGradient3691">
<stop offset="0" stop-color="#555753"/>
<stop offset="1" stop-color="#555753" stop-opacity="0"/>
</linearGradient>
<linearGradient gradientUnits="userSpaceOnUse" id="linearGradient4138" x1="3.66667" x2="10.30358" y1="13.66667" y2="20.30358">
<stop offset="0" stop-color="#eeeeec"/>
<stop offset="1" stop-color="#eeeeec" stop-opacity="0"/>
</linearGradient>
<linearGradient gradientUnits="userSpaceOnUse" id="linearGradient3732" x2="0" y1="15.52097" y2="69.08839">
<stop offset="0" stop-color="#d3d7cf"/>
<stop offset="1" stop-color="#eeeeec"/>
</linearGradient>
<linearGradient gradientUnits="userSpaceOnUse" id="linearGradient4765" x1="-32.88049" x2="-27.01933">
<stop offset="0" stop-color="#888a85"/>
<stop offset="1" stop-color="#888a85" stop-opacity="0"/>
</linearGradient>
<linearGradient gradientUnits="userSpaceOnUse" id="linearGradient4774" x1="22.6607" x2="21.9121" y1="45" y2="8.04394">
<stop offset="0" stop-color="#fff"/>
<stop offset="1" stop-color="#fff" stop-opacity="0"/>
</linearGradient>
<linearGradient gradientUnits="userSpaceOnUse" id="linearGradient4750" x2="0" xlink:href="#linearGradient3691" y1="-23.24276" y2="-23.80006"/>
<linearGradient gradientUnits="userSpaceOnUse" id="linearGradient4753" x2="0" xlink:href="#linearGradient3691" y1="22.30763" y2="20.80762"/>
<linearGradient gradientUnits="userSpaceOnUse" id="linearGradient4756" x2="0" xlink:href="#linearGradient3691" y1="17.81973" y2="17.18027"/>
<linearGradient gradientUnits="userSpaceOnUse" id="linearGradient4761" x2="0" xlink:href="#linearGradient3691" y1="14.1725" y2="12.8275"/>
</defs>
<path d="m39.01141,42.98936a14.55472,3.81763 0 1,1 -29.10944,0 14.55472,3.81763 0 1,1 29.10944,0z" fill="#2e3436" fill-opacity=".75" fill-rule="evenodd" filter="url(#filter3795)" opacity=".4" transform="matrix(.965255,0,0,1.04777,.442068,-2.042979)"/>
<path d="m29,31.5z" fill="#d3d3d3" fill-rule="evenodd" stroke="#bababa" transform="translate(-319.44822,-27.1391)"/>
<path d="m-81.5,3.5h11" fill="none" stroke="#fff" stroke-opacity=".162"/>
<path d="m18.15653.5c-.74406,0-1.39865.31426-1.875.81498l-4.21875,5.266c-.32763.58529-.53125,1.25318-.53125,1.97475v32.9148c0,2.24012 1.79793,4.04353 4.03125,4.04354h16.90597c2.23332,0 4.03125-1.80342 4.03125-4.04354v-32.9148c0-.72157-.20362-1.38946-.53125-1.97475l-4.21875-5.266c-.47635-.50072-1.13094-.81498-1.875-.81498h-11.71847z" fill="#eeeeec" stroke="#888a85" stroke-dashoffset="1.4" stroke-linecap="round"/>
<path d="m18.17695,1.5c-.45697,0-.8313.19399-1.13539.5h-.03154l-4.10002,5.0625c-.25758.45456-.41.93808-.41,1.46875v25.9375c0,1.69661 1.34696,3.03125 3.05925,3.03125h16.88151c1.71229,0 3.05925-1.33464 3.05925-3.03125v-25.9375c0-.53067-.15242-1.01419-.41-1.46875l-4.10002-5.0625c-.007-.00727-.02445.00713-.03154,0-.30409-.30601-.67842-.5-1.13539-.5h-11.64609z" fill="none" opacity=".7" stroke="#f9f9f9" stroke-dashoffset="1.4" stroke-linecap="round" stroke-linejoin="round"/>
<path d="m15.56002,5.5h16.91146c1.67779,0 3.02849,1.35083 3.02849,3.02876v32.94249c0,1.67793-1.35071,3.02876-3.02849,3.02876h-16.91146c-1.67779,0-3.0285-1.35083-3.0285-3.02876v-32.94249c0-1.67793 1.35071-3.02876 3.0285-3.02876z" fill="url(#linearGradient3732)" stroke="url(#linearGradient4774)" stroke-dashoffset="1.4" stroke-linecap="round"/>
<path d="m14.9,9.5h18.2a1.4,1.4 0 0,1 1.4,1.4v18.2a1.4,1.4 0 0,1 -1.4,1.4h-18.2a1.4,1.4 0 0,1 -1.4-1.4v-18.2a1.4,1.4 0 0,1 1.4-1.4" fill="#babdb6" fill-rule="evenodd" stroke="#6d6f6a" stroke-linejoin="round" stroke-opacity=".696"/>
<path d="m-33.08846,10h18.17692a.91154,.91154 0 0,1 .91154.91154v18.17692a.91154,.91154 0 0,1 -.91154.91154h-18.17692a.91154,.91154 0 0,1 -.91154-.91154v-18.17692a.91154,.91154 0 0,1 .91154-.91154" fill="url(#linearGradient4765)" fill-rule="evenodd" opacity=".709" transform="scale(-1,1)"/>
<path d="m14.5,13.44833h19v.10334h-19z" fill="none" stroke="url(#linearGradient4761)"/>
<path d="m18.46154,12h11.07692a.46154,1 0 0,1 .46154,1 .46154,1 0 0,1 -.46154,1h-11.07692a.46154,1 0 0,1 -.46154-1 .46154,1 0 0,1 .46154-1" fill="#5f615d" fill-rule="evenodd"/>
<path d="m18.46154,16h11.07692a.46154,1 0 0,1 .46154,1 .46154,1 0 0,1 -.46154,1h-11.07692a.46154,1 0 0,1 -.46154-1 .46154,1 0 0,1 .46154-1" fill="#5f615d" fill-rule="evenodd"/>
<path d="m14.5,17.47544h19v.04913h-19z" fill="none" stroke="url(#linearGradient4756)"/>
<path d="m14.5,21.5h19v.11525h-19z" fill="none" stroke="url(#linearGradient4753)"/>
<path d="m21.5-23.54282h5v.04282h-5z" fill="none" stroke="url(#linearGradient4750)" transform="scale(1,-1)"/>
<path d="m15.5-19.54282h5v.08564h-5z" fill="none" stroke="#888a85" transform="scale(1,-1)"/>
<path d="m22.5-19.54282h2v.08564h-2z" fill="none" stroke="#888a85" transform="scale(1,-1)"/>
<path d="m10.5,33.5h19-19z" fill="none" opacity=".1" stroke="#eeeeec" stroke-linecap="round" stroke-linejoin="round" transform="matrix(0,1,1,0,0,0)"/>
<path d="m7,15a2,2 0 1,1 -4,0 2,2 0 1,1 4,0z" fill="#2e3436" fill-rule="evenodd" opacity=".299" stroke="#2e3436" stroke-width="1.33333" transform="matrix(.75,0,0,.75,20.25,25.75)"/>
<path d="m7,15a2,2 0 1,1 -4,0 2,2 0 1,1 4,0z" fill="url(#linearGradient4138)" fill-rule="evenodd" opacity=".816" transform="matrix(.756755,0,0,.756755,20.202713,25.63516)"/>
<path d="m-29.33333,40.25h10.66667a.41667,.41667 0 0,1 .41667.41667v1.66667a.41667,.41667 0 0,1 -.41667.41667h-10.66667a.41667,.41667 0 0,1 -.41667-.41667v-1.66667a.41667,.41667 0 0,1 .41667-.41667" fill="#eeeeec" fill-opacity=".101" fill-rule="evenodd" opacity=".549" stroke="#000" stroke-linejoin="round" stroke-opacity=".378" stroke-width=".5" transform="scale(-1,1)"/>
<path d="m-25.5,32.25h3a.25,.25 0 0,1 .25.25v1a.25,.25 0 0,1 -.25.25h-3a.25,.25 0 0,1 -.25-.25v-1a.25,.25 0 0,1 .25-.25" fill="#eeeeec" fill-opacity=".101" fill-rule="evenodd" stroke="#000" stroke-linejoin="round" stroke-opacity=".378" stroke-width=".5" transform="scale(-1,1)"/>
<path d="m-24.875,39.25h1.75a.125,.125 0 0,1 .125.125v.5a.125,.125 0 0,1 -.125.125h-1.75a.125,.125 0 0,1 -.125-.125v-.5a.125,.125 0 0,1 .125-.125" fill="#fcea4f" fill-opacity=".658" fill-rule="evenodd" transform="scale(-1,1)"/>
<path d="m22.5-41.59366h3v.09366h-3z" fill="none" opacity=".48" stroke="#888a85" stroke-linecap="round" transform="scale(1,-1)"/>
<path d="m-33.5,29.47859h19v.04282h-19z" fill="none" opacity=".25" stroke="#eeeeec" stroke-linecap="round" stroke-linejoin="round" transform="scale(-1,1)"/>
</svg>
